M48
; DRILL file {KiCad 5.1.5-52549c5~86~ubuntu16.04.1} date Sat 18 Apr 2020 11:50:22 MDT
; FORMAT={-:-/ absolute / inch / decimal}
; #@! TF.CreationDate,2020-04-18T11:50:22-06:00
; #@! TF.GenerationSoftware,Kicad,Pcbnew,5.1.5-52549c5~86~ubuntu16.04.1
; #@! TF.FileFunction,Plated,1,2,PTH
FMAT,2
INCH
T1C0.0157
T2C0.0287
T3C0.0323
T4C0.0394
%
G90
G05
T1
X5.5068Y-4.25
X6.3068Y-4.25
X7.1068Y-4.25
X7.9068Y-4.25
T2
X6.0563Y-3.85
X6.3437Y-3.85
X7.7063Y-4.4
X7.9937Y-4.4
X5.7Y-3.7063
X5.7Y-3.9937
X6.1063Y-4.4
X6.3937Y-4.4
X8.1Y-3.7063
X8.1Y-3.9937
X6.8563Y-3.85
X7.1437Y-3.85
X6.5Y-3.7063
X6.5Y-3.9937
X7.6563Y-3.85
X7.9437Y-3.85
X6.1063Y-4.55
X6.3937Y-4.55
X7.3Y-3.7063
X7.3Y-3.9937
X6.9063Y-4.55
X7.1937Y-4.55
X6.9063Y-4.4
X7.1937Y-4.4
X5.2563Y-3.85
X5.5437Y-3.85
X5.3063Y-4.55
X5.5937Y-4.55
X5.3063Y-4.4
X5.5937Y-4.4
X7.7063Y-4.55
X7.9937Y-4.55
T3
X7.8508Y-3.5
X7.9492Y-3.5
X7.0508Y-2.3
X7.1492Y-2.3
X5.4508Y-2.3
X5.5492Y-2.3
X7.0508Y-3.5
X7.1492Y-3.5
X5.4508Y-3.5
X5.5492Y-3.5
X7.8508Y-2.3
X7.9492Y-2.3
X6.2508Y-2.3
X6.3492Y-2.3
X6.2508Y-3.5
X6.3492Y-3.5
T4
X5.3Y-4.8
X6.3Y-4.8
X6.1Y-4.8
X5.5Y-4.8
X5.7Y-4.8
X7.3Y-4.8
X6.5Y-4.8
X7.1Y-4.8
X7.9Y-4.8
X8.1Y-4.8
X6.9Y-4.8
X7.7Y-4.8
T0
M30
