G04 #@! TF.GenerationSoftware,KiCad,Pcbnew,5.1.5-52549c5~86~ubuntu16.04.1*
G04 #@! TF.CreationDate,2020-04-18T11:50:37-06:00*
G04 #@! TF.ProjectId,M_OpDetect,4d5f4f70-4465-4746-9563-742e6b696361,rev?*
G04 #@! TF.SameCoordinates,Original*
G04 #@! TF.FileFunction,Legend,Top*
G04 #@! TF.FilePolarity,Positive*
%FSLAX46Y46*%
G04 Gerber Fmt 4.6, Leading zero omitted, Abs format (unit mm)*
G04 Created by KiCad (PCBNEW 5.1.5-52549c5~86~ubuntu16.04.1) date 2020-04-18 11:50:37*
%MOMM*%
%LPD*%
G04 APERTURE LIST*
%ADD10C,0.250000*%
%ADD11C,0.200000*%
%ADD12C,0.127000*%
%ADD13C,0.300000*%
%ADD14C,0.152400*%
%ADD15C,0.050000*%
%ADD16C,0.150000*%
G04 APERTURE END LIST*
D10*
X131700000Y-75528333D02*
X131966666Y-75528333D01*
X132100000Y-75595000D01*
X132233333Y-75728333D01*
X132300000Y-75995000D01*
X132300000Y-76461666D01*
X132233333Y-76728333D01*
X132100000Y-76861666D01*
X131966666Y-76928333D01*
X131700000Y-76928333D01*
X131566666Y-76861666D01*
X131433333Y-76728333D01*
X131366666Y-76461666D01*
X131366666Y-75995000D01*
X131433333Y-75728333D01*
X131566666Y-75595000D01*
X131700000Y-75528333D01*
X132900000Y-75995000D02*
X132900000Y-77395000D01*
X132900000Y-76061666D02*
X133033333Y-75995000D01*
X133300000Y-75995000D01*
X133433333Y-76061666D01*
X133500000Y-76128333D01*
X133566666Y-76261666D01*
X133566666Y-76661666D01*
X133500000Y-76795000D01*
X133433333Y-76861666D01*
X133300000Y-76928333D01*
X133033333Y-76928333D01*
X132900000Y-76861666D01*
X133966666Y-75995000D02*
X134500000Y-75995000D01*
X134166666Y-75528333D02*
X134166666Y-76728333D01*
X134233333Y-76861666D01*
X134366666Y-76928333D01*
X134500000Y-76928333D01*
X134966666Y-76928333D02*
X134966666Y-75995000D01*
X134966666Y-75528333D02*
X134900000Y-75595000D01*
X134966666Y-75661666D01*
X135033333Y-75595000D01*
X134966666Y-75528333D01*
X134966666Y-75661666D01*
X136233333Y-76861666D02*
X136100000Y-76928333D01*
X135833333Y-76928333D01*
X135700000Y-76861666D01*
X135633333Y-76795000D01*
X135566666Y-76661666D01*
X135566666Y-76261666D01*
X135633333Y-76128333D01*
X135700000Y-76061666D01*
X135833333Y-75995000D01*
X136100000Y-75995000D01*
X136233333Y-76061666D01*
X137433333Y-76928333D02*
X137433333Y-76195000D01*
X137366666Y-76061666D01*
X137233333Y-75995000D01*
X136966666Y-75995000D01*
X136833333Y-76061666D01*
X137433333Y-76861666D02*
X137300000Y-76928333D01*
X136966666Y-76928333D01*
X136833333Y-76861666D01*
X136766666Y-76728333D01*
X136766666Y-76595000D01*
X136833333Y-76461666D01*
X136966666Y-76395000D01*
X137300000Y-76395000D01*
X137433333Y-76328333D01*
X138300000Y-76928333D02*
X138166666Y-76861666D01*
X138100000Y-76728333D01*
X138100000Y-75528333D01*
X139900000Y-76928333D02*
X139900000Y-75528333D01*
X140233333Y-75528333D01*
X140433333Y-75595000D01*
X140566666Y-75728333D01*
X140633333Y-75861666D01*
X140700000Y-76128333D01*
X140700000Y-76328333D01*
X140633333Y-76595000D01*
X140566666Y-76728333D01*
X140433333Y-76861666D01*
X140233333Y-76928333D01*
X139900000Y-76928333D01*
X141833333Y-76861666D02*
X141700000Y-76928333D01*
X141433333Y-76928333D01*
X141300000Y-76861666D01*
X141233333Y-76728333D01*
X141233333Y-76195000D01*
X141300000Y-76061666D01*
X141433333Y-75995000D01*
X141700000Y-75995000D01*
X141833333Y-76061666D01*
X141900000Y-76195000D01*
X141900000Y-76328333D01*
X141233333Y-76461666D01*
X142300000Y-75995000D02*
X142833333Y-75995000D01*
X142500000Y-75528333D02*
X142500000Y-76728333D01*
X142566666Y-76861666D01*
X142700000Y-76928333D01*
X142833333Y-76928333D01*
X143833333Y-76861666D02*
X143700000Y-76928333D01*
X143433333Y-76928333D01*
X143300000Y-76861666D01*
X143233333Y-76728333D01*
X143233333Y-76195000D01*
X143300000Y-76061666D01*
X143433333Y-75995000D01*
X143700000Y-75995000D01*
X143833333Y-76061666D01*
X143900000Y-76195000D01*
X143900000Y-76328333D01*
X143233333Y-76461666D01*
X145100000Y-76861666D02*
X144966666Y-76928333D01*
X144700000Y-76928333D01*
X144566666Y-76861666D01*
X144500000Y-76795000D01*
X144433333Y-76661666D01*
X144433333Y-76261666D01*
X144500000Y-76128333D01*
X144566666Y-76061666D01*
X144700000Y-75995000D01*
X144966666Y-75995000D01*
X145100000Y-76061666D01*
X145500000Y-75995000D02*
X146033333Y-75995000D01*
X145700000Y-75528333D02*
X145700000Y-76728333D01*
X145766666Y-76861666D01*
X145900000Y-76928333D01*
X146033333Y-76928333D01*
X146700000Y-76928333D02*
X146566666Y-76861666D01*
X146500000Y-76795000D01*
X146433333Y-76661666D01*
X146433333Y-76261666D01*
X146500000Y-76128333D01*
X146566666Y-76061666D01*
X146700000Y-75995000D01*
X146900000Y-75995000D01*
X147033333Y-76061666D01*
X147100000Y-76128333D01*
X147166666Y-76261666D01*
X147166666Y-76661666D01*
X147100000Y-76795000D01*
X147033333Y-76861666D01*
X146900000Y-76928333D01*
X146700000Y-76928333D01*
X147766666Y-76928333D02*
X147766666Y-75995000D01*
X147766666Y-76261666D02*
X147833333Y-76128333D01*
X147900000Y-76061666D01*
X148033333Y-75995000D01*
X148166666Y-75995000D01*
X134900000Y-79278333D02*
X134900000Y-77878333D01*
X135233333Y-77878333D01*
X135433333Y-77945000D01*
X135566666Y-78078333D01*
X135633333Y-78211666D01*
X135700000Y-78478333D01*
X135700000Y-78678333D01*
X135633333Y-78945000D01*
X135566666Y-79078333D01*
X135433333Y-79211666D01*
X135233333Y-79278333D01*
X134900000Y-79278333D01*
X136700000Y-77878333D02*
X136700000Y-78878333D01*
X136633333Y-79078333D01*
X136500000Y-79211666D01*
X136300000Y-79278333D01*
X136166666Y-79278333D01*
X137833333Y-78545000D02*
X138033333Y-78611666D01*
X138100000Y-78678333D01*
X138166666Y-78811666D01*
X138166666Y-79011666D01*
X138100000Y-79145000D01*
X138033333Y-79211666D01*
X137900000Y-79278333D01*
X137366666Y-79278333D01*
X137366666Y-77878333D01*
X137833333Y-77878333D01*
X137966666Y-77945000D01*
X138033333Y-78011666D01*
X138100000Y-78145000D01*
X138100000Y-78278333D01*
X138033333Y-78411666D01*
X137966666Y-78478333D01*
X137833333Y-78545000D01*
X137366666Y-78545000D01*
X139766666Y-78011666D02*
X139833333Y-77945000D01*
X139966666Y-77878333D01*
X140300000Y-77878333D01*
X140433333Y-77945000D01*
X140500000Y-78011666D01*
X140566666Y-78145000D01*
X140566666Y-78278333D01*
X140500000Y-78478333D01*
X139700000Y-79278333D01*
X140566666Y-79278333D01*
X141433333Y-77878333D02*
X141566666Y-77878333D01*
X141700000Y-77945000D01*
X141766666Y-78011666D01*
X141833333Y-78145000D01*
X141900000Y-78411666D01*
X141900000Y-78745000D01*
X141833333Y-79011666D01*
X141766666Y-79145000D01*
X141700000Y-79211666D01*
X141566666Y-79278333D01*
X141433333Y-79278333D01*
X141300000Y-79211666D01*
X141233333Y-79145000D01*
X141166666Y-79011666D01*
X141100000Y-78745000D01*
X141100000Y-78411666D01*
X141166666Y-78145000D01*
X141233333Y-78011666D01*
X141300000Y-77945000D01*
X141433333Y-77878333D01*
X143233333Y-79278333D02*
X142433333Y-79278333D01*
X142833333Y-79278333D02*
X142833333Y-77878333D01*
X142700000Y-78078333D01*
X142566666Y-78211666D01*
X142433333Y-78278333D01*
X143900000Y-79278333D02*
X144166666Y-79278333D01*
X144300000Y-79211666D01*
X144366666Y-79145000D01*
X144500000Y-78945000D01*
X144566666Y-78678333D01*
X144566666Y-78145000D01*
X144500000Y-78011666D01*
X144433333Y-77945000D01*
X144300000Y-77878333D01*
X144033333Y-77878333D01*
X143900000Y-77945000D01*
X143833333Y-78011666D01*
X143766666Y-78145000D01*
X143766666Y-78478333D01*
X143833333Y-78611666D01*
X143900000Y-78678333D01*
X144033333Y-78745000D01*
X144300000Y-78745000D01*
X144433333Y-78678333D01*
X144500000Y-78611666D01*
X144566666Y-78478333D01*
D11*
X130810000Y-52070000D02*
X148590000Y-52070000D01*
X148590000Y-52070000D02*
X148590000Y-124460000D01*
X148590000Y-124460000D02*
X130810000Y-124460000D01*
X130810000Y-124460000D02*
X130810000Y-52070000D01*
D10*
X152020000Y-75528333D02*
X152286666Y-75528333D01*
X152420000Y-75595000D01*
X152553333Y-75728333D01*
X152620000Y-75995000D01*
X152620000Y-76461666D01*
X152553333Y-76728333D01*
X152420000Y-76861666D01*
X152286666Y-76928333D01*
X152020000Y-76928333D01*
X151886666Y-76861666D01*
X151753333Y-76728333D01*
X151686666Y-76461666D01*
X151686666Y-75995000D01*
X151753333Y-75728333D01*
X151886666Y-75595000D01*
X152020000Y-75528333D01*
X153220000Y-75995000D02*
X153220000Y-77395000D01*
X153220000Y-76061666D02*
X153353333Y-75995000D01*
X153620000Y-75995000D01*
X153753333Y-76061666D01*
X153820000Y-76128333D01*
X153886666Y-76261666D01*
X153886666Y-76661666D01*
X153820000Y-76795000D01*
X153753333Y-76861666D01*
X153620000Y-76928333D01*
X153353333Y-76928333D01*
X153220000Y-76861666D01*
X154286666Y-75995000D02*
X154820000Y-75995000D01*
X154486666Y-75528333D02*
X154486666Y-76728333D01*
X154553333Y-76861666D01*
X154686666Y-76928333D01*
X154820000Y-76928333D01*
X155286666Y-76928333D02*
X155286666Y-75995000D01*
X155286666Y-75528333D02*
X155220000Y-75595000D01*
X155286666Y-75661666D01*
X155353333Y-75595000D01*
X155286666Y-75528333D01*
X155286666Y-75661666D01*
X156553333Y-76861666D02*
X156420000Y-76928333D01*
X156153333Y-76928333D01*
X156020000Y-76861666D01*
X155953333Y-76795000D01*
X155886666Y-76661666D01*
X155886666Y-76261666D01*
X155953333Y-76128333D01*
X156020000Y-76061666D01*
X156153333Y-75995000D01*
X156420000Y-75995000D01*
X156553333Y-76061666D01*
X157753333Y-76928333D02*
X157753333Y-76195000D01*
X157686666Y-76061666D01*
X157553333Y-75995000D01*
X157286666Y-75995000D01*
X157153333Y-76061666D01*
X157753333Y-76861666D02*
X157620000Y-76928333D01*
X157286666Y-76928333D01*
X157153333Y-76861666D01*
X157086666Y-76728333D01*
X157086666Y-76595000D01*
X157153333Y-76461666D01*
X157286666Y-76395000D01*
X157620000Y-76395000D01*
X157753333Y-76328333D01*
X158620000Y-76928333D02*
X158486666Y-76861666D01*
X158420000Y-76728333D01*
X158420000Y-75528333D01*
X160220000Y-76928333D02*
X160220000Y-75528333D01*
X160553333Y-75528333D01*
X160753333Y-75595000D01*
X160886666Y-75728333D01*
X160953333Y-75861666D01*
X161020000Y-76128333D01*
X161020000Y-76328333D01*
X160953333Y-76595000D01*
X160886666Y-76728333D01*
X160753333Y-76861666D01*
X160553333Y-76928333D01*
X160220000Y-76928333D01*
X162153333Y-76861666D02*
X162020000Y-76928333D01*
X161753333Y-76928333D01*
X161620000Y-76861666D01*
X161553333Y-76728333D01*
X161553333Y-76195000D01*
X161620000Y-76061666D01*
X161753333Y-75995000D01*
X162020000Y-75995000D01*
X162153333Y-76061666D01*
X162220000Y-76195000D01*
X162220000Y-76328333D01*
X161553333Y-76461666D01*
X162620000Y-75995000D02*
X163153333Y-75995000D01*
X162820000Y-75528333D02*
X162820000Y-76728333D01*
X162886666Y-76861666D01*
X163020000Y-76928333D01*
X163153333Y-76928333D01*
X164153333Y-76861666D02*
X164020000Y-76928333D01*
X163753333Y-76928333D01*
X163620000Y-76861666D01*
X163553333Y-76728333D01*
X163553333Y-76195000D01*
X163620000Y-76061666D01*
X163753333Y-75995000D01*
X164020000Y-75995000D01*
X164153333Y-76061666D01*
X164220000Y-76195000D01*
X164220000Y-76328333D01*
X163553333Y-76461666D01*
X165420000Y-76861666D02*
X165286666Y-76928333D01*
X165020000Y-76928333D01*
X164886666Y-76861666D01*
X164820000Y-76795000D01*
X164753333Y-76661666D01*
X164753333Y-76261666D01*
X164820000Y-76128333D01*
X164886666Y-76061666D01*
X165020000Y-75995000D01*
X165286666Y-75995000D01*
X165420000Y-76061666D01*
X165820000Y-75995000D02*
X166353333Y-75995000D01*
X166020000Y-75528333D02*
X166020000Y-76728333D01*
X166086666Y-76861666D01*
X166220000Y-76928333D01*
X166353333Y-76928333D01*
X167020000Y-76928333D02*
X166886666Y-76861666D01*
X166820000Y-76795000D01*
X166753333Y-76661666D01*
X166753333Y-76261666D01*
X166820000Y-76128333D01*
X166886666Y-76061666D01*
X167020000Y-75995000D01*
X167220000Y-75995000D01*
X167353333Y-76061666D01*
X167420000Y-76128333D01*
X167486666Y-76261666D01*
X167486666Y-76661666D01*
X167420000Y-76795000D01*
X167353333Y-76861666D01*
X167220000Y-76928333D01*
X167020000Y-76928333D01*
X168086666Y-76928333D02*
X168086666Y-75995000D01*
X168086666Y-76261666D02*
X168153333Y-76128333D01*
X168220000Y-76061666D01*
X168353333Y-75995000D01*
X168486666Y-75995000D01*
X155220000Y-79278333D02*
X155220000Y-77878333D01*
X155553333Y-77878333D01*
X155753333Y-77945000D01*
X155886666Y-78078333D01*
X155953333Y-78211666D01*
X156020000Y-78478333D01*
X156020000Y-78678333D01*
X155953333Y-78945000D01*
X155886666Y-79078333D01*
X155753333Y-79211666D01*
X155553333Y-79278333D01*
X155220000Y-79278333D01*
X157020000Y-77878333D02*
X157020000Y-78878333D01*
X156953333Y-79078333D01*
X156820000Y-79211666D01*
X156620000Y-79278333D01*
X156486666Y-79278333D01*
X158153333Y-78545000D02*
X158353333Y-78611666D01*
X158420000Y-78678333D01*
X158486666Y-78811666D01*
X158486666Y-79011666D01*
X158420000Y-79145000D01*
X158353333Y-79211666D01*
X158220000Y-79278333D01*
X157686666Y-79278333D01*
X157686666Y-77878333D01*
X158153333Y-77878333D01*
X158286666Y-77945000D01*
X158353333Y-78011666D01*
X158420000Y-78145000D01*
X158420000Y-78278333D01*
X158353333Y-78411666D01*
X158286666Y-78478333D01*
X158153333Y-78545000D01*
X157686666Y-78545000D01*
X160086666Y-78011666D02*
X160153333Y-77945000D01*
X160286666Y-77878333D01*
X160620000Y-77878333D01*
X160753333Y-77945000D01*
X160820000Y-78011666D01*
X160886666Y-78145000D01*
X160886666Y-78278333D01*
X160820000Y-78478333D01*
X160020000Y-79278333D01*
X160886666Y-79278333D01*
X161753333Y-77878333D02*
X161886666Y-77878333D01*
X162020000Y-77945000D01*
X162086666Y-78011666D01*
X162153333Y-78145000D01*
X162220000Y-78411666D01*
X162220000Y-78745000D01*
X162153333Y-79011666D01*
X162086666Y-79145000D01*
X162020000Y-79211666D01*
X161886666Y-79278333D01*
X161753333Y-79278333D01*
X161620000Y-79211666D01*
X161553333Y-79145000D01*
X161486666Y-79011666D01*
X161420000Y-78745000D01*
X161420000Y-78411666D01*
X161486666Y-78145000D01*
X161553333Y-78011666D01*
X161620000Y-77945000D01*
X161753333Y-77878333D01*
X163553333Y-79278333D02*
X162753333Y-79278333D01*
X163153333Y-79278333D02*
X163153333Y-77878333D01*
X163020000Y-78078333D01*
X162886666Y-78211666D01*
X162753333Y-78278333D01*
X164220000Y-79278333D02*
X164486666Y-79278333D01*
X164620000Y-79211666D01*
X164686666Y-79145000D01*
X164820000Y-78945000D01*
X164886666Y-78678333D01*
X164886666Y-78145000D01*
X164820000Y-78011666D01*
X164753333Y-77945000D01*
X164620000Y-77878333D01*
X164353333Y-77878333D01*
X164220000Y-77945000D01*
X164153333Y-78011666D01*
X164086666Y-78145000D01*
X164086666Y-78478333D01*
X164153333Y-78611666D01*
X164220000Y-78678333D01*
X164353333Y-78745000D01*
X164620000Y-78745000D01*
X164753333Y-78678333D01*
X164820000Y-78611666D01*
X164886666Y-78478333D01*
D11*
X151130000Y-52070000D02*
X168910000Y-52070000D01*
X168910000Y-52070000D02*
X168910000Y-124460000D01*
X168910000Y-124460000D02*
X151130000Y-124460000D01*
X151130000Y-124460000D02*
X151130000Y-52070000D01*
D10*
X172340000Y-75528333D02*
X172606666Y-75528333D01*
X172740000Y-75595000D01*
X172873333Y-75728333D01*
X172940000Y-75995000D01*
X172940000Y-76461666D01*
X172873333Y-76728333D01*
X172740000Y-76861666D01*
X172606666Y-76928333D01*
X172340000Y-76928333D01*
X172206666Y-76861666D01*
X172073333Y-76728333D01*
X172006666Y-76461666D01*
X172006666Y-75995000D01*
X172073333Y-75728333D01*
X172206666Y-75595000D01*
X172340000Y-75528333D01*
X173540000Y-75995000D02*
X173540000Y-77395000D01*
X173540000Y-76061666D02*
X173673333Y-75995000D01*
X173940000Y-75995000D01*
X174073333Y-76061666D01*
X174140000Y-76128333D01*
X174206666Y-76261666D01*
X174206666Y-76661666D01*
X174140000Y-76795000D01*
X174073333Y-76861666D01*
X173940000Y-76928333D01*
X173673333Y-76928333D01*
X173540000Y-76861666D01*
X174606666Y-75995000D02*
X175140000Y-75995000D01*
X174806666Y-75528333D02*
X174806666Y-76728333D01*
X174873333Y-76861666D01*
X175006666Y-76928333D01*
X175140000Y-76928333D01*
X175606666Y-76928333D02*
X175606666Y-75995000D01*
X175606666Y-75528333D02*
X175540000Y-75595000D01*
X175606666Y-75661666D01*
X175673333Y-75595000D01*
X175606666Y-75528333D01*
X175606666Y-75661666D01*
X176873333Y-76861666D02*
X176740000Y-76928333D01*
X176473333Y-76928333D01*
X176340000Y-76861666D01*
X176273333Y-76795000D01*
X176206666Y-76661666D01*
X176206666Y-76261666D01*
X176273333Y-76128333D01*
X176340000Y-76061666D01*
X176473333Y-75995000D01*
X176740000Y-75995000D01*
X176873333Y-76061666D01*
X178073333Y-76928333D02*
X178073333Y-76195000D01*
X178006666Y-76061666D01*
X177873333Y-75995000D01*
X177606666Y-75995000D01*
X177473333Y-76061666D01*
X178073333Y-76861666D02*
X177940000Y-76928333D01*
X177606666Y-76928333D01*
X177473333Y-76861666D01*
X177406666Y-76728333D01*
X177406666Y-76595000D01*
X177473333Y-76461666D01*
X177606666Y-76395000D01*
X177940000Y-76395000D01*
X178073333Y-76328333D01*
X178940000Y-76928333D02*
X178806666Y-76861666D01*
X178740000Y-76728333D01*
X178740000Y-75528333D01*
X180540000Y-76928333D02*
X180540000Y-75528333D01*
X180873333Y-75528333D01*
X181073333Y-75595000D01*
X181206666Y-75728333D01*
X181273333Y-75861666D01*
X181340000Y-76128333D01*
X181340000Y-76328333D01*
X181273333Y-76595000D01*
X181206666Y-76728333D01*
X181073333Y-76861666D01*
X180873333Y-76928333D01*
X180540000Y-76928333D01*
X182473333Y-76861666D02*
X182340000Y-76928333D01*
X182073333Y-76928333D01*
X181940000Y-76861666D01*
X181873333Y-76728333D01*
X181873333Y-76195000D01*
X181940000Y-76061666D01*
X182073333Y-75995000D01*
X182340000Y-75995000D01*
X182473333Y-76061666D01*
X182540000Y-76195000D01*
X182540000Y-76328333D01*
X181873333Y-76461666D01*
X182940000Y-75995000D02*
X183473333Y-75995000D01*
X183140000Y-75528333D02*
X183140000Y-76728333D01*
X183206666Y-76861666D01*
X183340000Y-76928333D01*
X183473333Y-76928333D01*
X184473333Y-76861666D02*
X184340000Y-76928333D01*
X184073333Y-76928333D01*
X183940000Y-76861666D01*
X183873333Y-76728333D01*
X183873333Y-76195000D01*
X183940000Y-76061666D01*
X184073333Y-75995000D01*
X184340000Y-75995000D01*
X184473333Y-76061666D01*
X184540000Y-76195000D01*
X184540000Y-76328333D01*
X183873333Y-76461666D01*
X185740000Y-76861666D02*
X185606666Y-76928333D01*
X185340000Y-76928333D01*
X185206666Y-76861666D01*
X185140000Y-76795000D01*
X185073333Y-76661666D01*
X185073333Y-76261666D01*
X185140000Y-76128333D01*
X185206666Y-76061666D01*
X185340000Y-75995000D01*
X185606666Y-75995000D01*
X185740000Y-76061666D01*
X186140000Y-75995000D02*
X186673333Y-75995000D01*
X186340000Y-75528333D02*
X186340000Y-76728333D01*
X186406666Y-76861666D01*
X186540000Y-76928333D01*
X186673333Y-76928333D01*
X187340000Y-76928333D02*
X187206666Y-76861666D01*
X187140000Y-76795000D01*
X187073333Y-76661666D01*
X187073333Y-76261666D01*
X187140000Y-76128333D01*
X187206666Y-76061666D01*
X187340000Y-75995000D01*
X187540000Y-75995000D01*
X187673333Y-76061666D01*
X187740000Y-76128333D01*
X187806666Y-76261666D01*
X187806666Y-76661666D01*
X187740000Y-76795000D01*
X187673333Y-76861666D01*
X187540000Y-76928333D01*
X187340000Y-76928333D01*
X188406666Y-76928333D02*
X188406666Y-75995000D01*
X188406666Y-76261666D02*
X188473333Y-76128333D01*
X188540000Y-76061666D01*
X188673333Y-75995000D01*
X188806666Y-75995000D01*
X175540000Y-79278333D02*
X175540000Y-77878333D01*
X175873333Y-77878333D01*
X176073333Y-77945000D01*
X176206666Y-78078333D01*
X176273333Y-78211666D01*
X176340000Y-78478333D01*
X176340000Y-78678333D01*
X176273333Y-78945000D01*
X176206666Y-79078333D01*
X176073333Y-79211666D01*
X175873333Y-79278333D01*
X175540000Y-79278333D01*
X177340000Y-77878333D02*
X177340000Y-78878333D01*
X177273333Y-79078333D01*
X177140000Y-79211666D01*
X176940000Y-79278333D01*
X176806666Y-79278333D01*
X178473333Y-78545000D02*
X178673333Y-78611666D01*
X178740000Y-78678333D01*
X178806666Y-78811666D01*
X178806666Y-79011666D01*
X178740000Y-79145000D01*
X178673333Y-79211666D01*
X178540000Y-79278333D01*
X178006666Y-79278333D01*
X178006666Y-77878333D01*
X178473333Y-77878333D01*
X178606666Y-77945000D01*
X178673333Y-78011666D01*
X178740000Y-78145000D01*
X178740000Y-78278333D01*
X178673333Y-78411666D01*
X178606666Y-78478333D01*
X178473333Y-78545000D01*
X178006666Y-78545000D01*
X180406666Y-78011666D02*
X180473333Y-77945000D01*
X180606666Y-77878333D01*
X180940000Y-77878333D01*
X181073333Y-77945000D01*
X181140000Y-78011666D01*
X181206666Y-78145000D01*
X181206666Y-78278333D01*
X181140000Y-78478333D01*
X180340000Y-79278333D01*
X181206666Y-79278333D01*
X182073333Y-77878333D02*
X182206666Y-77878333D01*
X182340000Y-77945000D01*
X182406666Y-78011666D01*
X182473333Y-78145000D01*
X182540000Y-78411666D01*
X182540000Y-78745000D01*
X182473333Y-79011666D01*
X182406666Y-79145000D01*
X182340000Y-79211666D01*
X182206666Y-79278333D01*
X182073333Y-79278333D01*
X181940000Y-79211666D01*
X181873333Y-79145000D01*
X181806666Y-79011666D01*
X181740000Y-78745000D01*
X181740000Y-78411666D01*
X181806666Y-78145000D01*
X181873333Y-78011666D01*
X181940000Y-77945000D01*
X182073333Y-77878333D01*
X183873333Y-79278333D02*
X183073333Y-79278333D01*
X183473333Y-79278333D02*
X183473333Y-77878333D01*
X183340000Y-78078333D01*
X183206666Y-78211666D01*
X183073333Y-78278333D01*
X184540000Y-79278333D02*
X184806666Y-79278333D01*
X184940000Y-79211666D01*
X185006666Y-79145000D01*
X185140000Y-78945000D01*
X185206666Y-78678333D01*
X185206666Y-78145000D01*
X185140000Y-78011666D01*
X185073333Y-77945000D01*
X184940000Y-77878333D01*
X184673333Y-77878333D01*
X184540000Y-77945000D01*
X184473333Y-78011666D01*
X184406666Y-78145000D01*
X184406666Y-78478333D01*
X184473333Y-78611666D01*
X184540000Y-78678333D01*
X184673333Y-78745000D01*
X184940000Y-78745000D01*
X185073333Y-78678333D01*
X185140000Y-78611666D01*
X185206666Y-78478333D01*
D11*
X171450000Y-52070000D02*
X189230000Y-52070000D01*
X189230000Y-52070000D02*
X189230000Y-124460000D01*
X189230000Y-124460000D02*
X171450000Y-124460000D01*
X171450000Y-124460000D02*
X171450000Y-52070000D01*
D10*
X192660000Y-75528333D02*
X192926666Y-75528333D01*
X193060000Y-75595000D01*
X193193333Y-75728333D01*
X193260000Y-75995000D01*
X193260000Y-76461666D01*
X193193333Y-76728333D01*
X193060000Y-76861666D01*
X192926666Y-76928333D01*
X192660000Y-76928333D01*
X192526666Y-76861666D01*
X192393333Y-76728333D01*
X192326666Y-76461666D01*
X192326666Y-75995000D01*
X192393333Y-75728333D01*
X192526666Y-75595000D01*
X192660000Y-75528333D01*
X193860000Y-75995000D02*
X193860000Y-77395000D01*
X193860000Y-76061666D02*
X193993333Y-75995000D01*
X194260000Y-75995000D01*
X194393333Y-76061666D01*
X194460000Y-76128333D01*
X194526666Y-76261666D01*
X194526666Y-76661666D01*
X194460000Y-76795000D01*
X194393333Y-76861666D01*
X194260000Y-76928333D01*
X193993333Y-76928333D01*
X193860000Y-76861666D01*
X194926666Y-75995000D02*
X195460000Y-75995000D01*
X195126666Y-75528333D02*
X195126666Y-76728333D01*
X195193333Y-76861666D01*
X195326666Y-76928333D01*
X195460000Y-76928333D01*
X195926666Y-76928333D02*
X195926666Y-75995000D01*
X195926666Y-75528333D02*
X195860000Y-75595000D01*
X195926666Y-75661666D01*
X195993333Y-75595000D01*
X195926666Y-75528333D01*
X195926666Y-75661666D01*
X197193333Y-76861666D02*
X197060000Y-76928333D01*
X196793333Y-76928333D01*
X196660000Y-76861666D01*
X196593333Y-76795000D01*
X196526666Y-76661666D01*
X196526666Y-76261666D01*
X196593333Y-76128333D01*
X196660000Y-76061666D01*
X196793333Y-75995000D01*
X197060000Y-75995000D01*
X197193333Y-76061666D01*
X198393333Y-76928333D02*
X198393333Y-76195000D01*
X198326666Y-76061666D01*
X198193333Y-75995000D01*
X197926666Y-75995000D01*
X197793333Y-76061666D01*
X198393333Y-76861666D02*
X198260000Y-76928333D01*
X197926666Y-76928333D01*
X197793333Y-76861666D01*
X197726666Y-76728333D01*
X197726666Y-76595000D01*
X197793333Y-76461666D01*
X197926666Y-76395000D01*
X198260000Y-76395000D01*
X198393333Y-76328333D01*
X199260000Y-76928333D02*
X199126666Y-76861666D01*
X199060000Y-76728333D01*
X199060000Y-75528333D01*
X200860000Y-76928333D02*
X200860000Y-75528333D01*
X201193333Y-75528333D01*
X201393333Y-75595000D01*
X201526666Y-75728333D01*
X201593333Y-75861666D01*
X201660000Y-76128333D01*
X201660000Y-76328333D01*
X201593333Y-76595000D01*
X201526666Y-76728333D01*
X201393333Y-76861666D01*
X201193333Y-76928333D01*
X200860000Y-76928333D01*
X202793333Y-76861666D02*
X202660000Y-76928333D01*
X202393333Y-76928333D01*
X202260000Y-76861666D01*
X202193333Y-76728333D01*
X202193333Y-76195000D01*
X202260000Y-76061666D01*
X202393333Y-75995000D01*
X202660000Y-75995000D01*
X202793333Y-76061666D01*
X202860000Y-76195000D01*
X202860000Y-76328333D01*
X202193333Y-76461666D01*
X203260000Y-75995000D02*
X203793333Y-75995000D01*
X203460000Y-75528333D02*
X203460000Y-76728333D01*
X203526666Y-76861666D01*
X203660000Y-76928333D01*
X203793333Y-76928333D01*
X204793333Y-76861666D02*
X204660000Y-76928333D01*
X204393333Y-76928333D01*
X204260000Y-76861666D01*
X204193333Y-76728333D01*
X204193333Y-76195000D01*
X204260000Y-76061666D01*
X204393333Y-75995000D01*
X204660000Y-75995000D01*
X204793333Y-76061666D01*
X204860000Y-76195000D01*
X204860000Y-76328333D01*
X204193333Y-76461666D01*
X206060000Y-76861666D02*
X205926666Y-76928333D01*
X205660000Y-76928333D01*
X205526666Y-76861666D01*
X205460000Y-76795000D01*
X205393333Y-76661666D01*
X205393333Y-76261666D01*
X205460000Y-76128333D01*
X205526666Y-76061666D01*
X205660000Y-75995000D01*
X205926666Y-75995000D01*
X206060000Y-76061666D01*
X206460000Y-75995000D02*
X206993333Y-75995000D01*
X206660000Y-75528333D02*
X206660000Y-76728333D01*
X206726666Y-76861666D01*
X206860000Y-76928333D01*
X206993333Y-76928333D01*
X207660000Y-76928333D02*
X207526666Y-76861666D01*
X207460000Y-76795000D01*
X207393333Y-76661666D01*
X207393333Y-76261666D01*
X207460000Y-76128333D01*
X207526666Y-76061666D01*
X207660000Y-75995000D01*
X207860000Y-75995000D01*
X207993333Y-76061666D01*
X208060000Y-76128333D01*
X208126666Y-76261666D01*
X208126666Y-76661666D01*
X208060000Y-76795000D01*
X207993333Y-76861666D01*
X207860000Y-76928333D01*
X207660000Y-76928333D01*
X208726666Y-76928333D02*
X208726666Y-75995000D01*
X208726666Y-76261666D02*
X208793333Y-76128333D01*
X208860000Y-76061666D01*
X208993333Y-75995000D01*
X209126666Y-75995000D01*
X195860000Y-79278333D02*
X195860000Y-77878333D01*
X196193333Y-77878333D01*
X196393333Y-77945000D01*
X196526666Y-78078333D01*
X196593333Y-78211666D01*
X196660000Y-78478333D01*
X196660000Y-78678333D01*
X196593333Y-78945000D01*
X196526666Y-79078333D01*
X196393333Y-79211666D01*
X196193333Y-79278333D01*
X195860000Y-79278333D01*
X197660000Y-77878333D02*
X197660000Y-78878333D01*
X197593333Y-79078333D01*
X197460000Y-79211666D01*
X197260000Y-79278333D01*
X197126666Y-79278333D01*
X198793333Y-78545000D02*
X198993333Y-78611666D01*
X199060000Y-78678333D01*
X199126666Y-78811666D01*
X199126666Y-79011666D01*
X199060000Y-79145000D01*
X198993333Y-79211666D01*
X198860000Y-79278333D01*
X198326666Y-79278333D01*
X198326666Y-77878333D01*
X198793333Y-77878333D01*
X198926666Y-77945000D01*
X198993333Y-78011666D01*
X199060000Y-78145000D01*
X199060000Y-78278333D01*
X198993333Y-78411666D01*
X198926666Y-78478333D01*
X198793333Y-78545000D01*
X198326666Y-78545000D01*
X200726666Y-78011666D02*
X200793333Y-77945000D01*
X200926666Y-77878333D01*
X201260000Y-77878333D01*
X201393333Y-77945000D01*
X201460000Y-78011666D01*
X201526666Y-78145000D01*
X201526666Y-78278333D01*
X201460000Y-78478333D01*
X200660000Y-79278333D01*
X201526666Y-79278333D01*
X202393333Y-77878333D02*
X202526666Y-77878333D01*
X202660000Y-77945000D01*
X202726666Y-78011666D01*
X202793333Y-78145000D01*
X202860000Y-78411666D01*
X202860000Y-78745000D01*
X202793333Y-79011666D01*
X202726666Y-79145000D01*
X202660000Y-79211666D01*
X202526666Y-79278333D01*
X202393333Y-79278333D01*
X202260000Y-79211666D01*
X202193333Y-79145000D01*
X202126666Y-79011666D01*
X202060000Y-78745000D01*
X202060000Y-78411666D01*
X202126666Y-78145000D01*
X202193333Y-78011666D01*
X202260000Y-77945000D01*
X202393333Y-77878333D01*
X204193333Y-79278333D02*
X203393333Y-79278333D01*
X203793333Y-79278333D02*
X203793333Y-77878333D01*
X203660000Y-78078333D01*
X203526666Y-78211666D01*
X203393333Y-78278333D01*
X204860000Y-79278333D02*
X205126666Y-79278333D01*
X205260000Y-79211666D01*
X205326666Y-79145000D01*
X205460000Y-78945000D01*
X205526666Y-78678333D01*
X205526666Y-78145000D01*
X205460000Y-78011666D01*
X205393333Y-77945000D01*
X205260000Y-77878333D01*
X204993333Y-77878333D01*
X204860000Y-77945000D01*
X204793333Y-78011666D01*
X204726666Y-78145000D01*
X204726666Y-78478333D01*
X204793333Y-78611666D01*
X204860000Y-78678333D01*
X204993333Y-78745000D01*
X205260000Y-78745000D01*
X205393333Y-78678333D01*
X205460000Y-78611666D01*
X205526666Y-78478333D01*
D11*
X191770000Y-52070000D02*
X209550000Y-52070000D01*
X209550000Y-52070000D02*
X209550000Y-124460000D01*
X209550000Y-124460000D02*
X191770000Y-124460000D01*
X191770000Y-124460000D02*
X191770000Y-52070000D01*
D12*
X143930000Y-99440000D02*
X143930000Y-96140000D01*
X143930000Y-96140000D02*
X144780000Y-96140000D01*
X144780000Y-96140000D02*
X145630000Y-96140000D01*
X145630000Y-96140000D02*
X145630000Y-99440000D01*
X145630000Y-99440000D02*
X144780000Y-99440000D01*
X144780000Y-99440000D02*
X143930000Y-99440000D01*
X144780000Y-99440000D02*
X144780000Y-100590000D01*
X144780000Y-96140000D02*
X144780000Y-94990000D01*
X136780000Y-110910000D02*
X140080000Y-110910000D01*
X140080000Y-110910000D02*
X140080000Y-111760000D01*
X140080000Y-111760000D02*
X140080000Y-112610000D01*
X140080000Y-112610000D02*
X136780000Y-112610000D01*
X136780000Y-112610000D02*
X136780000Y-111760000D01*
X136780000Y-111760000D02*
X136780000Y-110910000D01*
X136780000Y-111760000D02*
X135630000Y-111760000D01*
X140080000Y-111760000D02*
X141230000Y-111760000D01*
X143700000Y-58420000D02*
G75*
G03X143700000Y-58420000I-4000000J0D01*
G01*
D13*
X144200000Y-60520000D02*
G75*
G03X144200000Y-60520000I-100000J0D01*
G01*
D12*
X138810000Y-98640000D02*
X135510000Y-98640000D01*
X135510000Y-98640000D02*
X135510000Y-97790000D01*
X135510000Y-97790000D02*
X135510000Y-96940000D01*
X135510000Y-96940000D02*
X138810000Y-96940000D01*
X138810000Y-96940000D02*
X138810000Y-97790000D01*
X138810000Y-97790000D02*
X138810000Y-98640000D01*
X138810000Y-97790000D02*
X139960000Y-97790000D01*
X135510000Y-97790000D02*
X134360000Y-97790000D01*
X143700000Y-88900000D02*
G75*
G03X143700000Y-88900000I-4000000J0D01*
G01*
D13*
X135400000Y-86800000D02*
G75*
G03X135400000Y-86800000I-100000J0D01*
G01*
D14*
X135636000Y-104876600D02*
X135636000Y-105943400D01*
X136829800Y-106273600D02*
X137490200Y-106273600D01*
X138684000Y-105943400D02*
X138684000Y-105714800D01*
X138684000Y-105714800D02*
X138684000Y-105105200D01*
X138684000Y-105105200D02*
X138684000Y-104876600D01*
X138684000Y-105714800D02*
G75*
G02X138684000Y-105105200I0J304800D01*
G01*
D12*
X140080000Y-116420000D02*
X136780000Y-116420000D01*
X136780000Y-116420000D02*
X136780000Y-115570000D01*
X136780000Y-115570000D02*
X136780000Y-114720000D01*
X136780000Y-114720000D02*
X140080000Y-114720000D01*
X140080000Y-114720000D02*
X140080000Y-115570000D01*
X140080000Y-115570000D02*
X140080000Y-116420000D01*
X140080000Y-115570000D02*
X141230000Y-115570000D01*
X136780000Y-115570000D02*
X135630000Y-115570000D01*
X164250000Y-99440000D02*
X164250000Y-96140000D01*
X164250000Y-96140000D02*
X165100000Y-96140000D01*
X165100000Y-96140000D02*
X165950000Y-96140000D01*
X165950000Y-96140000D02*
X165950000Y-99440000D01*
X165950000Y-99440000D02*
X165100000Y-99440000D01*
X165100000Y-99440000D02*
X164250000Y-99440000D01*
X165100000Y-99440000D02*
X165100000Y-100590000D01*
X165100000Y-96140000D02*
X165100000Y-94990000D01*
X157100000Y-110910000D02*
X160400000Y-110910000D01*
X160400000Y-110910000D02*
X160400000Y-111760000D01*
X160400000Y-111760000D02*
X160400000Y-112610000D01*
X160400000Y-112610000D02*
X157100000Y-112610000D01*
X157100000Y-112610000D02*
X157100000Y-111760000D01*
X157100000Y-111760000D02*
X157100000Y-110910000D01*
X157100000Y-111760000D02*
X155950000Y-111760000D01*
X160400000Y-111760000D02*
X161550000Y-111760000D01*
X164020000Y-58420000D02*
G75*
G03X164020000Y-58420000I-4000000J0D01*
G01*
D13*
X164520000Y-60520000D02*
G75*
G03X164520000Y-60520000I-100000J0D01*
G01*
D12*
X159130000Y-98640000D02*
X155830000Y-98640000D01*
X155830000Y-98640000D02*
X155830000Y-97790000D01*
X155830000Y-97790000D02*
X155830000Y-96940000D01*
X155830000Y-96940000D02*
X159130000Y-96940000D01*
X159130000Y-96940000D02*
X159130000Y-97790000D01*
X159130000Y-97790000D02*
X159130000Y-98640000D01*
X159130000Y-97790000D02*
X160280000Y-97790000D01*
X155830000Y-97790000D02*
X154680000Y-97790000D01*
X164020000Y-88900000D02*
G75*
G03X164020000Y-88900000I-4000000J0D01*
G01*
D13*
X155720000Y-86800000D02*
G75*
G03X155720000Y-86800000I-100000J0D01*
G01*
D14*
X155956000Y-104876600D02*
X155956000Y-105943400D01*
X157149800Y-106273600D02*
X157810200Y-106273600D01*
X159004000Y-105943400D02*
X159004000Y-105714800D01*
X159004000Y-105714800D02*
X159004000Y-105105200D01*
X159004000Y-105105200D02*
X159004000Y-104876600D01*
X159004000Y-105714800D02*
G75*
G02X159004000Y-105105200I0J304800D01*
G01*
D12*
X160400000Y-116420000D02*
X157100000Y-116420000D01*
X157100000Y-116420000D02*
X157100000Y-115570000D01*
X157100000Y-115570000D02*
X157100000Y-114720000D01*
X157100000Y-114720000D02*
X160400000Y-114720000D01*
X160400000Y-114720000D02*
X160400000Y-115570000D01*
X160400000Y-115570000D02*
X160400000Y-116420000D01*
X160400000Y-115570000D02*
X161550000Y-115570000D01*
X157100000Y-115570000D02*
X155950000Y-115570000D01*
X184570000Y-99440000D02*
X184570000Y-96140000D01*
X184570000Y-96140000D02*
X185420000Y-96140000D01*
X185420000Y-96140000D02*
X186270000Y-96140000D01*
X186270000Y-96140000D02*
X186270000Y-99440000D01*
X186270000Y-99440000D02*
X185420000Y-99440000D01*
X185420000Y-99440000D02*
X184570000Y-99440000D01*
X185420000Y-99440000D02*
X185420000Y-100590000D01*
X185420000Y-96140000D02*
X185420000Y-94990000D01*
X177420000Y-110910000D02*
X180720000Y-110910000D01*
X180720000Y-110910000D02*
X180720000Y-111760000D01*
X180720000Y-111760000D02*
X180720000Y-112610000D01*
X180720000Y-112610000D02*
X177420000Y-112610000D01*
X177420000Y-112610000D02*
X177420000Y-111760000D01*
X177420000Y-111760000D02*
X177420000Y-110910000D01*
X177420000Y-111760000D02*
X176270000Y-111760000D01*
X180720000Y-111760000D02*
X181870000Y-111760000D01*
X184340000Y-58420000D02*
G75*
G03X184340000Y-58420000I-4000000J0D01*
G01*
D13*
X184840000Y-60520000D02*
G75*
G03X184840000Y-60520000I-100000J0D01*
G01*
D12*
X179450000Y-98640000D02*
X176150000Y-98640000D01*
X176150000Y-98640000D02*
X176150000Y-97790000D01*
X176150000Y-97790000D02*
X176150000Y-96940000D01*
X176150000Y-96940000D02*
X179450000Y-96940000D01*
X179450000Y-96940000D02*
X179450000Y-97790000D01*
X179450000Y-97790000D02*
X179450000Y-98640000D01*
X179450000Y-97790000D02*
X180600000Y-97790000D01*
X176150000Y-97790000D02*
X175000000Y-97790000D01*
X184340000Y-88900000D02*
G75*
G03X184340000Y-88900000I-4000000J0D01*
G01*
D13*
X176040000Y-86800000D02*
G75*
G03X176040000Y-86800000I-100000J0D01*
G01*
D14*
X176276000Y-104876600D02*
X176276000Y-105943400D01*
X177469800Y-106273600D02*
X178130200Y-106273600D01*
X179324000Y-105943400D02*
X179324000Y-105714800D01*
X179324000Y-105714800D02*
X179324000Y-105105200D01*
X179324000Y-105105200D02*
X179324000Y-104876600D01*
X179324000Y-105714800D02*
G75*
G02X179324000Y-105105200I0J304800D01*
G01*
D12*
X180720000Y-116420000D02*
X177420000Y-116420000D01*
X177420000Y-116420000D02*
X177420000Y-115570000D01*
X177420000Y-115570000D02*
X177420000Y-114720000D01*
X177420000Y-114720000D02*
X180720000Y-114720000D01*
X180720000Y-114720000D02*
X180720000Y-115570000D01*
X180720000Y-115570000D02*
X180720000Y-116420000D01*
X180720000Y-115570000D02*
X181870000Y-115570000D01*
X177420000Y-115570000D02*
X176270000Y-115570000D01*
X204890000Y-99440000D02*
X204890000Y-96140000D01*
X204890000Y-96140000D02*
X205740000Y-96140000D01*
X205740000Y-96140000D02*
X206590000Y-96140000D01*
X206590000Y-96140000D02*
X206590000Y-99440000D01*
X206590000Y-99440000D02*
X205740000Y-99440000D01*
X205740000Y-99440000D02*
X204890000Y-99440000D01*
X205740000Y-99440000D02*
X205740000Y-100590000D01*
X205740000Y-96140000D02*
X205740000Y-94990000D01*
X197740000Y-110910000D02*
X201040000Y-110910000D01*
X201040000Y-110910000D02*
X201040000Y-111760000D01*
X201040000Y-111760000D02*
X201040000Y-112610000D01*
X201040000Y-112610000D02*
X197740000Y-112610000D01*
X197740000Y-112610000D02*
X197740000Y-111760000D01*
X197740000Y-111760000D02*
X197740000Y-110910000D01*
X197740000Y-111760000D02*
X196590000Y-111760000D01*
X201040000Y-111760000D02*
X202190000Y-111760000D01*
X204660000Y-58420000D02*
G75*
G03X204660000Y-58420000I-4000000J0D01*
G01*
D13*
X205160000Y-60520000D02*
G75*
G03X205160000Y-60520000I-100000J0D01*
G01*
D12*
X199770000Y-98640000D02*
X196470000Y-98640000D01*
X196470000Y-98640000D02*
X196470000Y-97790000D01*
X196470000Y-97790000D02*
X196470000Y-96940000D01*
X196470000Y-96940000D02*
X199770000Y-96940000D01*
X199770000Y-96940000D02*
X199770000Y-97790000D01*
X199770000Y-97790000D02*
X199770000Y-98640000D01*
X199770000Y-97790000D02*
X200920000Y-97790000D01*
X196470000Y-97790000D02*
X195320000Y-97790000D01*
X204660000Y-88900000D02*
G75*
G03X204660000Y-88900000I-4000000J0D01*
G01*
D13*
X196360000Y-86800000D02*
G75*
G03X196360000Y-86800000I-100000J0D01*
G01*
D14*
X196596000Y-104876600D02*
X196596000Y-105943400D01*
X197789800Y-106273600D02*
X198450200Y-106273600D01*
X199644000Y-105943400D02*
X199644000Y-105714800D01*
X199644000Y-105714800D02*
X199644000Y-105105200D01*
X199644000Y-105105200D02*
X199644000Y-104876600D01*
X199644000Y-105714800D02*
G75*
G02X199644000Y-105105200I0J304800D01*
G01*
D12*
X201040000Y-116420000D02*
X197740000Y-116420000D01*
X197740000Y-116420000D02*
X197740000Y-115570000D01*
X197740000Y-115570000D02*
X197740000Y-114720000D01*
X197740000Y-114720000D02*
X201040000Y-114720000D01*
X201040000Y-114720000D02*
X201040000Y-115570000D01*
X201040000Y-115570000D02*
X201040000Y-116420000D01*
X201040000Y-115570000D02*
X202190000Y-115570000D01*
X197740000Y-115570000D02*
X196590000Y-115570000D01*
D15*
X143354076Y-98186926D02*
X143040732Y-98406266D01*
X143354076Y-98562938D02*
X142696055Y-98562938D01*
X142696055Y-98312263D01*
X142727389Y-98249594D01*
X142758723Y-98218260D01*
X142821392Y-98186926D01*
X142915395Y-98186926D01*
X142978064Y-98218260D01*
X143009398Y-98249594D01*
X143040732Y-98312263D01*
X143040732Y-98562938D01*
X142758723Y-97936251D02*
X142727389Y-97904917D01*
X142696055Y-97842248D01*
X142696055Y-97685576D01*
X142727389Y-97622908D01*
X142758723Y-97591573D01*
X142821392Y-97560239D01*
X142884061Y-97560239D01*
X142978064Y-97591573D01*
X143354076Y-97967585D01*
X143354076Y-97560239D01*
X146615441Y-98113258D02*
X146615441Y-98488645D01*
X146615441Y-98300951D02*
X145958513Y-98300951D01*
X146052360Y-98363516D01*
X146114925Y-98426081D01*
X146146207Y-98488645D01*
X145958513Y-97706588D02*
X145958513Y-97644023D01*
X145989796Y-97581459D01*
X146021078Y-97550177D01*
X146083642Y-97518894D01*
X146208772Y-97487612D01*
X146365183Y-97487612D01*
X146490312Y-97518894D01*
X146552877Y-97550177D01*
X146584159Y-97581459D01*
X146615441Y-97644023D01*
X146615441Y-97706588D01*
X146584159Y-97769153D01*
X146552877Y-97800435D01*
X146490312Y-97831717D01*
X146365183Y-97862999D01*
X146208772Y-97862999D01*
X146083642Y-97831717D01*
X146021078Y-97800435D01*
X145989796Y-97769153D01*
X145958513Y-97706588D01*
X146615441Y-97206071D02*
X145958513Y-97206071D01*
X146615441Y-96830684D02*
X146240054Y-97112225D01*
X145958513Y-96830684D02*
X146333901Y-97206071D01*
X138320329Y-112057676D02*
X138100989Y-111744332D01*
X137944317Y-112057676D02*
X137944317Y-111399655D01*
X138194992Y-111399655D01*
X138257661Y-111430989D01*
X138288995Y-111462323D01*
X138320329Y-111524992D01*
X138320329Y-111618995D01*
X138288995Y-111681664D01*
X138257661Y-111712998D01*
X138194992Y-111744332D01*
X137944317Y-111744332D01*
X138539670Y-111399655D02*
X138947016Y-111399655D01*
X138727676Y-111650329D01*
X138821679Y-111650329D01*
X138884347Y-111681664D01*
X138915682Y-111712998D01*
X138947016Y-111775667D01*
X138947016Y-111932338D01*
X138915682Y-111995007D01*
X138884347Y-112026341D01*
X138821679Y-112057676D01*
X138633673Y-112057676D01*
X138571004Y-112026341D01*
X138539670Y-111995007D01*
X138106741Y-110787181D02*
X137731354Y-110787181D01*
X137919048Y-110787181D02*
X137919048Y-110130253D01*
X137856483Y-110224100D01*
X137793919Y-110286665D01*
X137731354Y-110317947D01*
X138513411Y-110130253D02*
X138575976Y-110130253D01*
X138638540Y-110161536D01*
X138669823Y-110192818D01*
X138701105Y-110255382D01*
X138732387Y-110380512D01*
X138732387Y-110536923D01*
X138701105Y-110662052D01*
X138669823Y-110724617D01*
X138638540Y-110755899D01*
X138575976Y-110787181D01*
X138513411Y-110787181D01*
X138450847Y-110755899D01*
X138419564Y-110724617D01*
X138388282Y-110662052D01*
X138357000Y-110536923D01*
X138357000Y-110380512D01*
X138388282Y-110255382D01*
X138419564Y-110192818D01*
X138450847Y-110161536D01*
X138513411Y-110130253D01*
X139013928Y-110787181D02*
X139013928Y-110130253D01*
X139389315Y-110787181D02*
X139107775Y-110411794D01*
X139389315Y-110130253D02*
X139013928Y-110505641D01*
X139604761Y-61507619D02*
X139509523Y-61460000D01*
X139414285Y-61364761D01*
X139271428Y-61221904D01*
X139176190Y-61174285D01*
X139080952Y-61174285D01*
X139128571Y-61412380D02*
X139033333Y-61364761D01*
X138938095Y-61269523D01*
X138890476Y-61079047D01*
X138890476Y-60745714D01*
X138938095Y-60555238D01*
X139033333Y-60460000D01*
X139128571Y-60412380D01*
X139319047Y-60412380D01*
X139414285Y-60460000D01*
X139509523Y-60555238D01*
X139557142Y-60745714D01*
X139557142Y-61079047D01*
X139509523Y-61269523D01*
X139414285Y-61364761D01*
X139319047Y-61412380D01*
X139128571Y-61412380D01*
X140509523Y-61412380D02*
X139938095Y-61412380D01*
X140223809Y-61412380D02*
X140223809Y-60412380D01*
X140128571Y-60555238D01*
X140033333Y-60650476D01*
X139938095Y-60698095D01*
X137628571Y-56332380D02*
X137628571Y-55332380D01*
X138009523Y-55332380D01*
X138104761Y-55380000D01*
X138152380Y-55427619D01*
X138200000Y-55522857D01*
X138200000Y-55665714D01*
X138152380Y-55760952D01*
X138104761Y-55808571D01*
X138009523Y-55856190D01*
X137628571Y-55856190D01*
X138485714Y-55332380D02*
X139057142Y-55332380D01*
X138771428Y-56332380D02*
X138771428Y-55332380D01*
X139295238Y-55332380D02*
X139914285Y-55332380D01*
X139580952Y-55713333D01*
X139723809Y-55713333D01*
X139819047Y-55760952D01*
X139866666Y-55808571D01*
X139914285Y-55903809D01*
X139914285Y-56141904D01*
X139866666Y-56237142D01*
X139819047Y-56284761D01*
X139723809Y-56332380D01*
X139438095Y-56332380D01*
X139342857Y-56284761D01*
X139295238Y-56237142D01*
X140247619Y-55332380D02*
X140866666Y-55332380D01*
X140533333Y-55713333D01*
X140676190Y-55713333D01*
X140771428Y-55760952D01*
X140819047Y-55808571D01*
X140866666Y-55903809D01*
X140866666Y-56141904D01*
X140819047Y-56237142D01*
X140771428Y-56284761D01*
X140676190Y-56332380D01*
X140390476Y-56332380D01*
X140295238Y-56284761D01*
X140247619Y-56237142D01*
X141723809Y-55665714D02*
X141723809Y-56332380D01*
X141485714Y-55284761D02*
X141247619Y-55999047D01*
X141866666Y-55999047D01*
X137337585Y-99811276D02*
X137118245Y-99497932D01*
X136961573Y-99811276D02*
X136961573Y-99153255D01*
X137212248Y-99153255D01*
X137274917Y-99184589D01*
X137306251Y-99215923D01*
X137337585Y-99278592D01*
X137337585Y-99372595D01*
X137306251Y-99435264D01*
X137274917Y-99466598D01*
X137212248Y-99497932D01*
X136961573Y-99497932D01*
X137964272Y-99811276D02*
X137588260Y-99811276D01*
X137776266Y-99811276D02*
X137776266Y-99153255D01*
X137713597Y-99247258D01*
X137650929Y-99309926D01*
X137588260Y-99341261D01*
X136388378Y-95891993D02*
X136075555Y-95891993D01*
X136044273Y-96204816D01*
X136075555Y-96173534D01*
X136138119Y-96142252D01*
X136294531Y-96142252D01*
X136357095Y-96173534D01*
X136388378Y-96204816D01*
X136419660Y-96267381D01*
X136419660Y-96423792D01*
X136388378Y-96486357D01*
X136357095Y-96517639D01*
X136294531Y-96548921D01*
X136138119Y-96548921D01*
X136075555Y-96517639D01*
X136044273Y-96486357D01*
X136701201Y-96486357D02*
X136732483Y-96517639D01*
X136701201Y-96548921D01*
X136669918Y-96517639D01*
X136701201Y-96486357D01*
X136701201Y-96548921D01*
X137295564Y-95891993D02*
X137170435Y-95891993D01*
X137107870Y-95923276D01*
X137076588Y-95954558D01*
X137014023Y-96048405D01*
X136982741Y-96173534D01*
X136982741Y-96423792D01*
X137014023Y-96486357D01*
X137045306Y-96517639D01*
X137107870Y-96548921D01*
X137232999Y-96548921D01*
X137295564Y-96517639D01*
X137326846Y-96486357D01*
X137358129Y-96423792D01*
X137358129Y-96267381D01*
X137326846Y-96204816D01*
X137295564Y-96173534D01*
X137232999Y-96142252D01*
X137107870Y-96142252D01*
X137045306Y-96173534D01*
X137014023Y-96204816D01*
X136982741Y-96267381D01*
X137639669Y-96548921D02*
X137639669Y-95891993D01*
X138015057Y-96548921D02*
X137733516Y-96173534D01*
X138015057Y-95891993D02*
X137639669Y-96267381D01*
X139604761Y-86907619D02*
X139509523Y-86860000D01*
X139414285Y-86764761D01*
X139271428Y-86621904D01*
X139176190Y-86574285D01*
X139080952Y-86574285D01*
X139128571Y-86812380D02*
X139033333Y-86764761D01*
X138938095Y-86669523D01*
X138890476Y-86479047D01*
X138890476Y-86145714D01*
X138938095Y-85955238D01*
X139033333Y-85860000D01*
X139128571Y-85812380D01*
X139319047Y-85812380D01*
X139414285Y-85860000D01*
X139509523Y-85955238D01*
X139557142Y-86145714D01*
X139557142Y-86479047D01*
X139509523Y-86669523D01*
X139414285Y-86764761D01*
X139319047Y-86812380D01*
X139128571Y-86812380D01*
X139938095Y-85907619D02*
X139985714Y-85860000D01*
X140080952Y-85812380D01*
X140319047Y-85812380D01*
X140414285Y-85860000D01*
X140461904Y-85907619D01*
X140509523Y-86002857D01*
X140509523Y-86098095D01*
X140461904Y-86240952D01*
X139890476Y-86812380D01*
X140509523Y-86812380D01*
X137628571Y-91892380D02*
X137628571Y-90892380D01*
X138009523Y-90892380D01*
X138104761Y-90940000D01*
X138152380Y-90987619D01*
X138200000Y-91082857D01*
X138200000Y-91225714D01*
X138152380Y-91320952D01*
X138104761Y-91368571D01*
X138009523Y-91416190D01*
X137628571Y-91416190D01*
X138485714Y-90892380D02*
X139057142Y-90892380D01*
X138771428Y-91892380D02*
X138771428Y-90892380D01*
X139295238Y-90892380D02*
X139914285Y-90892380D01*
X139580952Y-91273333D01*
X139723809Y-91273333D01*
X139819047Y-91320952D01*
X139866666Y-91368571D01*
X139914285Y-91463809D01*
X139914285Y-91701904D01*
X139866666Y-91797142D01*
X139819047Y-91844761D01*
X139723809Y-91892380D01*
X139438095Y-91892380D01*
X139342857Y-91844761D01*
X139295238Y-91797142D01*
X140247619Y-90892380D02*
X140866666Y-90892380D01*
X140533333Y-91273333D01*
X140676190Y-91273333D01*
X140771428Y-91320952D01*
X140819047Y-91368571D01*
X140866666Y-91463809D01*
X140866666Y-91701904D01*
X140819047Y-91797142D01*
X140771428Y-91844761D01*
X140676190Y-91892380D01*
X140390476Y-91892380D01*
X140295238Y-91844761D01*
X140247619Y-91797142D01*
X141723809Y-91225714D02*
X141723809Y-91892380D01*
X141485714Y-90844761D02*
X141247619Y-91559047D01*
X141866666Y-91559047D01*
X139850213Y-107375769D02*
X141181249Y-107375769D01*
X141337841Y-107297472D01*
X141416137Y-107219176D01*
X141494433Y-107062584D01*
X141494433Y-106749399D01*
X141416137Y-106592807D01*
X141337841Y-106514510D01*
X141181249Y-106436214D01*
X139850213Y-106436214D01*
X141494433Y-104791994D02*
X141494433Y-105731549D01*
X141494433Y-105261771D02*
X139850213Y-105261771D01*
X140085102Y-105418364D01*
X140241694Y-105574956D01*
X140319990Y-105731549D01*
X132846943Y-110651643D02*
X132846943Y-109712026D01*
X134491273Y-110181835D02*
X132846943Y-110181835D01*
X134491273Y-108380902D02*
X134491273Y-109163916D01*
X132846943Y-109163916D01*
X132846943Y-107989395D02*
X132846943Y-106971476D01*
X133473355Y-107519586D01*
X133473355Y-107284682D01*
X133551656Y-107128079D01*
X133629957Y-107049777D01*
X133786560Y-106971476D01*
X134178067Y-106971476D01*
X134334670Y-107049777D01*
X134412972Y-107128079D01*
X134491273Y-107284682D01*
X134491273Y-107754490D01*
X134412972Y-107911093D01*
X134334670Y-107989395D01*
X132846943Y-106423366D02*
X132846943Y-105405447D01*
X133473355Y-105953557D01*
X133473355Y-105718653D01*
X133551656Y-105562050D01*
X133629957Y-105483749D01*
X133786560Y-105405447D01*
X134178067Y-105405447D01*
X134334670Y-105483749D01*
X134412972Y-105562050D01*
X134491273Y-105718653D01*
X134491273Y-106188462D01*
X134412972Y-106345065D01*
X134334670Y-106423366D01*
X134491273Y-103839419D02*
X134491273Y-104779036D01*
X134491273Y-104309227D02*
X132846943Y-104309227D01*
X133081847Y-104465830D01*
X133238450Y-104622433D01*
X133316752Y-104779036D01*
D16*
X143541904Y-118880000D02*
X143446666Y-118832380D01*
X143303809Y-118832380D01*
X143160952Y-118880000D01*
X143065714Y-118975238D01*
X143018095Y-119070476D01*
X142970476Y-119260952D01*
X142970476Y-119403809D01*
X143018095Y-119594285D01*
X143065714Y-119689523D01*
X143160952Y-119784761D01*
X143303809Y-119832380D01*
X143399047Y-119832380D01*
X143541904Y-119784761D01*
X143589523Y-119737142D01*
X143589523Y-119403809D01*
X143399047Y-119403809D01*
X144018095Y-119832380D02*
X144018095Y-118832380D01*
X144589523Y-119832380D01*
X144589523Y-118832380D01*
X145065714Y-119832380D02*
X145065714Y-118832380D01*
X145303809Y-118832380D01*
X145446666Y-118880000D01*
X145541904Y-118975238D01*
X145589523Y-119070476D01*
X145637142Y-119260952D01*
X145637142Y-119403809D01*
X145589523Y-119594285D01*
X145541904Y-119689523D01*
X145446666Y-119784761D01*
X145303809Y-119832380D01*
X145065714Y-119832380D01*
X146589523Y-119832380D02*
X146018095Y-119832380D01*
X146303809Y-119832380D02*
X146303809Y-118832380D01*
X146208571Y-118975238D01*
X146113333Y-119070476D01*
X146018095Y-119118095D01*
X132492857Y-119451428D02*
X133254761Y-119451428D01*
X132873809Y-119832380D02*
X132873809Y-119070476D01*
X134254761Y-119832380D02*
X133683333Y-119832380D01*
X133969047Y-119832380D02*
X133969047Y-118832380D01*
X133873809Y-118975238D01*
X133778571Y-119070476D01*
X133683333Y-119118095D01*
X140398571Y-118832380D02*
X140589047Y-118832380D01*
X140684285Y-118880000D01*
X140779523Y-118975238D01*
X140827142Y-119165714D01*
X140827142Y-119499047D01*
X140779523Y-119689523D01*
X140684285Y-119784761D01*
X140589047Y-119832380D01*
X140398571Y-119832380D01*
X140303333Y-119784761D01*
X140208095Y-119689523D01*
X140160476Y-119499047D01*
X140160476Y-119165714D01*
X140208095Y-118975238D01*
X140303333Y-118880000D01*
X140398571Y-118832380D01*
X141779523Y-119832380D02*
X141208095Y-119832380D01*
X141493809Y-119832380D02*
X141493809Y-118832380D01*
X141398571Y-118975238D01*
X141303333Y-119070476D01*
X141208095Y-119118095D01*
D15*
X138320329Y-115867676D02*
X138100989Y-115554332D01*
X137944317Y-115867676D02*
X137944317Y-115209655D01*
X138194992Y-115209655D01*
X138257661Y-115240989D01*
X138288995Y-115272323D01*
X138320329Y-115334992D01*
X138320329Y-115428995D01*
X138288995Y-115491664D01*
X138257661Y-115522998D01*
X138194992Y-115554332D01*
X137944317Y-115554332D01*
X138884347Y-115428995D02*
X138884347Y-115867676D01*
X138727676Y-115178320D02*
X138571004Y-115648335D01*
X138978350Y-115648335D01*
X137846071Y-114328921D02*
X137470684Y-114328921D01*
X137658378Y-114328921D02*
X137658378Y-113671993D01*
X137595813Y-113765840D01*
X137533249Y-113828405D01*
X137470684Y-113859687D01*
X138221459Y-113953534D02*
X138158894Y-113922252D01*
X138127612Y-113890969D01*
X138096330Y-113828405D01*
X138096330Y-113797122D01*
X138127612Y-113734558D01*
X138158894Y-113703276D01*
X138221459Y-113671993D01*
X138346588Y-113671993D01*
X138409153Y-113703276D01*
X138440435Y-113734558D01*
X138471717Y-113797122D01*
X138471717Y-113828405D01*
X138440435Y-113890969D01*
X138409153Y-113922252D01*
X138346588Y-113953534D01*
X138221459Y-113953534D01*
X138158894Y-113984816D01*
X138127612Y-114016098D01*
X138096330Y-114078663D01*
X138096330Y-114203792D01*
X138127612Y-114266357D01*
X138158894Y-114297639D01*
X138221459Y-114328921D01*
X138346588Y-114328921D01*
X138409153Y-114297639D01*
X138440435Y-114266357D01*
X138471717Y-114203792D01*
X138471717Y-114078663D01*
X138440435Y-114016098D01*
X138409153Y-113984816D01*
X138346588Y-113953534D01*
X138753258Y-114328921D02*
X138753258Y-113671993D01*
X139128645Y-114328921D02*
X138847105Y-113953534D01*
X139128645Y-113671993D02*
X138753258Y-114047381D01*
X163674076Y-98186926D02*
X163360732Y-98406266D01*
X163674076Y-98562938D02*
X163016055Y-98562938D01*
X163016055Y-98312263D01*
X163047389Y-98249594D01*
X163078723Y-98218260D01*
X163141392Y-98186926D01*
X163235395Y-98186926D01*
X163298064Y-98218260D01*
X163329398Y-98249594D01*
X163360732Y-98312263D01*
X163360732Y-98562938D01*
X163078723Y-97936251D02*
X163047389Y-97904917D01*
X163016055Y-97842248D01*
X163016055Y-97685576D01*
X163047389Y-97622908D01*
X163078723Y-97591573D01*
X163141392Y-97560239D01*
X163204061Y-97560239D01*
X163298064Y-97591573D01*
X163674076Y-97967585D01*
X163674076Y-97560239D01*
X166935441Y-98113258D02*
X166935441Y-98488645D01*
X166935441Y-98300951D02*
X166278513Y-98300951D01*
X166372360Y-98363516D01*
X166434925Y-98426081D01*
X166466207Y-98488645D01*
X166278513Y-97706588D02*
X166278513Y-97644023D01*
X166309796Y-97581459D01*
X166341078Y-97550177D01*
X166403642Y-97518894D01*
X166528772Y-97487612D01*
X166685183Y-97487612D01*
X166810312Y-97518894D01*
X166872877Y-97550177D01*
X166904159Y-97581459D01*
X166935441Y-97644023D01*
X166935441Y-97706588D01*
X166904159Y-97769153D01*
X166872877Y-97800435D01*
X166810312Y-97831717D01*
X166685183Y-97862999D01*
X166528772Y-97862999D01*
X166403642Y-97831717D01*
X166341078Y-97800435D01*
X166309796Y-97769153D01*
X166278513Y-97706588D01*
X166935441Y-97206071D02*
X166278513Y-97206071D01*
X166935441Y-96830684D02*
X166560054Y-97112225D01*
X166278513Y-96830684D02*
X166653901Y-97206071D01*
X158640329Y-112057676D02*
X158420989Y-111744332D01*
X158264317Y-112057676D02*
X158264317Y-111399655D01*
X158514992Y-111399655D01*
X158577661Y-111430989D01*
X158608995Y-111462323D01*
X158640329Y-111524992D01*
X158640329Y-111618995D01*
X158608995Y-111681664D01*
X158577661Y-111712998D01*
X158514992Y-111744332D01*
X158264317Y-111744332D01*
X158859670Y-111399655D02*
X159267016Y-111399655D01*
X159047676Y-111650329D01*
X159141679Y-111650329D01*
X159204347Y-111681664D01*
X159235682Y-111712998D01*
X159267016Y-111775667D01*
X159267016Y-111932338D01*
X159235682Y-111995007D01*
X159204347Y-112026341D01*
X159141679Y-112057676D01*
X158953673Y-112057676D01*
X158891004Y-112026341D01*
X158859670Y-111995007D01*
X158426741Y-110787181D02*
X158051354Y-110787181D01*
X158239048Y-110787181D02*
X158239048Y-110130253D01*
X158176483Y-110224100D01*
X158113919Y-110286665D01*
X158051354Y-110317947D01*
X158833411Y-110130253D02*
X158895976Y-110130253D01*
X158958540Y-110161536D01*
X158989823Y-110192818D01*
X159021105Y-110255382D01*
X159052387Y-110380512D01*
X159052387Y-110536923D01*
X159021105Y-110662052D01*
X158989823Y-110724617D01*
X158958540Y-110755899D01*
X158895976Y-110787181D01*
X158833411Y-110787181D01*
X158770847Y-110755899D01*
X158739564Y-110724617D01*
X158708282Y-110662052D01*
X158677000Y-110536923D01*
X158677000Y-110380512D01*
X158708282Y-110255382D01*
X158739564Y-110192818D01*
X158770847Y-110161536D01*
X158833411Y-110130253D01*
X159333928Y-110787181D02*
X159333928Y-110130253D01*
X159709315Y-110787181D02*
X159427775Y-110411794D01*
X159709315Y-110130253D02*
X159333928Y-110505641D01*
X159924761Y-61507619D02*
X159829523Y-61460000D01*
X159734285Y-61364761D01*
X159591428Y-61221904D01*
X159496190Y-61174285D01*
X159400952Y-61174285D01*
X159448571Y-61412380D02*
X159353333Y-61364761D01*
X159258095Y-61269523D01*
X159210476Y-61079047D01*
X159210476Y-60745714D01*
X159258095Y-60555238D01*
X159353333Y-60460000D01*
X159448571Y-60412380D01*
X159639047Y-60412380D01*
X159734285Y-60460000D01*
X159829523Y-60555238D01*
X159877142Y-60745714D01*
X159877142Y-61079047D01*
X159829523Y-61269523D01*
X159734285Y-61364761D01*
X159639047Y-61412380D01*
X159448571Y-61412380D01*
X160829523Y-61412380D02*
X160258095Y-61412380D01*
X160543809Y-61412380D02*
X160543809Y-60412380D01*
X160448571Y-60555238D01*
X160353333Y-60650476D01*
X160258095Y-60698095D01*
X157948571Y-56332380D02*
X157948571Y-55332380D01*
X158329523Y-55332380D01*
X158424761Y-55380000D01*
X158472380Y-55427619D01*
X158520000Y-55522857D01*
X158520000Y-55665714D01*
X158472380Y-55760952D01*
X158424761Y-55808571D01*
X158329523Y-55856190D01*
X157948571Y-55856190D01*
X158805714Y-55332380D02*
X159377142Y-55332380D01*
X159091428Y-56332380D02*
X159091428Y-55332380D01*
X159615238Y-55332380D02*
X160234285Y-55332380D01*
X159900952Y-55713333D01*
X160043809Y-55713333D01*
X160139047Y-55760952D01*
X160186666Y-55808571D01*
X160234285Y-55903809D01*
X160234285Y-56141904D01*
X160186666Y-56237142D01*
X160139047Y-56284761D01*
X160043809Y-56332380D01*
X159758095Y-56332380D01*
X159662857Y-56284761D01*
X159615238Y-56237142D01*
X160567619Y-55332380D02*
X161186666Y-55332380D01*
X160853333Y-55713333D01*
X160996190Y-55713333D01*
X161091428Y-55760952D01*
X161139047Y-55808571D01*
X161186666Y-55903809D01*
X161186666Y-56141904D01*
X161139047Y-56237142D01*
X161091428Y-56284761D01*
X160996190Y-56332380D01*
X160710476Y-56332380D01*
X160615238Y-56284761D01*
X160567619Y-56237142D01*
X162043809Y-55665714D02*
X162043809Y-56332380D01*
X161805714Y-55284761D02*
X161567619Y-55999047D01*
X162186666Y-55999047D01*
X157657585Y-99811276D02*
X157438245Y-99497932D01*
X157281573Y-99811276D02*
X157281573Y-99153255D01*
X157532248Y-99153255D01*
X157594917Y-99184589D01*
X157626251Y-99215923D01*
X157657585Y-99278592D01*
X157657585Y-99372595D01*
X157626251Y-99435264D01*
X157594917Y-99466598D01*
X157532248Y-99497932D01*
X157281573Y-99497932D01*
X158284272Y-99811276D02*
X157908260Y-99811276D01*
X158096266Y-99811276D02*
X158096266Y-99153255D01*
X158033597Y-99247258D01*
X157970929Y-99309926D01*
X157908260Y-99341261D01*
X156708378Y-95891993D02*
X156395555Y-95891993D01*
X156364273Y-96204816D01*
X156395555Y-96173534D01*
X156458119Y-96142252D01*
X156614531Y-96142252D01*
X156677095Y-96173534D01*
X156708378Y-96204816D01*
X156739660Y-96267381D01*
X156739660Y-96423792D01*
X156708378Y-96486357D01*
X156677095Y-96517639D01*
X156614531Y-96548921D01*
X156458119Y-96548921D01*
X156395555Y-96517639D01*
X156364273Y-96486357D01*
X157021201Y-96486357D02*
X157052483Y-96517639D01*
X157021201Y-96548921D01*
X156989918Y-96517639D01*
X157021201Y-96486357D01*
X157021201Y-96548921D01*
X157615564Y-95891993D02*
X157490435Y-95891993D01*
X157427870Y-95923276D01*
X157396588Y-95954558D01*
X157334023Y-96048405D01*
X157302741Y-96173534D01*
X157302741Y-96423792D01*
X157334023Y-96486357D01*
X157365306Y-96517639D01*
X157427870Y-96548921D01*
X157552999Y-96548921D01*
X157615564Y-96517639D01*
X157646846Y-96486357D01*
X157678129Y-96423792D01*
X157678129Y-96267381D01*
X157646846Y-96204816D01*
X157615564Y-96173534D01*
X157552999Y-96142252D01*
X157427870Y-96142252D01*
X157365306Y-96173534D01*
X157334023Y-96204816D01*
X157302741Y-96267381D01*
X157959669Y-96548921D02*
X157959669Y-95891993D01*
X158335057Y-96548921D02*
X158053516Y-96173534D01*
X158335057Y-95891993D02*
X157959669Y-96267381D01*
X159924761Y-86907619D02*
X159829523Y-86860000D01*
X159734285Y-86764761D01*
X159591428Y-86621904D01*
X159496190Y-86574285D01*
X159400952Y-86574285D01*
X159448571Y-86812380D02*
X159353333Y-86764761D01*
X159258095Y-86669523D01*
X159210476Y-86479047D01*
X159210476Y-86145714D01*
X159258095Y-85955238D01*
X159353333Y-85860000D01*
X159448571Y-85812380D01*
X159639047Y-85812380D01*
X159734285Y-85860000D01*
X159829523Y-85955238D01*
X159877142Y-86145714D01*
X159877142Y-86479047D01*
X159829523Y-86669523D01*
X159734285Y-86764761D01*
X159639047Y-86812380D01*
X159448571Y-86812380D01*
X160258095Y-85907619D02*
X160305714Y-85860000D01*
X160400952Y-85812380D01*
X160639047Y-85812380D01*
X160734285Y-85860000D01*
X160781904Y-85907619D01*
X160829523Y-86002857D01*
X160829523Y-86098095D01*
X160781904Y-86240952D01*
X160210476Y-86812380D01*
X160829523Y-86812380D01*
X157948571Y-91892380D02*
X157948571Y-90892380D01*
X158329523Y-90892380D01*
X158424761Y-90940000D01*
X158472380Y-90987619D01*
X158520000Y-91082857D01*
X158520000Y-91225714D01*
X158472380Y-91320952D01*
X158424761Y-91368571D01*
X158329523Y-91416190D01*
X157948571Y-91416190D01*
X158805714Y-90892380D02*
X159377142Y-90892380D01*
X159091428Y-91892380D02*
X159091428Y-90892380D01*
X159615238Y-90892380D02*
X160234285Y-90892380D01*
X159900952Y-91273333D01*
X160043809Y-91273333D01*
X160139047Y-91320952D01*
X160186666Y-91368571D01*
X160234285Y-91463809D01*
X160234285Y-91701904D01*
X160186666Y-91797142D01*
X160139047Y-91844761D01*
X160043809Y-91892380D01*
X159758095Y-91892380D01*
X159662857Y-91844761D01*
X159615238Y-91797142D01*
X160567619Y-90892380D02*
X161186666Y-90892380D01*
X160853333Y-91273333D01*
X160996190Y-91273333D01*
X161091428Y-91320952D01*
X161139047Y-91368571D01*
X161186666Y-91463809D01*
X161186666Y-91701904D01*
X161139047Y-91797142D01*
X161091428Y-91844761D01*
X160996190Y-91892380D01*
X160710476Y-91892380D01*
X160615238Y-91844761D01*
X160567619Y-91797142D01*
X162043809Y-91225714D02*
X162043809Y-91892380D01*
X161805714Y-90844761D02*
X161567619Y-91559047D01*
X162186666Y-91559047D01*
X160170213Y-107375769D02*
X161501249Y-107375769D01*
X161657841Y-107297472D01*
X161736137Y-107219176D01*
X161814433Y-107062584D01*
X161814433Y-106749399D01*
X161736137Y-106592807D01*
X161657841Y-106514510D01*
X161501249Y-106436214D01*
X160170213Y-106436214D01*
X161814433Y-104791994D02*
X161814433Y-105731549D01*
X161814433Y-105261771D02*
X160170213Y-105261771D01*
X160405102Y-105418364D01*
X160561694Y-105574956D01*
X160639990Y-105731549D01*
X153166943Y-110651643D02*
X153166943Y-109712026D01*
X154811273Y-110181835D02*
X153166943Y-110181835D01*
X154811273Y-108380902D02*
X154811273Y-109163916D01*
X153166943Y-109163916D01*
X153166943Y-107989395D02*
X153166943Y-106971476D01*
X153793355Y-107519586D01*
X153793355Y-107284682D01*
X153871656Y-107128079D01*
X153949957Y-107049777D01*
X154106560Y-106971476D01*
X154498067Y-106971476D01*
X154654670Y-107049777D01*
X154732972Y-107128079D01*
X154811273Y-107284682D01*
X154811273Y-107754490D01*
X154732972Y-107911093D01*
X154654670Y-107989395D01*
X153166943Y-106423366D02*
X153166943Y-105405447D01*
X153793355Y-105953557D01*
X153793355Y-105718653D01*
X153871656Y-105562050D01*
X153949957Y-105483749D01*
X154106560Y-105405447D01*
X154498067Y-105405447D01*
X154654670Y-105483749D01*
X154732972Y-105562050D01*
X154811273Y-105718653D01*
X154811273Y-106188462D01*
X154732972Y-106345065D01*
X154654670Y-106423366D01*
X154811273Y-103839419D02*
X154811273Y-104779036D01*
X154811273Y-104309227D02*
X153166943Y-104309227D01*
X153401847Y-104465830D01*
X153558450Y-104622433D01*
X153636752Y-104779036D01*
D16*
X163861904Y-118880000D02*
X163766666Y-118832380D01*
X163623809Y-118832380D01*
X163480952Y-118880000D01*
X163385714Y-118975238D01*
X163338095Y-119070476D01*
X163290476Y-119260952D01*
X163290476Y-119403809D01*
X163338095Y-119594285D01*
X163385714Y-119689523D01*
X163480952Y-119784761D01*
X163623809Y-119832380D01*
X163719047Y-119832380D01*
X163861904Y-119784761D01*
X163909523Y-119737142D01*
X163909523Y-119403809D01*
X163719047Y-119403809D01*
X164338095Y-119832380D02*
X164338095Y-118832380D01*
X164909523Y-119832380D01*
X164909523Y-118832380D01*
X165385714Y-119832380D02*
X165385714Y-118832380D01*
X165623809Y-118832380D01*
X165766666Y-118880000D01*
X165861904Y-118975238D01*
X165909523Y-119070476D01*
X165957142Y-119260952D01*
X165957142Y-119403809D01*
X165909523Y-119594285D01*
X165861904Y-119689523D01*
X165766666Y-119784761D01*
X165623809Y-119832380D01*
X165385714Y-119832380D01*
X166909523Y-119832380D02*
X166338095Y-119832380D01*
X166623809Y-119832380D02*
X166623809Y-118832380D01*
X166528571Y-118975238D01*
X166433333Y-119070476D01*
X166338095Y-119118095D01*
X152812857Y-119451428D02*
X153574761Y-119451428D01*
X153193809Y-119832380D02*
X153193809Y-119070476D01*
X154574761Y-119832380D02*
X154003333Y-119832380D01*
X154289047Y-119832380D02*
X154289047Y-118832380D01*
X154193809Y-118975238D01*
X154098571Y-119070476D01*
X154003333Y-119118095D01*
X160718571Y-118832380D02*
X160909047Y-118832380D01*
X161004285Y-118880000D01*
X161099523Y-118975238D01*
X161147142Y-119165714D01*
X161147142Y-119499047D01*
X161099523Y-119689523D01*
X161004285Y-119784761D01*
X160909047Y-119832380D01*
X160718571Y-119832380D01*
X160623333Y-119784761D01*
X160528095Y-119689523D01*
X160480476Y-119499047D01*
X160480476Y-119165714D01*
X160528095Y-118975238D01*
X160623333Y-118880000D01*
X160718571Y-118832380D01*
X162099523Y-119832380D02*
X161528095Y-119832380D01*
X161813809Y-119832380D02*
X161813809Y-118832380D01*
X161718571Y-118975238D01*
X161623333Y-119070476D01*
X161528095Y-119118095D01*
D15*
X158640329Y-115867676D02*
X158420989Y-115554332D01*
X158264317Y-115867676D02*
X158264317Y-115209655D01*
X158514992Y-115209655D01*
X158577661Y-115240989D01*
X158608995Y-115272323D01*
X158640329Y-115334992D01*
X158640329Y-115428995D01*
X158608995Y-115491664D01*
X158577661Y-115522998D01*
X158514992Y-115554332D01*
X158264317Y-115554332D01*
X159204347Y-115428995D02*
X159204347Y-115867676D01*
X159047676Y-115178320D02*
X158891004Y-115648335D01*
X159298350Y-115648335D01*
X158166071Y-114328921D02*
X157790684Y-114328921D01*
X157978378Y-114328921D02*
X157978378Y-113671993D01*
X157915813Y-113765840D01*
X157853249Y-113828405D01*
X157790684Y-113859687D01*
X158541459Y-113953534D02*
X158478894Y-113922252D01*
X158447612Y-113890969D01*
X158416330Y-113828405D01*
X158416330Y-113797122D01*
X158447612Y-113734558D01*
X158478894Y-113703276D01*
X158541459Y-113671993D01*
X158666588Y-113671993D01*
X158729153Y-113703276D01*
X158760435Y-113734558D01*
X158791717Y-113797122D01*
X158791717Y-113828405D01*
X158760435Y-113890969D01*
X158729153Y-113922252D01*
X158666588Y-113953534D01*
X158541459Y-113953534D01*
X158478894Y-113984816D01*
X158447612Y-114016098D01*
X158416330Y-114078663D01*
X158416330Y-114203792D01*
X158447612Y-114266357D01*
X158478894Y-114297639D01*
X158541459Y-114328921D01*
X158666588Y-114328921D01*
X158729153Y-114297639D01*
X158760435Y-114266357D01*
X158791717Y-114203792D01*
X158791717Y-114078663D01*
X158760435Y-114016098D01*
X158729153Y-113984816D01*
X158666588Y-113953534D01*
X159073258Y-114328921D02*
X159073258Y-113671993D01*
X159448645Y-114328921D02*
X159167105Y-113953534D01*
X159448645Y-113671993D02*
X159073258Y-114047381D01*
X183994076Y-98186926D02*
X183680732Y-98406266D01*
X183994076Y-98562938D02*
X183336055Y-98562938D01*
X183336055Y-98312263D01*
X183367389Y-98249594D01*
X183398723Y-98218260D01*
X183461392Y-98186926D01*
X183555395Y-98186926D01*
X183618064Y-98218260D01*
X183649398Y-98249594D01*
X183680732Y-98312263D01*
X183680732Y-98562938D01*
X183398723Y-97936251D02*
X183367389Y-97904917D01*
X183336055Y-97842248D01*
X183336055Y-97685576D01*
X183367389Y-97622908D01*
X183398723Y-97591573D01*
X183461392Y-97560239D01*
X183524061Y-97560239D01*
X183618064Y-97591573D01*
X183994076Y-97967585D01*
X183994076Y-97560239D01*
X187255441Y-98113258D02*
X187255441Y-98488645D01*
X187255441Y-98300951D02*
X186598513Y-98300951D01*
X186692360Y-98363516D01*
X186754925Y-98426081D01*
X186786207Y-98488645D01*
X186598513Y-97706588D02*
X186598513Y-97644023D01*
X186629796Y-97581459D01*
X186661078Y-97550177D01*
X186723642Y-97518894D01*
X186848772Y-97487612D01*
X187005183Y-97487612D01*
X187130312Y-97518894D01*
X187192877Y-97550177D01*
X187224159Y-97581459D01*
X187255441Y-97644023D01*
X187255441Y-97706588D01*
X187224159Y-97769153D01*
X187192877Y-97800435D01*
X187130312Y-97831717D01*
X187005183Y-97862999D01*
X186848772Y-97862999D01*
X186723642Y-97831717D01*
X186661078Y-97800435D01*
X186629796Y-97769153D01*
X186598513Y-97706588D01*
X187255441Y-97206071D02*
X186598513Y-97206071D01*
X187255441Y-96830684D02*
X186880054Y-97112225D01*
X186598513Y-96830684D02*
X186973901Y-97206071D01*
X178960329Y-112057676D02*
X178740989Y-111744332D01*
X178584317Y-112057676D02*
X178584317Y-111399655D01*
X178834992Y-111399655D01*
X178897661Y-111430989D01*
X178928995Y-111462323D01*
X178960329Y-111524992D01*
X178960329Y-111618995D01*
X178928995Y-111681664D01*
X178897661Y-111712998D01*
X178834992Y-111744332D01*
X178584317Y-111744332D01*
X179179670Y-111399655D02*
X179587016Y-111399655D01*
X179367676Y-111650329D01*
X179461679Y-111650329D01*
X179524347Y-111681664D01*
X179555682Y-111712998D01*
X179587016Y-111775667D01*
X179587016Y-111932338D01*
X179555682Y-111995007D01*
X179524347Y-112026341D01*
X179461679Y-112057676D01*
X179273673Y-112057676D01*
X179211004Y-112026341D01*
X179179670Y-111995007D01*
X178746741Y-110787181D02*
X178371354Y-110787181D01*
X178559048Y-110787181D02*
X178559048Y-110130253D01*
X178496483Y-110224100D01*
X178433919Y-110286665D01*
X178371354Y-110317947D01*
X179153411Y-110130253D02*
X179215976Y-110130253D01*
X179278540Y-110161536D01*
X179309823Y-110192818D01*
X179341105Y-110255382D01*
X179372387Y-110380512D01*
X179372387Y-110536923D01*
X179341105Y-110662052D01*
X179309823Y-110724617D01*
X179278540Y-110755899D01*
X179215976Y-110787181D01*
X179153411Y-110787181D01*
X179090847Y-110755899D01*
X179059564Y-110724617D01*
X179028282Y-110662052D01*
X178997000Y-110536923D01*
X178997000Y-110380512D01*
X179028282Y-110255382D01*
X179059564Y-110192818D01*
X179090847Y-110161536D01*
X179153411Y-110130253D01*
X179653928Y-110787181D02*
X179653928Y-110130253D01*
X180029315Y-110787181D02*
X179747775Y-110411794D01*
X180029315Y-110130253D02*
X179653928Y-110505641D01*
X180244761Y-61507619D02*
X180149523Y-61460000D01*
X180054285Y-61364761D01*
X179911428Y-61221904D01*
X179816190Y-61174285D01*
X179720952Y-61174285D01*
X179768571Y-61412380D02*
X179673333Y-61364761D01*
X179578095Y-61269523D01*
X179530476Y-61079047D01*
X179530476Y-60745714D01*
X179578095Y-60555238D01*
X179673333Y-60460000D01*
X179768571Y-60412380D01*
X179959047Y-60412380D01*
X180054285Y-60460000D01*
X180149523Y-60555238D01*
X180197142Y-60745714D01*
X180197142Y-61079047D01*
X180149523Y-61269523D01*
X180054285Y-61364761D01*
X179959047Y-61412380D01*
X179768571Y-61412380D01*
X181149523Y-61412380D02*
X180578095Y-61412380D01*
X180863809Y-61412380D02*
X180863809Y-60412380D01*
X180768571Y-60555238D01*
X180673333Y-60650476D01*
X180578095Y-60698095D01*
X178268571Y-56332380D02*
X178268571Y-55332380D01*
X178649523Y-55332380D01*
X178744761Y-55380000D01*
X178792380Y-55427619D01*
X178840000Y-55522857D01*
X178840000Y-55665714D01*
X178792380Y-55760952D01*
X178744761Y-55808571D01*
X178649523Y-55856190D01*
X178268571Y-55856190D01*
X179125714Y-55332380D02*
X179697142Y-55332380D01*
X179411428Y-56332380D02*
X179411428Y-55332380D01*
X179935238Y-55332380D02*
X180554285Y-55332380D01*
X180220952Y-55713333D01*
X180363809Y-55713333D01*
X180459047Y-55760952D01*
X180506666Y-55808571D01*
X180554285Y-55903809D01*
X180554285Y-56141904D01*
X180506666Y-56237142D01*
X180459047Y-56284761D01*
X180363809Y-56332380D01*
X180078095Y-56332380D01*
X179982857Y-56284761D01*
X179935238Y-56237142D01*
X180887619Y-55332380D02*
X181506666Y-55332380D01*
X181173333Y-55713333D01*
X181316190Y-55713333D01*
X181411428Y-55760952D01*
X181459047Y-55808571D01*
X181506666Y-55903809D01*
X181506666Y-56141904D01*
X181459047Y-56237142D01*
X181411428Y-56284761D01*
X181316190Y-56332380D01*
X181030476Y-56332380D01*
X180935238Y-56284761D01*
X180887619Y-56237142D01*
X182363809Y-55665714D02*
X182363809Y-56332380D01*
X182125714Y-55284761D02*
X181887619Y-55999047D01*
X182506666Y-55999047D01*
X177977585Y-99811276D02*
X177758245Y-99497932D01*
X177601573Y-99811276D02*
X177601573Y-99153255D01*
X177852248Y-99153255D01*
X177914917Y-99184589D01*
X177946251Y-99215923D01*
X177977585Y-99278592D01*
X177977585Y-99372595D01*
X177946251Y-99435264D01*
X177914917Y-99466598D01*
X177852248Y-99497932D01*
X177601573Y-99497932D01*
X178604272Y-99811276D02*
X178228260Y-99811276D01*
X178416266Y-99811276D02*
X178416266Y-99153255D01*
X178353597Y-99247258D01*
X178290929Y-99309926D01*
X178228260Y-99341261D01*
X177028378Y-95891993D02*
X176715555Y-95891993D01*
X176684273Y-96204816D01*
X176715555Y-96173534D01*
X176778119Y-96142252D01*
X176934531Y-96142252D01*
X176997095Y-96173534D01*
X177028378Y-96204816D01*
X177059660Y-96267381D01*
X177059660Y-96423792D01*
X177028378Y-96486357D01*
X176997095Y-96517639D01*
X176934531Y-96548921D01*
X176778119Y-96548921D01*
X176715555Y-96517639D01*
X176684273Y-96486357D01*
X177341201Y-96486357D02*
X177372483Y-96517639D01*
X177341201Y-96548921D01*
X177309918Y-96517639D01*
X177341201Y-96486357D01*
X177341201Y-96548921D01*
X177935564Y-95891993D02*
X177810435Y-95891993D01*
X177747870Y-95923276D01*
X177716588Y-95954558D01*
X177654023Y-96048405D01*
X177622741Y-96173534D01*
X177622741Y-96423792D01*
X177654023Y-96486357D01*
X177685306Y-96517639D01*
X177747870Y-96548921D01*
X177872999Y-96548921D01*
X177935564Y-96517639D01*
X177966846Y-96486357D01*
X177998129Y-96423792D01*
X177998129Y-96267381D01*
X177966846Y-96204816D01*
X177935564Y-96173534D01*
X177872999Y-96142252D01*
X177747870Y-96142252D01*
X177685306Y-96173534D01*
X177654023Y-96204816D01*
X177622741Y-96267381D01*
X178279669Y-96548921D02*
X178279669Y-95891993D01*
X178655057Y-96548921D02*
X178373516Y-96173534D01*
X178655057Y-95891993D02*
X178279669Y-96267381D01*
X180244761Y-86907619D02*
X180149523Y-86860000D01*
X180054285Y-86764761D01*
X179911428Y-86621904D01*
X179816190Y-86574285D01*
X179720952Y-86574285D01*
X179768571Y-86812380D02*
X179673333Y-86764761D01*
X179578095Y-86669523D01*
X179530476Y-86479047D01*
X179530476Y-86145714D01*
X179578095Y-85955238D01*
X179673333Y-85860000D01*
X179768571Y-85812380D01*
X179959047Y-85812380D01*
X180054285Y-85860000D01*
X180149523Y-85955238D01*
X180197142Y-86145714D01*
X180197142Y-86479047D01*
X180149523Y-86669523D01*
X180054285Y-86764761D01*
X179959047Y-86812380D01*
X179768571Y-86812380D01*
X180578095Y-85907619D02*
X180625714Y-85860000D01*
X180720952Y-85812380D01*
X180959047Y-85812380D01*
X181054285Y-85860000D01*
X181101904Y-85907619D01*
X181149523Y-86002857D01*
X181149523Y-86098095D01*
X181101904Y-86240952D01*
X180530476Y-86812380D01*
X181149523Y-86812380D01*
X178268571Y-91892380D02*
X178268571Y-90892380D01*
X178649523Y-90892380D01*
X178744761Y-90940000D01*
X178792380Y-90987619D01*
X178840000Y-91082857D01*
X178840000Y-91225714D01*
X178792380Y-91320952D01*
X178744761Y-91368571D01*
X178649523Y-91416190D01*
X178268571Y-91416190D01*
X179125714Y-90892380D02*
X179697142Y-90892380D01*
X179411428Y-91892380D02*
X179411428Y-90892380D01*
X179935238Y-90892380D02*
X180554285Y-90892380D01*
X180220952Y-91273333D01*
X180363809Y-91273333D01*
X180459047Y-91320952D01*
X180506666Y-91368571D01*
X180554285Y-91463809D01*
X180554285Y-91701904D01*
X180506666Y-91797142D01*
X180459047Y-91844761D01*
X180363809Y-91892380D01*
X180078095Y-91892380D01*
X179982857Y-91844761D01*
X179935238Y-91797142D01*
X180887619Y-90892380D02*
X181506666Y-90892380D01*
X181173333Y-91273333D01*
X181316190Y-91273333D01*
X181411428Y-91320952D01*
X181459047Y-91368571D01*
X181506666Y-91463809D01*
X181506666Y-91701904D01*
X181459047Y-91797142D01*
X181411428Y-91844761D01*
X181316190Y-91892380D01*
X181030476Y-91892380D01*
X180935238Y-91844761D01*
X180887619Y-91797142D01*
X182363809Y-91225714D02*
X182363809Y-91892380D01*
X182125714Y-90844761D02*
X181887619Y-91559047D01*
X182506666Y-91559047D01*
X180490213Y-107375769D02*
X181821249Y-107375769D01*
X181977841Y-107297472D01*
X182056137Y-107219176D01*
X182134433Y-107062584D01*
X182134433Y-106749399D01*
X182056137Y-106592807D01*
X181977841Y-106514510D01*
X181821249Y-106436214D01*
X180490213Y-106436214D01*
X182134433Y-104791994D02*
X182134433Y-105731549D01*
X182134433Y-105261771D02*
X180490213Y-105261771D01*
X180725102Y-105418364D01*
X180881694Y-105574956D01*
X180959990Y-105731549D01*
X173486943Y-110651643D02*
X173486943Y-109712026D01*
X175131273Y-110181835D02*
X173486943Y-110181835D01*
X175131273Y-108380902D02*
X175131273Y-109163916D01*
X173486943Y-109163916D01*
X173486943Y-107989395D02*
X173486943Y-106971476D01*
X174113355Y-107519586D01*
X174113355Y-107284682D01*
X174191656Y-107128079D01*
X174269957Y-107049777D01*
X174426560Y-106971476D01*
X174818067Y-106971476D01*
X174974670Y-107049777D01*
X175052972Y-107128079D01*
X175131273Y-107284682D01*
X175131273Y-107754490D01*
X175052972Y-107911093D01*
X174974670Y-107989395D01*
X173486943Y-106423366D02*
X173486943Y-105405447D01*
X174113355Y-105953557D01*
X174113355Y-105718653D01*
X174191656Y-105562050D01*
X174269957Y-105483749D01*
X174426560Y-105405447D01*
X174818067Y-105405447D01*
X174974670Y-105483749D01*
X175052972Y-105562050D01*
X175131273Y-105718653D01*
X175131273Y-106188462D01*
X175052972Y-106345065D01*
X174974670Y-106423366D01*
X175131273Y-103839419D02*
X175131273Y-104779036D01*
X175131273Y-104309227D02*
X173486943Y-104309227D01*
X173721847Y-104465830D01*
X173878450Y-104622433D01*
X173956752Y-104779036D01*
D16*
X184181904Y-118880000D02*
X184086666Y-118832380D01*
X183943809Y-118832380D01*
X183800952Y-118880000D01*
X183705714Y-118975238D01*
X183658095Y-119070476D01*
X183610476Y-119260952D01*
X183610476Y-119403809D01*
X183658095Y-119594285D01*
X183705714Y-119689523D01*
X183800952Y-119784761D01*
X183943809Y-119832380D01*
X184039047Y-119832380D01*
X184181904Y-119784761D01*
X184229523Y-119737142D01*
X184229523Y-119403809D01*
X184039047Y-119403809D01*
X184658095Y-119832380D02*
X184658095Y-118832380D01*
X185229523Y-119832380D01*
X185229523Y-118832380D01*
X185705714Y-119832380D02*
X185705714Y-118832380D01*
X185943809Y-118832380D01*
X186086666Y-118880000D01*
X186181904Y-118975238D01*
X186229523Y-119070476D01*
X186277142Y-119260952D01*
X186277142Y-119403809D01*
X186229523Y-119594285D01*
X186181904Y-119689523D01*
X186086666Y-119784761D01*
X185943809Y-119832380D01*
X185705714Y-119832380D01*
X187229523Y-119832380D02*
X186658095Y-119832380D01*
X186943809Y-119832380D02*
X186943809Y-118832380D01*
X186848571Y-118975238D01*
X186753333Y-119070476D01*
X186658095Y-119118095D01*
X173132857Y-119451428D02*
X173894761Y-119451428D01*
X173513809Y-119832380D02*
X173513809Y-119070476D01*
X174894761Y-119832380D02*
X174323333Y-119832380D01*
X174609047Y-119832380D02*
X174609047Y-118832380D01*
X174513809Y-118975238D01*
X174418571Y-119070476D01*
X174323333Y-119118095D01*
X181038571Y-118832380D02*
X181229047Y-118832380D01*
X181324285Y-118880000D01*
X181419523Y-118975238D01*
X181467142Y-119165714D01*
X181467142Y-119499047D01*
X181419523Y-119689523D01*
X181324285Y-119784761D01*
X181229047Y-119832380D01*
X181038571Y-119832380D01*
X180943333Y-119784761D01*
X180848095Y-119689523D01*
X180800476Y-119499047D01*
X180800476Y-119165714D01*
X180848095Y-118975238D01*
X180943333Y-118880000D01*
X181038571Y-118832380D01*
X182419523Y-119832380D02*
X181848095Y-119832380D01*
X182133809Y-119832380D02*
X182133809Y-118832380D01*
X182038571Y-118975238D01*
X181943333Y-119070476D01*
X181848095Y-119118095D01*
D15*
X178960329Y-115867676D02*
X178740989Y-115554332D01*
X178584317Y-115867676D02*
X178584317Y-115209655D01*
X178834992Y-115209655D01*
X178897661Y-115240989D01*
X178928995Y-115272323D01*
X178960329Y-115334992D01*
X178960329Y-115428995D01*
X178928995Y-115491664D01*
X178897661Y-115522998D01*
X178834992Y-115554332D01*
X178584317Y-115554332D01*
X179524347Y-115428995D02*
X179524347Y-115867676D01*
X179367676Y-115178320D02*
X179211004Y-115648335D01*
X179618350Y-115648335D01*
X178486071Y-114328921D02*
X178110684Y-114328921D01*
X178298378Y-114328921D02*
X178298378Y-113671993D01*
X178235813Y-113765840D01*
X178173249Y-113828405D01*
X178110684Y-113859687D01*
X178861459Y-113953534D02*
X178798894Y-113922252D01*
X178767612Y-113890969D01*
X178736330Y-113828405D01*
X178736330Y-113797122D01*
X178767612Y-113734558D01*
X178798894Y-113703276D01*
X178861459Y-113671993D01*
X178986588Y-113671993D01*
X179049153Y-113703276D01*
X179080435Y-113734558D01*
X179111717Y-113797122D01*
X179111717Y-113828405D01*
X179080435Y-113890969D01*
X179049153Y-113922252D01*
X178986588Y-113953534D01*
X178861459Y-113953534D01*
X178798894Y-113984816D01*
X178767612Y-114016098D01*
X178736330Y-114078663D01*
X178736330Y-114203792D01*
X178767612Y-114266357D01*
X178798894Y-114297639D01*
X178861459Y-114328921D01*
X178986588Y-114328921D01*
X179049153Y-114297639D01*
X179080435Y-114266357D01*
X179111717Y-114203792D01*
X179111717Y-114078663D01*
X179080435Y-114016098D01*
X179049153Y-113984816D01*
X178986588Y-113953534D01*
X179393258Y-114328921D02*
X179393258Y-113671993D01*
X179768645Y-114328921D02*
X179487105Y-113953534D01*
X179768645Y-113671993D02*
X179393258Y-114047381D01*
X204314076Y-98186926D02*
X204000732Y-98406266D01*
X204314076Y-98562938D02*
X203656055Y-98562938D01*
X203656055Y-98312263D01*
X203687389Y-98249594D01*
X203718723Y-98218260D01*
X203781392Y-98186926D01*
X203875395Y-98186926D01*
X203938064Y-98218260D01*
X203969398Y-98249594D01*
X204000732Y-98312263D01*
X204000732Y-98562938D01*
X203718723Y-97936251D02*
X203687389Y-97904917D01*
X203656055Y-97842248D01*
X203656055Y-97685576D01*
X203687389Y-97622908D01*
X203718723Y-97591573D01*
X203781392Y-97560239D01*
X203844061Y-97560239D01*
X203938064Y-97591573D01*
X204314076Y-97967585D01*
X204314076Y-97560239D01*
X207575441Y-98113258D02*
X207575441Y-98488645D01*
X207575441Y-98300951D02*
X206918513Y-98300951D01*
X207012360Y-98363516D01*
X207074925Y-98426081D01*
X207106207Y-98488645D01*
X206918513Y-97706588D02*
X206918513Y-97644023D01*
X206949796Y-97581459D01*
X206981078Y-97550177D01*
X207043642Y-97518894D01*
X207168772Y-97487612D01*
X207325183Y-97487612D01*
X207450312Y-97518894D01*
X207512877Y-97550177D01*
X207544159Y-97581459D01*
X207575441Y-97644023D01*
X207575441Y-97706588D01*
X207544159Y-97769153D01*
X207512877Y-97800435D01*
X207450312Y-97831717D01*
X207325183Y-97862999D01*
X207168772Y-97862999D01*
X207043642Y-97831717D01*
X206981078Y-97800435D01*
X206949796Y-97769153D01*
X206918513Y-97706588D01*
X207575441Y-97206071D02*
X206918513Y-97206071D01*
X207575441Y-96830684D02*
X207200054Y-97112225D01*
X206918513Y-96830684D02*
X207293901Y-97206071D01*
X199280329Y-112057676D02*
X199060989Y-111744332D01*
X198904317Y-112057676D02*
X198904317Y-111399655D01*
X199154992Y-111399655D01*
X199217661Y-111430989D01*
X199248995Y-111462323D01*
X199280329Y-111524992D01*
X199280329Y-111618995D01*
X199248995Y-111681664D01*
X199217661Y-111712998D01*
X199154992Y-111744332D01*
X198904317Y-111744332D01*
X199499670Y-111399655D02*
X199907016Y-111399655D01*
X199687676Y-111650329D01*
X199781679Y-111650329D01*
X199844347Y-111681664D01*
X199875682Y-111712998D01*
X199907016Y-111775667D01*
X199907016Y-111932338D01*
X199875682Y-111995007D01*
X199844347Y-112026341D01*
X199781679Y-112057676D01*
X199593673Y-112057676D01*
X199531004Y-112026341D01*
X199499670Y-111995007D01*
X199066741Y-110787181D02*
X198691354Y-110787181D01*
X198879048Y-110787181D02*
X198879048Y-110130253D01*
X198816483Y-110224100D01*
X198753919Y-110286665D01*
X198691354Y-110317947D01*
X199473411Y-110130253D02*
X199535976Y-110130253D01*
X199598540Y-110161536D01*
X199629823Y-110192818D01*
X199661105Y-110255382D01*
X199692387Y-110380512D01*
X199692387Y-110536923D01*
X199661105Y-110662052D01*
X199629823Y-110724617D01*
X199598540Y-110755899D01*
X199535976Y-110787181D01*
X199473411Y-110787181D01*
X199410847Y-110755899D01*
X199379564Y-110724617D01*
X199348282Y-110662052D01*
X199317000Y-110536923D01*
X199317000Y-110380512D01*
X199348282Y-110255382D01*
X199379564Y-110192818D01*
X199410847Y-110161536D01*
X199473411Y-110130253D01*
X199973928Y-110787181D02*
X199973928Y-110130253D01*
X200349315Y-110787181D02*
X200067775Y-110411794D01*
X200349315Y-110130253D02*
X199973928Y-110505641D01*
X200564761Y-61507619D02*
X200469523Y-61460000D01*
X200374285Y-61364761D01*
X200231428Y-61221904D01*
X200136190Y-61174285D01*
X200040952Y-61174285D01*
X200088571Y-61412380D02*
X199993333Y-61364761D01*
X199898095Y-61269523D01*
X199850476Y-61079047D01*
X199850476Y-60745714D01*
X199898095Y-60555238D01*
X199993333Y-60460000D01*
X200088571Y-60412380D01*
X200279047Y-60412380D01*
X200374285Y-60460000D01*
X200469523Y-60555238D01*
X200517142Y-60745714D01*
X200517142Y-61079047D01*
X200469523Y-61269523D01*
X200374285Y-61364761D01*
X200279047Y-61412380D01*
X200088571Y-61412380D01*
X201469523Y-61412380D02*
X200898095Y-61412380D01*
X201183809Y-61412380D02*
X201183809Y-60412380D01*
X201088571Y-60555238D01*
X200993333Y-60650476D01*
X200898095Y-60698095D01*
X198588571Y-56332380D02*
X198588571Y-55332380D01*
X198969523Y-55332380D01*
X199064761Y-55380000D01*
X199112380Y-55427619D01*
X199160000Y-55522857D01*
X199160000Y-55665714D01*
X199112380Y-55760952D01*
X199064761Y-55808571D01*
X198969523Y-55856190D01*
X198588571Y-55856190D01*
X199445714Y-55332380D02*
X200017142Y-55332380D01*
X199731428Y-56332380D02*
X199731428Y-55332380D01*
X200255238Y-55332380D02*
X200874285Y-55332380D01*
X200540952Y-55713333D01*
X200683809Y-55713333D01*
X200779047Y-55760952D01*
X200826666Y-55808571D01*
X200874285Y-55903809D01*
X200874285Y-56141904D01*
X200826666Y-56237142D01*
X200779047Y-56284761D01*
X200683809Y-56332380D01*
X200398095Y-56332380D01*
X200302857Y-56284761D01*
X200255238Y-56237142D01*
X201207619Y-55332380D02*
X201826666Y-55332380D01*
X201493333Y-55713333D01*
X201636190Y-55713333D01*
X201731428Y-55760952D01*
X201779047Y-55808571D01*
X201826666Y-55903809D01*
X201826666Y-56141904D01*
X201779047Y-56237142D01*
X201731428Y-56284761D01*
X201636190Y-56332380D01*
X201350476Y-56332380D01*
X201255238Y-56284761D01*
X201207619Y-56237142D01*
X202683809Y-55665714D02*
X202683809Y-56332380D01*
X202445714Y-55284761D02*
X202207619Y-55999047D01*
X202826666Y-55999047D01*
X198297585Y-99811276D02*
X198078245Y-99497932D01*
X197921573Y-99811276D02*
X197921573Y-99153255D01*
X198172248Y-99153255D01*
X198234917Y-99184589D01*
X198266251Y-99215923D01*
X198297585Y-99278592D01*
X198297585Y-99372595D01*
X198266251Y-99435264D01*
X198234917Y-99466598D01*
X198172248Y-99497932D01*
X197921573Y-99497932D01*
X198924272Y-99811276D02*
X198548260Y-99811276D01*
X198736266Y-99811276D02*
X198736266Y-99153255D01*
X198673597Y-99247258D01*
X198610929Y-99309926D01*
X198548260Y-99341261D01*
X197348378Y-95891993D02*
X197035555Y-95891993D01*
X197004273Y-96204816D01*
X197035555Y-96173534D01*
X197098119Y-96142252D01*
X197254531Y-96142252D01*
X197317095Y-96173534D01*
X197348378Y-96204816D01*
X197379660Y-96267381D01*
X197379660Y-96423792D01*
X197348378Y-96486357D01*
X197317095Y-96517639D01*
X197254531Y-96548921D01*
X197098119Y-96548921D01*
X197035555Y-96517639D01*
X197004273Y-96486357D01*
X197661201Y-96486357D02*
X197692483Y-96517639D01*
X197661201Y-96548921D01*
X197629918Y-96517639D01*
X197661201Y-96486357D01*
X197661201Y-96548921D01*
X198255564Y-95891993D02*
X198130435Y-95891993D01*
X198067870Y-95923276D01*
X198036588Y-95954558D01*
X197974023Y-96048405D01*
X197942741Y-96173534D01*
X197942741Y-96423792D01*
X197974023Y-96486357D01*
X198005306Y-96517639D01*
X198067870Y-96548921D01*
X198192999Y-96548921D01*
X198255564Y-96517639D01*
X198286846Y-96486357D01*
X198318129Y-96423792D01*
X198318129Y-96267381D01*
X198286846Y-96204816D01*
X198255564Y-96173534D01*
X198192999Y-96142252D01*
X198067870Y-96142252D01*
X198005306Y-96173534D01*
X197974023Y-96204816D01*
X197942741Y-96267381D01*
X198599669Y-96548921D02*
X198599669Y-95891993D01*
X198975057Y-96548921D02*
X198693516Y-96173534D01*
X198975057Y-95891993D02*
X198599669Y-96267381D01*
X200564761Y-86907619D02*
X200469523Y-86860000D01*
X200374285Y-86764761D01*
X200231428Y-86621904D01*
X200136190Y-86574285D01*
X200040952Y-86574285D01*
X200088571Y-86812380D02*
X199993333Y-86764761D01*
X199898095Y-86669523D01*
X199850476Y-86479047D01*
X199850476Y-86145714D01*
X199898095Y-85955238D01*
X199993333Y-85860000D01*
X200088571Y-85812380D01*
X200279047Y-85812380D01*
X200374285Y-85860000D01*
X200469523Y-85955238D01*
X200517142Y-86145714D01*
X200517142Y-86479047D01*
X200469523Y-86669523D01*
X200374285Y-86764761D01*
X200279047Y-86812380D01*
X200088571Y-86812380D01*
X200898095Y-85907619D02*
X200945714Y-85860000D01*
X201040952Y-85812380D01*
X201279047Y-85812380D01*
X201374285Y-85860000D01*
X201421904Y-85907619D01*
X201469523Y-86002857D01*
X201469523Y-86098095D01*
X201421904Y-86240952D01*
X200850476Y-86812380D01*
X201469523Y-86812380D01*
X198588571Y-91892380D02*
X198588571Y-90892380D01*
X198969523Y-90892380D01*
X199064761Y-90940000D01*
X199112380Y-90987619D01*
X199160000Y-91082857D01*
X199160000Y-91225714D01*
X199112380Y-91320952D01*
X199064761Y-91368571D01*
X198969523Y-91416190D01*
X198588571Y-91416190D01*
X199445714Y-90892380D02*
X200017142Y-90892380D01*
X199731428Y-91892380D02*
X199731428Y-90892380D01*
X200255238Y-90892380D02*
X200874285Y-90892380D01*
X200540952Y-91273333D01*
X200683809Y-91273333D01*
X200779047Y-91320952D01*
X200826666Y-91368571D01*
X200874285Y-91463809D01*
X200874285Y-91701904D01*
X200826666Y-91797142D01*
X200779047Y-91844761D01*
X200683809Y-91892380D01*
X200398095Y-91892380D01*
X200302857Y-91844761D01*
X200255238Y-91797142D01*
X201207619Y-90892380D02*
X201826666Y-90892380D01*
X201493333Y-91273333D01*
X201636190Y-91273333D01*
X201731428Y-91320952D01*
X201779047Y-91368571D01*
X201826666Y-91463809D01*
X201826666Y-91701904D01*
X201779047Y-91797142D01*
X201731428Y-91844761D01*
X201636190Y-91892380D01*
X201350476Y-91892380D01*
X201255238Y-91844761D01*
X201207619Y-91797142D01*
X202683809Y-91225714D02*
X202683809Y-91892380D01*
X202445714Y-90844761D02*
X202207619Y-91559047D01*
X202826666Y-91559047D01*
X200810213Y-107375769D02*
X202141249Y-107375769D01*
X202297841Y-107297472D01*
X202376137Y-107219176D01*
X202454433Y-107062584D01*
X202454433Y-106749399D01*
X202376137Y-106592807D01*
X202297841Y-106514510D01*
X202141249Y-106436214D01*
X200810213Y-106436214D01*
X202454433Y-104791994D02*
X202454433Y-105731549D01*
X202454433Y-105261771D02*
X200810213Y-105261771D01*
X201045102Y-105418364D01*
X201201694Y-105574956D01*
X201279990Y-105731549D01*
X193806943Y-110651643D02*
X193806943Y-109712026D01*
X195451273Y-110181835D02*
X193806943Y-110181835D01*
X195451273Y-108380902D02*
X195451273Y-109163916D01*
X193806943Y-109163916D01*
X193806943Y-107989395D02*
X193806943Y-106971476D01*
X194433355Y-107519586D01*
X194433355Y-107284682D01*
X194511656Y-107128079D01*
X194589957Y-107049777D01*
X194746560Y-106971476D01*
X195138067Y-106971476D01*
X195294670Y-107049777D01*
X195372972Y-107128079D01*
X195451273Y-107284682D01*
X195451273Y-107754490D01*
X195372972Y-107911093D01*
X195294670Y-107989395D01*
X193806943Y-106423366D02*
X193806943Y-105405447D01*
X194433355Y-105953557D01*
X194433355Y-105718653D01*
X194511656Y-105562050D01*
X194589957Y-105483749D01*
X194746560Y-105405447D01*
X195138067Y-105405447D01*
X195294670Y-105483749D01*
X195372972Y-105562050D01*
X195451273Y-105718653D01*
X195451273Y-106188462D01*
X195372972Y-106345065D01*
X195294670Y-106423366D01*
X195451273Y-103839419D02*
X195451273Y-104779036D01*
X195451273Y-104309227D02*
X193806943Y-104309227D01*
X194041847Y-104465830D01*
X194198450Y-104622433D01*
X194276752Y-104779036D01*
D16*
X204501904Y-118880000D02*
X204406666Y-118832380D01*
X204263809Y-118832380D01*
X204120952Y-118880000D01*
X204025714Y-118975238D01*
X203978095Y-119070476D01*
X203930476Y-119260952D01*
X203930476Y-119403809D01*
X203978095Y-119594285D01*
X204025714Y-119689523D01*
X204120952Y-119784761D01*
X204263809Y-119832380D01*
X204359047Y-119832380D01*
X204501904Y-119784761D01*
X204549523Y-119737142D01*
X204549523Y-119403809D01*
X204359047Y-119403809D01*
X204978095Y-119832380D02*
X204978095Y-118832380D01*
X205549523Y-119832380D01*
X205549523Y-118832380D01*
X206025714Y-119832380D02*
X206025714Y-118832380D01*
X206263809Y-118832380D01*
X206406666Y-118880000D01*
X206501904Y-118975238D01*
X206549523Y-119070476D01*
X206597142Y-119260952D01*
X206597142Y-119403809D01*
X206549523Y-119594285D01*
X206501904Y-119689523D01*
X206406666Y-119784761D01*
X206263809Y-119832380D01*
X206025714Y-119832380D01*
X207549523Y-119832380D02*
X206978095Y-119832380D01*
X207263809Y-119832380D02*
X207263809Y-118832380D01*
X207168571Y-118975238D01*
X207073333Y-119070476D01*
X206978095Y-119118095D01*
X193452857Y-119451428D02*
X194214761Y-119451428D01*
X193833809Y-119832380D02*
X193833809Y-119070476D01*
X195214761Y-119832380D02*
X194643333Y-119832380D01*
X194929047Y-119832380D02*
X194929047Y-118832380D01*
X194833809Y-118975238D01*
X194738571Y-119070476D01*
X194643333Y-119118095D01*
X201358571Y-118832380D02*
X201549047Y-118832380D01*
X201644285Y-118880000D01*
X201739523Y-118975238D01*
X201787142Y-119165714D01*
X201787142Y-119499047D01*
X201739523Y-119689523D01*
X201644285Y-119784761D01*
X201549047Y-119832380D01*
X201358571Y-119832380D01*
X201263333Y-119784761D01*
X201168095Y-119689523D01*
X201120476Y-119499047D01*
X201120476Y-119165714D01*
X201168095Y-118975238D01*
X201263333Y-118880000D01*
X201358571Y-118832380D01*
X202739523Y-119832380D02*
X202168095Y-119832380D01*
X202453809Y-119832380D02*
X202453809Y-118832380D01*
X202358571Y-118975238D01*
X202263333Y-119070476D01*
X202168095Y-119118095D01*
D15*
X199280329Y-115867676D02*
X199060989Y-115554332D01*
X198904317Y-115867676D02*
X198904317Y-115209655D01*
X199154992Y-115209655D01*
X199217661Y-115240989D01*
X199248995Y-115272323D01*
X199280329Y-115334992D01*
X199280329Y-115428995D01*
X199248995Y-115491664D01*
X199217661Y-115522998D01*
X199154992Y-115554332D01*
X198904317Y-115554332D01*
X199844347Y-115428995D02*
X199844347Y-115867676D01*
X199687676Y-115178320D02*
X199531004Y-115648335D01*
X199938350Y-115648335D01*
X198806071Y-114328921D02*
X198430684Y-114328921D01*
X198618378Y-114328921D02*
X198618378Y-113671993D01*
X198555813Y-113765840D01*
X198493249Y-113828405D01*
X198430684Y-113859687D01*
X199181459Y-113953534D02*
X199118894Y-113922252D01*
X199087612Y-113890969D01*
X199056330Y-113828405D01*
X199056330Y-113797122D01*
X199087612Y-113734558D01*
X199118894Y-113703276D01*
X199181459Y-113671993D01*
X199306588Y-113671993D01*
X199369153Y-113703276D01*
X199400435Y-113734558D01*
X199431717Y-113797122D01*
X199431717Y-113828405D01*
X199400435Y-113890969D01*
X199369153Y-113922252D01*
X199306588Y-113953534D01*
X199181459Y-113953534D01*
X199118894Y-113984816D01*
X199087612Y-114016098D01*
X199056330Y-114078663D01*
X199056330Y-114203792D01*
X199087612Y-114266357D01*
X199118894Y-114297639D01*
X199181459Y-114328921D01*
X199306588Y-114328921D01*
X199369153Y-114297639D01*
X199400435Y-114266357D01*
X199431717Y-114203792D01*
X199431717Y-114078663D01*
X199400435Y-114016098D01*
X199369153Y-113984816D01*
X199306588Y-113953534D01*
X199713258Y-114328921D02*
X199713258Y-113671993D01*
X200088645Y-114328921D02*
X199807105Y-113953534D01*
X200088645Y-113671993D02*
X199713258Y-114047381D01*
M02*
