G04 #@! TF.GenerationSoftware,KiCad,Pcbnew,5.1.6-c6e7f7d~86~ubuntu16.04.1*
G04 #@! TF.CreationDate,2020-05-12T14:31:13-06:00*
G04 #@! TF.ProjectId,Turnout-Cntrlr,5475726e-6f75-4742-9d43-6e74726c722e,rev?*
G04 #@! TF.SameCoordinates,Original*
G04 #@! TF.FileFunction,Legend,Bot*
G04 #@! TF.FilePolarity,Positive*
%FSLAX46Y46*%
G04 Gerber Fmt 4.6, Leading zero omitted, Abs format (unit mm)*
G04 Created by KiCad (PCBNEW 5.1.6-c6e7f7d~86~ubuntu16.04.1) date 2020-05-12 14:31:13*
%MOMM*%
%LPD*%
G01*
G04 APERTURE LIST*
%ADD10C,0.300000*%
G04 APERTURE END LIST*
D10*
X36821428Y-86575000D02*
X36821428Y-86289285D01*
X36750000Y-86146428D01*
X36678571Y-86075000D01*
X36464285Y-85932142D01*
X36178571Y-85860714D01*
X35607142Y-85860714D01*
X35464285Y-85932142D01*
X35392857Y-86003571D01*
X35321428Y-86146428D01*
X35321428Y-86432142D01*
X35392857Y-86575000D01*
X35464285Y-86646428D01*
X35607142Y-86717857D01*
X35964285Y-86717857D01*
X36107142Y-86646428D01*
X36178571Y-86575000D01*
X36250000Y-86432142D01*
X36250000Y-86146428D01*
X36178571Y-86003571D01*
X36107142Y-85932142D01*
X35964285Y-85860714D01*
X36678571Y-87289285D02*
X36750000Y-87360714D01*
X36821428Y-87503571D01*
X36821428Y-87860714D01*
X36750000Y-88003571D01*
X36678571Y-88075000D01*
X36535714Y-88146428D01*
X36392857Y-88146428D01*
X36178571Y-88075000D01*
X35321428Y-87217857D01*
X35321428Y-88146428D01*
X35464285Y-88789285D02*
X35392857Y-88860714D01*
X35321428Y-88789285D01*
X35392857Y-88717857D01*
X35464285Y-88789285D01*
X35321428Y-88789285D01*
X36678571Y-89432142D02*
X36750000Y-89503571D01*
X36821428Y-89646428D01*
X36821428Y-90003571D01*
X36750000Y-90146428D01*
X36678571Y-90217857D01*
X36535714Y-90289285D01*
X36392857Y-90289285D01*
X36178571Y-90217857D01*
X35321428Y-89360714D01*
X35321428Y-90289285D01*
X36821428Y-90789285D02*
X36821428Y-91717857D01*
X36250000Y-91217857D01*
X36250000Y-91432142D01*
X36178571Y-91575000D01*
X36107142Y-91646428D01*
X35964285Y-91717857D01*
X35607142Y-91717857D01*
X35464285Y-91646428D01*
X35392857Y-91575000D01*
X35321428Y-91432142D01*
X35321428Y-91003571D01*
X35392857Y-90860714D01*
X35464285Y-90789285D01*
X36821428Y-92646428D02*
X36821428Y-92789285D01*
X36750000Y-92932142D01*
X36678571Y-93003571D01*
X36535714Y-93075000D01*
X36250000Y-93146428D01*
X35892857Y-93146428D01*
X35607142Y-93075000D01*
X35464285Y-93003571D01*
X35392857Y-92932142D01*
X35321428Y-92789285D01*
X35321428Y-92646428D01*
X35392857Y-92503571D01*
X35464285Y-92432142D01*
X35607142Y-92360714D01*
X35892857Y-92289285D01*
X36250000Y-92289285D01*
X36535714Y-92360714D01*
X36678571Y-92432142D01*
X36750000Y-92503571D01*
X36821428Y-92646428D01*
X35321428Y-94932142D02*
X36321428Y-94932142D01*
X36178571Y-94932142D02*
X36250000Y-95003571D01*
X36321428Y-95146428D01*
X36321428Y-95360714D01*
X36250000Y-95503571D01*
X36107142Y-95575000D01*
X35321428Y-95575000D01*
X36107142Y-95575000D02*
X36250000Y-95646428D01*
X36321428Y-95789285D01*
X36321428Y-96003571D01*
X36250000Y-96146428D01*
X36107142Y-96217857D01*
X35321428Y-96217857D01*
X35321428Y-96932142D02*
X36321428Y-96932142D01*
X36178571Y-96932142D02*
X36250000Y-97003571D01*
X36321428Y-97146428D01*
X36321428Y-97360714D01*
X36250000Y-97503571D01*
X36107142Y-97575000D01*
X35321428Y-97575000D01*
X36107142Y-97575000D02*
X36250000Y-97646428D01*
X36321428Y-97789285D01*
X36321428Y-98003571D01*
X36250000Y-98146428D01*
X36107142Y-98217857D01*
X35321428Y-98217857D01*
X38100000Y-60960000D02*
X38100000Y-123190000D01*
X44450000Y-60960000D02*
X37513579Y-60960000D01*
X44450000Y-123190000D02*
X37513579Y-123190000D01*
X38100000Y-123190000D02*
X37513579Y-122063496D01*
X38100000Y-123190000D02*
X38686421Y-122063496D01*
X38100000Y-60960000D02*
X37513579Y-62086504D01*
X38100000Y-60960000D02*
X38686421Y-62086504D01*
X87908571Y-138668571D02*
X88194285Y-138668571D01*
X88337142Y-138597142D01*
X88408571Y-138525714D01*
X88551428Y-138311428D01*
X88622857Y-138025714D01*
X88622857Y-137454285D01*
X88551428Y-137311428D01*
X88480000Y-137240000D01*
X88337142Y-137168571D01*
X88051428Y-137168571D01*
X87908571Y-137240000D01*
X87837142Y-137311428D01*
X87765714Y-137454285D01*
X87765714Y-137811428D01*
X87837142Y-137954285D01*
X87908571Y-138025714D01*
X88051428Y-138097142D01*
X88337142Y-138097142D01*
X88480000Y-138025714D01*
X88551428Y-137954285D01*
X88622857Y-137811428D01*
X89337142Y-138668571D02*
X89622857Y-138668571D01*
X89765714Y-138597142D01*
X89837142Y-138525714D01*
X89980000Y-138311428D01*
X90051428Y-138025714D01*
X90051428Y-137454285D01*
X89980000Y-137311428D01*
X89908571Y-137240000D01*
X89765714Y-137168571D01*
X89480000Y-137168571D01*
X89337142Y-137240000D01*
X89265714Y-137311428D01*
X89194285Y-137454285D01*
X89194285Y-137811428D01*
X89265714Y-137954285D01*
X89337142Y-138025714D01*
X89480000Y-138097142D01*
X89765714Y-138097142D01*
X89908571Y-138025714D01*
X89980000Y-137954285D01*
X90051428Y-137811428D01*
X90694285Y-138525714D02*
X90765714Y-138597142D01*
X90694285Y-138668571D01*
X90622857Y-138597142D01*
X90694285Y-138525714D01*
X90694285Y-138668571D01*
X91694285Y-137168571D02*
X91837142Y-137168571D01*
X91980000Y-137240000D01*
X92051428Y-137311428D01*
X92122857Y-137454285D01*
X92194285Y-137740000D01*
X92194285Y-138097142D01*
X92122857Y-138382857D01*
X92051428Y-138525714D01*
X91980000Y-138597142D01*
X91837142Y-138668571D01*
X91694285Y-138668571D01*
X91551428Y-138597142D01*
X91480000Y-138525714D01*
X91408571Y-138382857D01*
X91337142Y-138097142D01*
X91337142Y-137740000D01*
X91408571Y-137454285D01*
X91480000Y-137311428D01*
X91551428Y-137240000D01*
X91694285Y-137168571D01*
X93480000Y-137168571D02*
X93194285Y-137168571D01*
X93051428Y-137240000D01*
X92980000Y-137311428D01*
X92837142Y-137525714D01*
X92765714Y-137811428D01*
X92765714Y-138382857D01*
X92837142Y-138525714D01*
X92908571Y-138597142D01*
X93051428Y-138668571D01*
X93337142Y-138668571D01*
X93480000Y-138597142D01*
X93551428Y-138525714D01*
X93622857Y-138382857D01*
X93622857Y-138025714D01*
X93551428Y-137882857D01*
X93480000Y-137811428D01*
X93337142Y-137740000D01*
X93051428Y-137740000D01*
X92908571Y-137811428D01*
X92837142Y-137882857D01*
X92765714Y-138025714D01*
X94551428Y-137168571D02*
X94694285Y-137168571D01*
X94837142Y-137240000D01*
X94908571Y-137311428D01*
X94980000Y-137454285D01*
X95051428Y-137740000D01*
X95051428Y-138097142D01*
X94980000Y-138382857D01*
X94908571Y-138525714D01*
X94837142Y-138597142D01*
X94694285Y-138668571D01*
X94551428Y-138668571D01*
X94408571Y-138597142D01*
X94337142Y-138525714D01*
X94265714Y-138382857D01*
X94194285Y-138097142D01*
X94194285Y-137740000D01*
X94265714Y-137454285D01*
X94337142Y-137311428D01*
X94408571Y-137240000D01*
X94551428Y-137168571D01*
X96837142Y-138668571D02*
X96837142Y-137668571D01*
X96837142Y-137811428D02*
X96908571Y-137740000D01*
X97051428Y-137668571D01*
X97265714Y-137668571D01*
X97408571Y-137740000D01*
X97480000Y-137882857D01*
X97480000Y-138668571D01*
X97480000Y-137882857D02*
X97551428Y-137740000D01*
X97694285Y-137668571D01*
X97908571Y-137668571D01*
X98051428Y-137740000D01*
X98122857Y-137882857D01*
X98122857Y-138668571D01*
X98837142Y-138668571D02*
X98837142Y-137668571D01*
X98837142Y-137811428D02*
X98908571Y-137740000D01*
X99051428Y-137668571D01*
X99265714Y-137668571D01*
X99408571Y-137740000D01*
X99480000Y-137882857D01*
X99480000Y-138668571D01*
X99480000Y-137882857D02*
X99551428Y-137740000D01*
X99694285Y-137668571D01*
X99908571Y-137668571D01*
X100051428Y-137740000D01*
X100122857Y-137882857D01*
X100122857Y-138668571D01*
X44450000Y-135890000D02*
X143510000Y-135890000D01*
X44450000Y-123190000D02*
X44450000Y-136476421D01*
X143510000Y-123190000D02*
X143510000Y-136476421D01*
X143510000Y-135890000D02*
X142383496Y-136476421D01*
X143510000Y-135890000D02*
X142383496Y-135303579D01*
X44450000Y-135890000D02*
X45576504Y-136476421D01*
X44450000Y-135890000D02*
X45576504Y-135303579D01*
M02*
