M48
; DRILL file {KiCad 5.1.6-c6e7f7d~86~ubuntu16.04.1} date Tue May 12 14:31:10 2020
; FORMAT={-:-/ absolute / inch / decimal}
; #@! TF.CreationDate,2020-05-12T14:31:10-06:00
; #@! TF.GenerationSoftware,Kicad,Pcbnew,5.1.6-c6e7f7d~86~ubuntu16.04.1
; #@! TF.FileFunction,Plated,1,2,PTH
FMAT,2
INCH
T1C0.0157
T2C0.0276
T3C0.0287
T4C0.0300
T5C0.0323
T6C0.0417
T7C0.0440
T8C0.0512
%
G90
G05
T1
X3.4Y-3.45
X3.4Y-3.6
X3.65Y-4.4
X3.9Y-3.4
X4.2Y-3.85
X4.2Y-4.05
X4.25Y-3.6
X4.3Y-3.5
X4.3Y-4.05
X4.4Y-3.5
X4.75Y-3.65
X4.9Y-3.45
X5.0Y-3.95
X5.1Y-3.95
T2
X4.1713Y-4.3
X4.25Y-4.3
X3.2Y-3.7
X3.2787Y-3.7
T3
X2.2417Y-4.2
X2.478Y-4.2
X2.622Y-4.35
X2.8583Y-4.35
T4
X1.9Y-2.825
X1.9Y-2.925
X1.9Y-3.025
X1.9Y-3.125
X1.9Y-3.225
X1.9Y-3.325
X1.9Y-3.425
X1.9Y-3.525
X1.9Y-3.625
X1.9Y-3.725
X1.9Y-3.825
X1.9Y-3.925
X1.9Y-4.025
X1.9Y-4.125
X1.9Y-4.225
X3.0Y-2.825
X3.0Y-2.925
X3.0Y-3.025
X3.0Y-3.125
X3.0Y-3.225
X3.0Y-3.325
X3.0Y-3.425
X3.0Y-3.525
X3.0Y-3.625
X3.0Y-3.725
X3.0Y-3.825
X3.0Y-3.925
X3.0Y-4.025
X3.0Y-4.125
X3.0Y-4.225
T5
X3.75Y-2.9951
X3.75Y-3.3049
X3.85Y-2.9951
X3.85Y-3.3049
X3.95Y-2.9951
X3.95Y-3.3049
X4.05Y-2.9951
X4.05Y-3.3049
X4.15Y-2.9951
X4.15Y-3.3049
X4.25Y-2.9951
X4.25Y-3.3049
X4.35Y-2.9951
X4.35Y-3.3049
X4.45Y-2.9951
X4.45Y-3.3049
X4.55Y-2.9951
X4.55Y-3.3049
X4.65Y-2.9951
X4.65Y-3.3049
X4.75Y-2.9951
X4.75Y-3.3049
X4.85Y-2.9951
X4.85Y-3.3049
X4.95Y-2.9951
X4.95Y-3.3049
X5.05Y-2.9951
X5.05Y-3.3049
T6
X4.15Y-2.6
X4.25Y-2.6
X4.35Y-2.6
X4.45Y-2.6
X4.55Y-2.6
X4.65Y-2.6
X4.75Y-2.6
X4.85Y-2.6
X3.95Y-4.6
X4.05Y-4.6
X4.15Y-4.6
X4.25Y-4.6
X4.35Y-4.6
X4.45Y-4.6
X4.55Y-4.6
X4.65Y-4.6
T7
X3.4Y-3.8
X3.4Y-4.1
X3.5Y-3.8
X3.5Y-4.1
X3.6Y-3.8
X3.6Y-4.1
X3.7Y-3.8
X3.7Y-4.1
X3.8Y-3.8
X3.8Y-4.1
X3.9Y-3.8
X3.9Y-4.1
X4.0Y-3.8
X4.0Y-4.1
X4.1Y-3.8
X4.1Y-4.1
X4.75Y-3.8
X4.75Y-4.1
X4.85Y-3.8
X4.85Y-4.1
X4.95Y-3.8
X4.95Y-4.1
X5.05Y-3.8
X5.05Y-4.1
X5.15Y-3.8
X5.15Y-4.1
X5.25Y-3.8
X5.25Y-4.1
X5.35Y-3.8
X5.35Y-4.1
X5.45Y-3.8
X5.45Y-4.1
T8
X3.3031Y-4.6
X3.5Y-4.6
X3.6969Y-4.6
X5.1031Y-2.6
X5.3Y-2.6
X5.4969Y-2.6
T0
M30
