G04 #@! TF.GenerationSoftware,KiCad,Pcbnew,5.1.6-c6e7f7d~86~ubuntu16.04.1*
G04 #@! TF.CreationDate,2020-05-12T14:31:13-06:00*
G04 #@! TF.ProjectId,Turnout-Cntrlr,5475726e-6f75-4742-9d43-6e74726c722e,rev?*
G04 #@! TF.SameCoordinates,Original*
G04 #@! TF.FileFunction,Copper,L1,Top*
G04 #@! TF.FilePolarity,Positive*
%FSLAX46Y46*%
G04 Gerber Fmt 4.6, Leading zero omitted, Abs format (unit mm)*
G04 Created by KiCad (PCBNEW 5.1.6-c6e7f7d~86~ubuntu16.04.1) date 2020-05-12 14:31:13*
%MOMM*%
%LPD*%
G01*
G04 APERTURE LIST*
G04 #@! TA.AperFunction,ComponentPad*
%ADD10C,1.238000*%
G04 #@! TD*
G04 #@! TA.AperFunction,ComponentPad*
%ADD11C,1.100000*%
G04 #@! TD*
G04 #@! TA.AperFunction,ComponentPad*
%ADD12R,1.100000X1.100000*%
G04 #@! TD*
G04 #@! TA.AperFunction,ComponentPad*
%ADD13R,1.590000X1.590000*%
G04 #@! TD*
G04 #@! TA.AperFunction,ComponentPad*
%ADD14C,1.590000*%
G04 #@! TD*
G04 #@! TA.AperFunction,ComponentPad*
%ADD15C,1.676400*%
G04 #@! TD*
G04 #@! TA.AperFunction,ComponentPad*
%ADD16R,1.676400X1.676400*%
G04 #@! TD*
G04 #@! TA.AperFunction,ComponentPad*
%ADD17C,1.950000*%
G04 #@! TD*
G04 #@! TA.AperFunction,ComponentPad*
%ADD18R,1.230000X1.230000*%
G04 #@! TD*
G04 #@! TA.AperFunction,ComponentPad*
%ADD19C,1.230000*%
G04 #@! TD*
G04 #@! TA.AperFunction,ComponentPad*
%ADD20C,1.524000*%
G04 #@! TD*
G04 #@! TA.AperFunction,ViaPad*
%ADD21C,0.800000*%
G04 #@! TD*
G04 #@! TA.AperFunction,Conductor*
%ADD22C,0.250000*%
G04 #@! TD*
G04 #@! TA.AperFunction,Conductor*
%ADD23C,0.254000*%
G04 #@! TD*
G04 APERTURE END LIST*
D10*
X62940000Y-106680000D03*
X56940000Y-106680000D03*
D11*
X83280000Y-93980000D03*
D12*
X81280000Y-93980000D03*
D10*
X66600000Y-110490000D03*
X72600000Y-110490000D03*
D11*
X105950000Y-109220000D03*
D12*
X107950000Y-109220000D03*
D13*
X100330000Y-116840000D03*
D14*
X102870000Y-116840000D03*
X105410000Y-116840000D03*
X107950000Y-116840000D03*
X110490000Y-116840000D03*
X113030000Y-116840000D03*
X115570000Y-116840000D03*
X118110000Y-116840000D03*
D15*
X138430000Y-104140000D03*
X135890000Y-104140000D03*
X133350000Y-104140000D03*
X130810000Y-104140000D03*
X128270000Y-104140000D03*
X125730000Y-104140000D03*
X123190000Y-104140000D03*
X120650000Y-104140000D03*
X120650000Y-96520000D03*
X123190000Y-96520000D03*
X125730000Y-96520000D03*
X128270000Y-96520000D03*
X130810000Y-96520000D03*
X133350000Y-96520000D03*
X135890000Y-96520000D03*
D16*
X138430000Y-96520000D03*
D17*
X134620000Y-66040000D03*
X139620000Y-66040000D03*
X129620000Y-66040000D03*
X88900000Y-116840000D03*
X83900000Y-116840000D03*
X93900000Y-116840000D03*
D14*
X105410000Y-66040000D03*
X107950000Y-66040000D03*
X110490000Y-66040000D03*
X113030000Y-66040000D03*
X115570000Y-66040000D03*
X118110000Y-66040000D03*
X120650000Y-66040000D03*
D13*
X123190000Y-66040000D03*
D16*
X104140000Y-96520000D03*
D15*
X101600000Y-96520000D03*
X99060000Y-96520000D03*
X96520000Y-96520000D03*
X93980000Y-96520000D03*
X91440000Y-96520000D03*
X88900000Y-96520000D03*
X86360000Y-96520000D03*
X86360000Y-104140000D03*
X88900000Y-104140000D03*
X91440000Y-104140000D03*
X93980000Y-104140000D03*
X96520000Y-104140000D03*
X99060000Y-104140000D03*
X101600000Y-104140000D03*
X104140000Y-104140000D03*
D18*
X128270000Y-76075000D03*
D19*
X125730000Y-76075000D03*
X123190000Y-76075000D03*
X120650000Y-76075000D03*
X118110000Y-76075000D03*
X115570000Y-76075000D03*
X113030000Y-76075000D03*
X110490000Y-76075000D03*
X107950000Y-76075000D03*
X105410000Y-76075000D03*
X102870000Y-76075000D03*
X100330000Y-76075000D03*
X97790000Y-76075000D03*
X95250000Y-76075000D03*
X95250000Y-83945000D03*
X97790000Y-83945000D03*
X100330000Y-83945000D03*
X102870000Y-83945000D03*
X105410000Y-83945000D03*
X107950000Y-83945000D03*
X110490000Y-83945000D03*
X113030000Y-83945000D03*
X115570000Y-83945000D03*
X118110000Y-83945000D03*
X120650000Y-83945000D03*
X123190000Y-83945000D03*
X125730000Y-83945000D03*
X128270000Y-83945000D03*
D20*
X48260000Y-71755000D03*
X48260000Y-74295000D03*
X48260000Y-76835000D03*
X48260000Y-79375000D03*
X48260000Y-81915000D03*
X48260000Y-84455000D03*
X48260000Y-86995000D03*
X48260000Y-89535000D03*
X48260000Y-92075000D03*
X48260000Y-94615000D03*
X48260000Y-97155000D03*
X48260000Y-99695000D03*
X48260000Y-102235000D03*
X48260000Y-104775000D03*
X48260000Y-107315000D03*
X76200000Y-107315000D03*
X76200000Y-104775000D03*
X76200000Y-102235000D03*
X76200000Y-99695000D03*
X76200000Y-97155000D03*
X76200000Y-94615000D03*
X76200000Y-92075000D03*
X76200000Y-89535000D03*
X76200000Y-86995000D03*
X76200000Y-84455000D03*
X76200000Y-81915000D03*
X76200000Y-79375000D03*
X76200000Y-76835000D03*
X76200000Y-74295000D03*
X76200000Y-71755000D03*
D21*
X92710000Y-111760000D03*
X127000000Y-100330000D03*
X129540000Y-100330000D03*
X111760000Y-88900000D03*
X109220000Y-88900000D03*
X109220000Y-102870000D03*
X120650000Y-92710000D03*
X106680000Y-97790000D03*
X106680000Y-102870000D03*
X99060000Y-86360000D03*
X86360000Y-87630000D03*
X86360000Y-91440000D03*
X107950000Y-91440000D03*
X124460000Y-87630000D03*
D22*
X105410000Y-76075000D02*
X105410000Y-77470000D01*
X100330000Y-82550000D02*
X100330000Y-83945000D01*
X105410000Y-77470000D02*
X100330000Y-82550000D01*
X105410000Y-78376200D02*
X108313800Y-81280000D01*
X105410000Y-77470000D02*
X105410000Y-78376200D01*
X108313800Y-81280000D02*
X134620000Y-81280000D01*
X76200000Y-86995000D02*
X75122370Y-86995000D01*
X129620000Y-66040000D02*
X134620000Y-66040000D01*
X134620000Y-66040000D02*
X139620000Y-66040000D01*
X134620000Y-66040000D02*
X134620000Y-81280000D01*
X134620000Y-81280000D02*
X134620000Y-88900000D01*
X130810000Y-92710000D02*
X130810000Y-96520000D01*
X134620000Y-88900000D02*
X130810000Y-92710000D01*
X97790000Y-83945000D02*
X97790000Y-86360000D01*
X96520000Y-87630000D02*
X96520000Y-96520000D01*
X97790000Y-86360000D02*
X96520000Y-87630000D01*
X105950000Y-109220000D02*
X97790000Y-109220000D01*
X96520000Y-107950000D02*
X96520000Y-104140000D01*
X97790000Y-109220000D02*
X96520000Y-107950000D01*
X83280000Y-93980000D02*
X83280000Y-89630000D01*
X80645000Y-86995000D02*
X76200000Y-86995000D01*
X83280000Y-89630000D02*
X80645000Y-86995000D01*
X138430000Y-104140000D02*
X138430000Y-102870000D01*
X138430000Y-102870000D02*
X137160000Y-101600000D01*
X123190000Y-101600000D02*
X120650000Y-104140000D01*
X137160000Y-101600000D02*
X123190000Y-101600000D01*
X104140000Y-104140000D02*
X104140000Y-102870000D01*
X104140000Y-102870000D02*
X102870000Y-101600000D01*
X87198199Y-103301801D02*
X86360000Y-104140000D01*
X88900000Y-101600000D02*
X87198199Y-103301801D01*
X102870000Y-101600000D02*
X88900000Y-101600000D01*
X125730000Y-96520000D02*
X125730000Y-99060000D01*
X125730000Y-99060000D02*
X138430000Y-99060000D01*
X138430000Y-99060000D02*
X140970000Y-101600000D01*
X140970000Y-101600000D02*
X140970000Y-114300000D01*
X140970000Y-114300000D02*
X134620000Y-120650000D01*
X116840000Y-120650000D02*
X113030000Y-116840000D01*
X134620000Y-120650000D02*
X116840000Y-120650000D01*
X135439990Y-98609990D02*
X140519990Y-98609990D01*
X133350000Y-96520000D02*
X135439990Y-98609990D01*
X141420010Y-99510010D02*
X141420010Y-115119990D01*
X140519990Y-98609990D02*
X141420010Y-99510010D01*
X141420010Y-115119990D02*
X134620000Y-121920000D01*
X115570000Y-121920000D02*
X110490000Y-116840000D01*
X134620000Y-121920000D02*
X115570000Y-121920000D01*
X105410000Y-119380000D02*
X105410000Y-116840000D01*
X91440000Y-104140000D02*
X91440000Y-120650000D01*
X91440000Y-120650000D02*
X92710000Y-121920000D01*
X92710000Y-121920000D02*
X102870000Y-121920000D01*
X102870000Y-121920000D02*
X105410000Y-119380000D01*
X102870000Y-116840000D02*
X102870000Y-114300000D01*
X100330000Y-111760000D02*
X92710000Y-111760000D01*
X102870000Y-114300000D02*
X100330000Y-111760000D01*
X127000000Y-100330000D02*
X129540000Y-100330000D01*
X111760000Y-88900000D02*
X109220000Y-88900000D01*
X109220000Y-102870000D02*
X109220000Y-105410000D01*
X109220000Y-105410000D02*
X110490000Y-106680000D01*
X120650000Y-106680000D02*
X123190000Y-104140000D01*
X110490000Y-106680000D02*
X120650000Y-106680000D01*
X111760000Y-92710000D02*
X106680000Y-97790000D01*
X120650000Y-92710000D02*
X111760000Y-92710000D01*
X106680000Y-102870000D02*
X106680000Y-106680000D01*
X106680000Y-106680000D02*
X105410000Y-107950000D01*
X105410000Y-107950000D02*
X101600000Y-104140000D01*
X123190000Y-83945000D02*
X123190000Y-85090000D01*
X123190000Y-85090000D02*
X121920000Y-86360000D01*
X121920000Y-86360000D02*
X99060000Y-86360000D01*
X86360000Y-87630000D02*
X86360000Y-91440000D01*
X107950000Y-91440000D02*
X124460000Y-91440000D01*
X125730000Y-90170000D02*
X125730000Y-83945000D01*
X124460000Y-91440000D02*
X125730000Y-90170000D01*
X101600000Y-96520000D02*
X101600000Y-91440000D01*
X105410000Y-87630000D02*
X124460000Y-87630000D01*
X101600000Y-91440000D02*
X105410000Y-87630000D01*
X86360000Y-96520000D02*
X82550000Y-100330000D01*
X82550000Y-100330000D02*
X82550000Y-110490000D01*
X82550000Y-110490000D02*
X88900000Y-116840000D01*
X86360000Y-96520000D02*
X86360000Y-97790000D01*
X86360000Y-97790000D02*
X87630000Y-99060000D01*
X118110000Y-99060000D02*
X120650000Y-96520000D01*
X87630000Y-99060000D02*
X118110000Y-99060000D01*
X107950000Y-100330000D02*
X109220000Y-99060000D01*
X109220000Y-99060000D02*
X118110000Y-99060000D01*
X107950000Y-109220000D02*
X107950000Y-100330000D01*
X72600000Y-110490000D02*
X82550000Y-110490000D01*
D23*
G36*
X140210000Y-101914803D02*
G01*
X140210001Y-112903000D01*
X102547802Y-112903000D01*
X100893804Y-111249003D01*
X100870001Y-111219999D01*
X100754276Y-111125026D01*
X100622247Y-111054454D01*
X100478986Y-111010997D01*
X100367333Y-111000000D01*
X100367322Y-111000000D01*
X100330000Y-110996324D01*
X100292678Y-111000000D01*
X93413711Y-111000000D01*
X93369774Y-110956063D01*
X93200256Y-110842795D01*
X93011898Y-110764774D01*
X92811939Y-110725000D01*
X92608061Y-110725000D01*
X92408102Y-110764774D01*
X92219744Y-110842795D01*
X92200000Y-110855987D01*
X92200000Y-110033979D01*
X105315626Y-110033979D01*
X105356841Y-110252478D01*
X105569665Y-110348359D01*
X105797105Y-110400878D01*
X106030421Y-110408016D01*
X106260646Y-110369500D01*
X106478934Y-110286808D01*
X106543159Y-110252478D01*
X106584374Y-110033979D01*
X105950000Y-109399605D01*
X105315626Y-110033979D01*
X92200000Y-110033979D01*
X92200000Y-105403987D01*
X92379110Y-105284309D01*
X92503444Y-105159975D01*
X93139630Y-105159975D01*
X93215838Y-105407844D01*
X93477865Y-105532563D01*
X93759189Y-105603768D01*
X94048999Y-105618719D01*
X94336157Y-105576845D01*
X94609628Y-105479754D01*
X94744162Y-105407844D01*
X94820370Y-105159975D01*
X95679630Y-105159975D01*
X95755838Y-105407844D01*
X96017865Y-105532563D01*
X96299189Y-105603768D01*
X96588999Y-105618719D01*
X96876157Y-105576845D01*
X97149628Y-105479754D01*
X97284162Y-105407844D01*
X97360370Y-105159975D01*
X96520000Y-104319605D01*
X95679630Y-105159975D01*
X94820370Y-105159975D01*
X93980000Y-104319605D01*
X93139630Y-105159975D01*
X92503444Y-105159975D01*
X92584309Y-105079110D01*
X92707289Y-104895057D01*
X92712156Y-104904162D01*
X92960025Y-104980370D01*
X93800395Y-104140000D01*
X94159605Y-104140000D01*
X94999975Y-104980370D01*
X95247844Y-104904162D01*
X95249875Y-104899895D01*
X95252156Y-104904162D01*
X95500025Y-104980370D01*
X96340395Y-104140000D01*
X95500025Y-103299630D01*
X95252156Y-103375838D01*
X95250125Y-103380105D01*
X95247844Y-103375838D01*
X94999975Y-103299630D01*
X94159605Y-104140000D01*
X93800395Y-104140000D01*
X92960025Y-103299630D01*
X92712156Y-103375838D01*
X92707601Y-103385408D01*
X92584309Y-103200890D01*
X92503444Y-103120025D01*
X93139630Y-103120025D01*
X93980000Y-103960395D01*
X94820370Y-103120025D01*
X95679630Y-103120025D01*
X96520000Y-103960395D01*
X97360370Y-103120025D01*
X97284162Y-102872156D01*
X97022135Y-102747437D01*
X96740811Y-102676232D01*
X96451001Y-102661281D01*
X96163843Y-102703155D01*
X95890372Y-102800246D01*
X95755838Y-102872156D01*
X95679630Y-103120025D01*
X94820370Y-103120025D01*
X94744162Y-102872156D01*
X94482135Y-102747437D01*
X94200811Y-102676232D01*
X93911001Y-102661281D01*
X93623843Y-102703155D01*
X93350372Y-102800246D01*
X93215838Y-102872156D01*
X93139630Y-103120025D01*
X92503444Y-103120025D01*
X92379110Y-102995691D01*
X92137822Y-102834467D01*
X91869717Y-102723414D01*
X91585098Y-102666800D01*
X91294902Y-102666800D01*
X91010283Y-102723414D01*
X90742178Y-102834467D01*
X90500890Y-102995691D01*
X90295691Y-103200890D01*
X90170000Y-103388999D01*
X90044309Y-103200890D01*
X89839110Y-102995691D01*
X89597822Y-102834467D01*
X89329717Y-102723414D01*
X89045098Y-102666800D01*
X88908002Y-102666800D01*
X89214802Y-102360000D01*
X102555199Y-102360000D01*
X103195890Y-103000691D01*
X102995691Y-103200890D01*
X102870000Y-103388999D01*
X102744309Y-103200890D01*
X102539110Y-102995691D01*
X102297822Y-102834467D01*
X102029717Y-102723414D01*
X101745098Y-102666800D01*
X101454902Y-102666800D01*
X101170283Y-102723414D01*
X100902178Y-102834467D01*
X100660890Y-102995691D01*
X100455691Y-103200890D01*
X100330000Y-103388999D01*
X100204309Y-103200890D01*
X99999110Y-102995691D01*
X99757822Y-102834467D01*
X99489717Y-102723414D01*
X99205098Y-102666800D01*
X98914902Y-102666800D01*
X98630283Y-102723414D01*
X98362178Y-102834467D01*
X98120890Y-102995691D01*
X97915691Y-103200890D01*
X97792711Y-103384943D01*
X97787844Y-103375838D01*
X97539975Y-103299630D01*
X96699605Y-104140000D01*
X97539975Y-104980370D01*
X97787844Y-104904162D01*
X97792399Y-104894592D01*
X97915691Y-105079110D01*
X98120890Y-105284309D01*
X98362178Y-105445533D01*
X98630283Y-105556586D01*
X98914902Y-105613200D01*
X99205098Y-105613200D01*
X99489717Y-105556586D01*
X99757822Y-105445533D01*
X99999110Y-105284309D01*
X100204309Y-105079110D01*
X100330000Y-104891001D01*
X100455691Y-105079110D01*
X100660890Y-105284309D01*
X100902178Y-105445533D01*
X101170283Y-105556586D01*
X101454902Y-105613200D01*
X101745098Y-105613200D01*
X101956374Y-105571175D01*
X104846201Y-108461003D01*
X104869999Y-108490001D01*
X104898997Y-108513799D01*
X104985724Y-108584974D01*
X105025830Y-108606411D01*
X104917522Y-108626841D01*
X104821641Y-108839665D01*
X104769122Y-109067105D01*
X104761984Y-109300421D01*
X104800500Y-109530646D01*
X104883192Y-109748934D01*
X104917522Y-109813159D01*
X105136021Y-109854374D01*
X105770395Y-109220000D01*
X105756253Y-109205858D01*
X105935858Y-109026253D01*
X105950000Y-109040395D01*
X106584374Y-108406021D01*
X106543159Y-108187522D01*
X106339177Y-108095624D01*
X107190000Y-107244802D01*
X107190000Y-108070130D01*
X107155820Y-108080498D01*
X107045506Y-108139463D01*
X106948815Y-108218815D01*
X106869463Y-108315506D01*
X106810498Y-108425820D01*
X106774188Y-108545518D01*
X106770124Y-108586785D01*
X106763979Y-108585626D01*
X106129605Y-109220000D01*
X106763979Y-109854374D01*
X106770124Y-109853215D01*
X106774188Y-109894482D01*
X106810498Y-110014180D01*
X106869463Y-110124494D01*
X106948815Y-110221185D01*
X107045506Y-110300537D01*
X107155820Y-110359502D01*
X107275518Y-110395812D01*
X107400000Y-110408072D01*
X108500000Y-110408072D01*
X108624482Y-110395812D01*
X108744180Y-110359502D01*
X108854494Y-110300537D01*
X108951185Y-110221185D01*
X109030537Y-110124494D01*
X109089502Y-110014180D01*
X109125812Y-109894482D01*
X109138072Y-109770000D01*
X109138072Y-108670000D01*
X109125812Y-108545518D01*
X109089502Y-108425820D01*
X109030537Y-108315506D01*
X108951185Y-108218815D01*
X108854494Y-108139463D01*
X108744180Y-108080498D01*
X108710000Y-108070130D01*
X108710000Y-105974801D01*
X109926201Y-107191003D01*
X109949999Y-107220001D01*
X110065724Y-107314974D01*
X110197753Y-107385546D01*
X110341014Y-107429003D01*
X110452667Y-107440000D01*
X110452676Y-107440000D01*
X110489999Y-107443676D01*
X110527322Y-107440000D01*
X120612678Y-107440000D01*
X120650000Y-107443676D01*
X120687322Y-107440000D01*
X120687333Y-107440000D01*
X120798986Y-107429003D01*
X120942247Y-107385546D01*
X121074276Y-107314974D01*
X121190001Y-107220001D01*
X121213804Y-107190997D01*
X122833627Y-105571175D01*
X123044902Y-105613200D01*
X123335098Y-105613200D01*
X123619717Y-105556586D01*
X123887822Y-105445533D01*
X124129110Y-105284309D01*
X124334309Y-105079110D01*
X124460000Y-104891001D01*
X124585691Y-105079110D01*
X124790890Y-105284309D01*
X125032178Y-105445533D01*
X125300283Y-105556586D01*
X125584902Y-105613200D01*
X125875098Y-105613200D01*
X126159717Y-105556586D01*
X126427822Y-105445533D01*
X126669110Y-105284309D01*
X126793444Y-105159975D01*
X127429630Y-105159975D01*
X127505838Y-105407844D01*
X127767865Y-105532563D01*
X128049189Y-105603768D01*
X128338999Y-105618719D01*
X128626157Y-105576845D01*
X128899628Y-105479754D01*
X129034162Y-105407844D01*
X129110370Y-105159975D01*
X129969630Y-105159975D01*
X130045838Y-105407844D01*
X130307865Y-105532563D01*
X130589189Y-105603768D01*
X130878999Y-105618719D01*
X131166157Y-105576845D01*
X131439628Y-105479754D01*
X131574162Y-105407844D01*
X131650370Y-105159975D01*
X130810000Y-104319605D01*
X129969630Y-105159975D01*
X129110370Y-105159975D01*
X128270000Y-104319605D01*
X127429630Y-105159975D01*
X126793444Y-105159975D01*
X126874309Y-105079110D01*
X126997289Y-104895057D01*
X127002156Y-104904162D01*
X127250025Y-104980370D01*
X128090395Y-104140000D01*
X128449605Y-104140000D01*
X129289975Y-104980370D01*
X129537844Y-104904162D01*
X129539875Y-104899895D01*
X129542156Y-104904162D01*
X129790025Y-104980370D01*
X130630395Y-104140000D01*
X129790025Y-103299630D01*
X129542156Y-103375838D01*
X129540125Y-103380105D01*
X129537844Y-103375838D01*
X129289975Y-103299630D01*
X128449605Y-104140000D01*
X128090395Y-104140000D01*
X127250025Y-103299630D01*
X127002156Y-103375838D01*
X126997601Y-103385408D01*
X126874309Y-103200890D01*
X126793444Y-103120025D01*
X127429630Y-103120025D01*
X128270000Y-103960395D01*
X129110370Y-103120025D01*
X129969630Y-103120025D01*
X130810000Y-103960395D01*
X131650370Y-103120025D01*
X131574162Y-102872156D01*
X131312135Y-102747437D01*
X131030811Y-102676232D01*
X130741001Y-102661281D01*
X130453843Y-102703155D01*
X130180372Y-102800246D01*
X130045838Y-102872156D01*
X129969630Y-103120025D01*
X129110370Y-103120025D01*
X129034162Y-102872156D01*
X128772135Y-102747437D01*
X128490811Y-102676232D01*
X128201001Y-102661281D01*
X127913843Y-102703155D01*
X127640372Y-102800246D01*
X127505838Y-102872156D01*
X127429630Y-103120025D01*
X126793444Y-103120025D01*
X126669110Y-102995691D01*
X126427822Y-102834467D01*
X126159717Y-102723414D01*
X125875098Y-102666800D01*
X125584902Y-102666800D01*
X125300283Y-102723414D01*
X125032178Y-102834467D01*
X124790890Y-102995691D01*
X124585691Y-103200890D01*
X124460000Y-103388999D01*
X124334309Y-103200890D01*
X124129110Y-102995691D01*
X123887822Y-102834467D01*
X123619717Y-102723414D01*
X123335098Y-102666800D01*
X123198003Y-102666800D01*
X123504803Y-102360000D01*
X136845199Y-102360000D01*
X137485890Y-103000691D01*
X137285691Y-103200890D01*
X137160000Y-103388999D01*
X137034309Y-103200890D01*
X136829110Y-102995691D01*
X136587822Y-102834467D01*
X136319717Y-102723414D01*
X136035098Y-102666800D01*
X135744902Y-102666800D01*
X135460283Y-102723414D01*
X135192178Y-102834467D01*
X134950890Y-102995691D01*
X134745691Y-103200890D01*
X134620000Y-103388999D01*
X134494309Y-103200890D01*
X134289110Y-102995691D01*
X134047822Y-102834467D01*
X133779717Y-102723414D01*
X133495098Y-102666800D01*
X133204902Y-102666800D01*
X132920283Y-102723414D01*
X132652178Y-102834467D01*
X132410890Y-102995691D01*
X132205691Y-103200890D01*
X132082711Y-103384943D01*
X132077844Y-103375838D01*
X131829975Y-103299630D01*
X130989605Y-104140000D01*
X131829975Y-104980370D01*
X132077844Y-104904162D01*
X132082399Y-104894592D01*
X132205691Y-105079110D01*
X132410890Y-105284309D01*
X132652178Y-105445533D01*
X132920283Y-105556586D01*
X133204902Y-105613200D01*
X133495098Y-105613200D01*
X133779717Y-105556586D01*
X134047822Y-105445533D01*
X134289110Y-105284309D01*
X134494309Y-105079110D01*
X134620000Y-104891001D01*
X134745691Y-105079110D01*
X134950890Y-105284309D01*
X135192178Y-105445533D01*
X135460283Y-105556586D01*
X135744902Y-105613200D01*
X136035098Y-105613200D01*
X136319717Y-105556586D01*
X136587822Y-105445533D01*
X136829110Y-105284309D01*
X137034309Y-105079110D01*
X137160000Y-104891001D01*
X137285691Y-105079110D01*
X137490890Y-105284309D01*
X137732178Y-105445533D01*
X138000283Y-105556586D01*
X138284902Y-105613200D01*
X138575098Y-105613200D01*
X138859717Y-105556586D01*
X139127822Y-105445533D01*
X139369110Y-105284309D01*
X139574309Y-105079110D01*
X139735533Y-104837822D01*
X139846586Y-104569717D01*
X139903200Y-104285098D01*
X139903200Y-103994902D01*
X139846586Y-103710283D01*
X139735533Y-103442178D01*
X139574309Y-103200890D01*
X139369110Y-102995691D01*
X139192893Y-102877946D01*
X139193676Y-102869999D01*
X139190000Y-102832676D01*
X139190000Y-102832667D01*
X139179003Y-102721014D01*
X139135546Y-102577753D01*
X139064974Y-102445724D01*
X138970001Y-102329999D01*
X138941003Y-102306201D01*
X137723804Y-101089003D01*
X137700001Y-101059999D01*
X137584276Y-100965026D01*
X137452247Y-100894454D01*
X137308986Y-100850997D01*
X137197333Y-100840000D01*
X137197322Y-100840000D01*
X137160000Y-100836324D01*
X137122678Y-100840000D01*
X130444013Y-100840000D01*
X130457205Y-100820256D01*
X130535226Y-100631898D01*
X130575000Y-100431939D01*
X130575000Y-100228061D01*
X130535226Y-100028102D01*
X130457205Y-99839744D01*
X130444013Y-99820000D01*
X138115199Y-99820000D01*
X140210000Y-101914803D01*
G37*
X140210000Y-101914803D02*
X140210001Y-112903000D01*
X102547802Y-112903000D01*
X100893804Y-111249003D01*
X100870001Y-111219999D01*
X100754276Y-111125026D01*
X100622247Y-111054454D01*
X100478986Y-111010997D01*
X100367333Y-111000000D01*
X100367322Y-111000000D01*
X100330000Y-110996324D01*
X100292678Y-111000000D01*
X93413711Y-111000000D01*
X93369774Y-110956063D01*
X93200256Y-110842795D01*
X93011898Y-110764774D01*
X92811939Y-110725000D01*
X92608061Y-110725000D01*
X92408102Y-110764774D01*
X92219744Y-110842795D01*
X92200000Y-110855987D01*
X92200000Y-110033979D01*
X105315626Y-110033979D01*
X105356841Y-110252478D01*
X105569665Y-110348359D01*
X105797105Y-110400878D01*
X106030421Y-110408016D01*
X106260646Y-110369500D01*
X106478934Y-110286808D01*
X106543159Y-110252478D01*
X106584374Y-110033979D01*
X105950000Y-109399605D01*
X105315626Y-110033979D01*
X92200000Y-110033979D01*
X92200000Y-105403987D01*
X92379110Y-105284309D01*
X92503444Y-105159975D01*
X93139630Y-105159975D01*
X93215838Y-105407844D01*
X93477865Y-105532563D01*
X93759189Y-105603768D01*
X94048999Y-105618719D01*
X94336157Y-105576845D01*
X94609628Y-105479754D01*
X94744162Y-105407844D01*
X94820370Y-105159975D01*
X95679630Y-105159975D01*
X95755838Y-105407844D01*
X96017865Y-105532563D01*
X96299189Y-105603768D01*
X96588999Y-105618719D01*
X96876157Y-105576845D01*
X97149628Y-105479754D01*
X97284162Y-105407844D01*
X97360370Y-105159975D01*
X96520000Y-104319605D01*
X95679630Y-105159975D01*
X94820370Y-105159975D01*
X93980000Y-104319605D01*
X93139630Y-105159975D01*
X92503444Y-105159975D01*
X92584309Y-105079110D01*
X92707289Y-104895057D01*
X92712156Y-104904162D01*
X92960025Y-104980370D01*
X93800395Y-104140000D01*
X94159605Y-104140000D01*
X94999975Y-104980370D01*
X95247844Y-104904162D01*
X95249875Y-104899895D01*
X95252156Y-104904162D01*
X95500025Y-104980370D01*
X96340395Y-104140000D01*
X95500025Y-103299630D01*
X95252156Y-103375838D01*
X95250125Y-103380105D01*
X95247844Y-103375838D01*
X94999975Y-103299630D01*
X94159605Y-104140000D01*
X93800395Y-104140000D01*
X92960025Y-103299630D01*
X92712156Y-103375838D01*
X92707601Y-103385408D01*
X92584309Y-103200890D01*
X92503444Y-103120025D01*
X93139630Y-103120025D01*
X93980000Y-103960395D01*
X94820370Y-103120025D01*
X95679630Y-103120025D01*
X96520000Y-103960395D01*
X97360370Y-103120025D01*
X97284162Y-102872156D01*
X97022135Y-102747437D01*
X96740811Y-102676232D01*
X96451001Y-102661281D01*
X96163843Y-102703155D01*
X95890372Y-102800246D01*
X95755838Y-102872156D01*
X95679630Y-103120025D01*
X94820370Y-103120025D01*
X94744162Y-102872156D01*
X94482135Y-102747437D01*
X94200811Y-102676232D01*
X93911001Y-102661281D01*
X93623843Y-102703155D01*
X93350372Y-102800246D01*
X93215838Y-102872156D01*
X93139630Y-103120025D01*
X92503444Y-103120025D01*
X92379110Y-102995691D01*
X92137822Y-102834467D01*
X91869717Y-102723414D01*
X91585098Y-102666800D01*
X91294902Y-102666800D01*
X91010283Y-102723414D01*
X90742178Y-102834467D01*
X90500890Y-102995691D01*
X90295691Y-103200890D01*
X90170000Y-103388999D01*
X90044309Y-103200890D01*
X89839110Y-102995691D01*
X89597822Y-102834467D01*
X89329717Y-102723414D01*
X89045098Y-102666800D01*
X88908002Y-102666800D01*
X89214802Y-102360000D01*
X102555199Y-102360000D01*
X103195890Y-103000691D01*
X102995691Y-103200890D01*
X102870000Y-103388999D01*
X102744309Y-103200890D01*
X102539110Y-102995691D01*
X102297822Y-102834467D01*
X102029717Y-102723414D01*
X101745098Y-102666800D01*
X101454902Y-102666800D01*
X101170283Y-102723414D01*
X100902178Y-102834467D01*
X100660890Y-102995691D01*
X100455691Y-103200890D01*
X100330000Y-103388999D01*
X100204309Y-103200890D01*
X99999110Y-102995691D01*
X99757822Y-102834467D01*
X99489717Y-102723414D01*
X99205098Y-102666800D01*
X98914902Y-102666800D01*
X98630283Y-102723414D01*
X98362178Y-102834467D01*
X98120890Y-102995691D01*
X97915691Y-103200890D01*
X97792711Y-103384943D01*
X97787844Y-103375838D01*
X97539975Y-103299630D01*
X96699605Y-104140000D01*
X97539975Y-104980370D01*
X97787844Y-104904162D01*
X97792399Y-104894592D01*
X97915691Y-105079110D01*
X98120890Y-105284309D01*
X98362178Y-105445533D01*
X98630283Y-105556586D01*
X98914902Y-105613200D01*
X99205098Y-105613200D01*
X99489717Y-105556586D01*
X99757822Y-105445533D01*
X99999110Y-105284309D01*
X100204309Y-105079110D01*
X100330000Y-104891001D01*
X100455691Y-105079110D01*
X100660890Y-105284309D01*
X100902178Y-105445533D01*
X101170283Y-105556586D01*
X101454902Y-105613200D01*
X101745098Y-105613200D01*
X101956374Y-105571175D01*
X104846201Y-108461003D01*
X104869999Y-108490001D01*
X104898997Y-108513799D01*
X104985724Y-108584974D01*
X105025830Y-108606411D01*
X104917522Y-108626841D01*
X104821641Y-108839665D01*
X104769122Y-109067105D01*
X104761984Y-109300421D01*
X104800500Y-109530646D01*
X104883192Y-109748934D01*
X104917522Y-109813159D01*
X105136021Y-109854374D01*
X105770395Y-109220000D01*
X105756253Y-109205858D01*
X105935858Y-109026253D01*
X105950000Y-109040395D01*
X106584374Y-108406021D01*
X106543159Y-108187522D01*
X106339177Y-108095624D01*
X107190000Y-107244802D01*
X107190000Y-108070130D01*
X107155820Y-108080498D01*
X107045506Y-108139463D01*
X106948815Y-108218815D01*
X106869463Y-108315506D01*
X106810498Y-108425820D01*
X106774188Y-108545518D01*
X106770124Y-108586785D01*
X106763979Y-108585626D01*
X106129605Y-109220000D01*
X106763979Y-109854374D01*
X106770124Y-109853215D01*
X106774188Y-109894482D01*
X106810498Y-110014180D01*
X106869463Y-110124494D01*
X106948815Y-110221185D01*
X107045506Y-110300537D01*
X107155820Y-110359502D01*
X107275518Y-110395812D01*
X107400000Y-110408072D01*
X108500000Y-110408072D01*
X108624482Y-110395812D01*
X108744180Y-110359502D01*
X108854494Y-110300537D01*
X108951185Y-110221185D01*
X109030537Y-110124494D01*
X109089502Y-110014180D01*
X109125812Y-109894482D01*
X109138072Y-109770000D01*
X109138072Y-108670000D01*
X109125812Y-108545518D01*
X109089502Y-108425820D01*
X109030537Y-108315506D01*
X108951185Y-108218815D01*
X108854494Y-108139463D01*
X108744180Y-108080498D01*
X108710000Y-108070130D01*
X108710000Y-105974801D01*
X109926201Y-107191003D01*
X109949999Y-107220001D01*
X110065724Y-107314974D01*
X110197753Y-107385546D01*
X110341014Y-107429003D01*
X110452667Y-107440000D01*
X110452676Y-107440000D01*
X110489999Y-107443676D01*
X110527322Y-107440000D01*
X120612678Y-107440000D01*
X120650000Y-107443676D01*
X120687322Y-107440000D01*
X120687333Y-107440000D01*
X120798986Y-107429003D01*
X120942247Y-107385546D01*
X121074276Y-107314974D01*
X121190001Y-107220001D01*
X121213804Y-107190997D01*
X122833627Y-105571175D01*
X123044902Y-105613200D01*
X123335098Y-105613200D01*
X123619717Y-105556586D01*
X123887822Y-105445533D01*
X124129110Y-105284309D01*
X124334309Y-105079110D01*
X124460000Y-104891001D01*
X124585691Y-105079110D01*
X124790890Y-105284309D01*
X125032178Y-105445533D01*
X125300283Y-105556586D01*
X125584902Y-105613200D01*
X125875098Y-105613200D01*
X126159717Y-105556586D01*
X126427822Y-105445533D01*
X126669110Y-105284309D01*
X126793444Y-105159975D01*
X127429630Y-105159975D01*
X127505838Y-105407844D01*
X127767865Y-105532563D01*
X128049189Y-105603768D01*
X128338999Y-105618719D01*
X128626157Y-105576845D01*
X128899628Y-105479754D01*
X129034162Y-105407844D01*
X129110370Y-105159975D01*
X129969630Y-105159975D01*
X130045838Y-105407844D01*
X130307865Y-105532563D01*
X130589189Y-105603768D01*
X130878999Y-105618719D01*
X131166157Y-105576845D01*
X131439628Y-105479754D01*
X131574162Y-105407844D01*
X131650370Y-105159975D01*
X130810000Y-104319605D01*
X129969630Y-105159975D01*
X129110370Y-105159975D01*
X128270000Y-104319605D01*
X127429630Y-105159975D01*
X126793444Y-105159975D01*
X126874309Y-105079110D01*
X126997289Y-104895057D01*
X127002156Y-104904162D01*
X127250025Y-104980370D01*
X128090395Y-104140000D01*
X128449605Y-104140000D01*
X129289975Y-104980370D01*
X129537844Y-104904162D01*
X129539875Y-104899895D01*
X129542156Y-104904162D01*
X129790025Y-104980370D01*
X130630395Y-104140000D01*
X129790025Y-103299630D01*
X129542156Y-103375838D01*
X129540125Y-103380105D01*
X129537844Y-103375838D01*
X129289975Y-103299630D01*
X128449605Y-104140000D01*
X128090395Y-104140000D01*
X127250025Y-103299630D01*
X127002156Y-103375838D01*
X126997601Y-103385408D01*
X126874309Y-103200890D01*
X126793444Y-103120025D01*
X127429630Y-103120025D01*
X128270000Y-103960395D01*
X129110370Y-103120025D01*
X129969630Y-103120025D01*
X130810000Y-103960395D01*
X131650370Y-103120025D01*
X131574162Y-102872156D01*
X131312135Y-102747437D01*
X131030811Y-102676232D01*
X130741001Y-102661281D01*
X130453843Y-102703155D01*
X130180372Y-102800246D01*
X130045838Y-102872156D01*
X129969630Y-103120025D01*
X129110370Y-103120025D01*
X129034162Y-102872156D01*
X128772135Y-102747437D01*
X128490811Y-102676232D01*
X128201001Y-102661281D01*
X127913843Y-102703155D01*
X127640372Y-102800246D01*
X127505838Y-102872156D01*
X127429630Y-103120025D01*
X126793444Y-103120025D01*
X126669110Y-102995691D01*
X126427822Y-102834467D01*
X126159717Y-102723414D01*
X125875098Y-102666800D01*
X125584902Y-102666800D01*
X125300283Y-102723414D01*
X125032178Y-102834467D01*
X124790890Y-102995691D01*
X124585691Y-103200890D01*
X124460000Y-103388999D01*
X124334309Y-103200890D01*
X124129110Y-102995691D01*
X123887822Y-102834467D01*
X123619717Y-102723414D01*
X123335098Y-102666800D01*
X123198003Y-102666800D01*
X123504803Y-102360000D01*
X136845199Y-102360000D01*
X137485890Y-103000691D01*
X137285691Y-103200890D01*
X137160000Y-103388999D01*
X137034309Y-103200890D01*
X136829110Y-102995691D01*
X136587822Y-102834467D01*
X136319717Y-102723414D01*
X136035098Y-102666800D01*
X135744902Y-102666800D01*
X135460283Y-102723414D01*
X135192178Y-102834467D01*
X134950890Y-102995691D01*
X134745691Y-103200890D01*
X134620000Y-103388999D01*
X134494309Y-103200890D01*
X134289110Y-102995691D01*
X134047822Y-102834467D01*
X133779717Y-102723414D01*
X133495098Y-102666800D01*
X133204902Y-102666800D01*
X132920283Y-102723414D01*
X132652178Y-102834467D01*
X132410890Y-102995691D01*
X132205691Y-103200890D01*
X132082711Y-103384943D01*
X132077844Y-103375838D01*
X131829975Y-103299630D01*
X130989605Y-104140000D01*
X131829975Y-104980370D01*
X132077844Y-104904162D01*
X132082399Y-104894592D01*
X132205691Y-105079110D01*
X132410890Y-105284309D01*
X132652178Y-105445533D01*
X132920283Y-105556586D01*
X133204902Y-105613200D01*
X133495098Y-105613200D01*
X133779717Y-105556586D01*
X134047822Y-105445533D01*
X134289110Y-105284309D01*
X134494309Y-105079110D01*
X134620000Y-104891001D01*
X134745691Y-105079110D01*
X134950890Y-105284309D01*
X135192178Y-105445533D01*
X135460283Y-105556586D01*
X135744902Y-105613200D01*
X136035098Y-105613200D01*
X136319717Y-105556586D01*
X136587822Y-105445533D01*
X136829110Y-105284309D01*
X137034309Y-105079110D01*
X137160000Y-104891001D01*
X137285691Y-105079110D01*
X137490890Y-105284309D01*
X137732178Y-105445533D01*
X138000283Y-105556586D01*
X138284902Y-105613200D01*
X138575098Y-105613200D01*
X138859717Y-105556586D01*
X139127822Y-105445533D01*
X139369110Y-105284309D01*
X139574309Y-105079110D01*
X139735533Y-104837822D01*
X139846586Y-104569717D01*
X139903200Y-104285098D01*
X139903200Y-103994902D01*
X139846586Y-103710283D01*
X139735533Y-103442178D01*
X139574309Y-103200890D01*
X139369110Y-102995691D01*
X139192893Y-102877946D01*
X139193676Y-102869999D01*
X139190000Y-102832676D01*
X139190000Y-102832667D01*
X139179003Y-102721014D01*
X139135546Y-102577753D01*
X139064974Y-102445724D01*
X138970001Y-102329999D01*
X138941003Y-102306201D01*
X137723804Y-101089003D01*
X137700001Y-101059999D01*
X137584276Y-100965026D01*
X137452247Y-100894454D01*
X137308986Y-100850997D01*
X137197333Y-100840000D01*
X137197322Y-100840000D01*
X137160000Y-100836324D01*
X137122678Y-100840000D01*
X130444013Y-100840000D01*
X130457205Y-100820256D01*
X130535226Y-100631898D01*
X130575000Y-100431939D01*
X130575000Y-100228061D01*
X130535226Y-100028102D01*
X130457205Y-99839744D01*
X130444013Y-99820000D01*
X138115199Y-99820000D01*
X140210000Y-101914803D01*
G36*
X142113000Y-99194273D02*
G01*
X142054984Y-99085734D01*
X142041821Y-99069695D01*
X141983809Y-98999006D01*
X141983805Y-98999002D01*
X141960011Y-98970009D01*
X141931019Y-98946216D01*
X141083793Y-98098992D01*
X141059991Y-98069989D01*
X140944266Y-97975016D01*
X140812237Y-97904444D01*
X140668976Y-97860987D01*
X140557323Y-97849990D01*
X140557312Y-97849990D01*
X140519990Y-97846314D01*
X140482668Y-97849990D01*
X139669908Y-97849990D01*
X139719385Y-97809385D01*
X139798737Y-97712694D01*
X139857702Y-97602380D01*
X139894012Y-97482682D01*
X139906272Y-97358200D01*
X139906272Y-95681800D01*
X139894012Y-95557318D01*
X139857702Y-95437620D01*
X139798737Y-95327306D01*
X139719385Y-95230615D01*
X139622694Y-95151263D01*
X139512380Y-95092298D01*
X139392682Y-95055988D01*
X139268200Y-95043728D01*
X137591800Y-95043728D01*
X137467318Y-95055988D01*
X137347620Y-95092298D01*
X137237306Y-95151263D01*
X137140615Y-95230615D01*
X137061263Y-95327306D01*
X137002298Y-95437620D01*
X136976403Y-95522984D01*
X136829110Y-95375691D01*
X136587822Y-95214467D01*
X136319717Y-95103414D01*
X136035098Y-95046800D01*
X135744902Y-95046800D01*
X135460283Y-95103414D01*
X135192178Y-95214467D01*
X134950890Y-95375691D01*
X134745691Y-95580890D01*
X134620000Y-95768999D01*
X134494309Y-95580890D01*
X134289110Y-95375691D01*
X134047822Y-95214467D01*
X133779717Y-95103414D01*
X133495098Y-95046800D01*
X133204902Y-95046800D01*
X132920283Y-95103414D01*
X132652178Y-95214467D01*
X132410890Y-95375691D01*
X132205691Y-95580890D01*
X132082711Y-95764943D01*
X132077844Y-95755838D01*
X131829975Y-95679630D01*
X130989605Y-96520000D01*
X131829975Y-97360370D01*
X132077844Y-97284162D01*
X132082399Y-97274592D01*
X132205691Y-97459110D01*
X132410890Y-97664309D01*
X132652178Y-97825533D01*
X132920283Y-97936586D01*
X133204902Y-97993200D01*
X133495098Y-97993200D01*
X133706373Y-97951175D01*
X134055198Y-98300000D01*
X126490000Y-98300000D01*
X126490000Y-97783987D01*
X126669110Y-97664309D01*
X126793444Y-97539975D01*
X127429630Y-97539975D01*
X127505838Y-97787844D01*
X127767865Y-97912563D01*
X128049189Y-97983768D01*
X128338999Y-97998719D01*
X128626157Y-97956845D01*
X128899628Y-97859754D01*
X129034162Y-97787844D01*
X129110370Y-97539975D01*
X129969630Y-97539975D01*
X130045838Y-97787844D01*
X130307865Y-97912563D01*
X130589189Y-97983768D01*
X130878999Y-97998719D01*
X131166157Y-97956845D01*
X131439628Y-97859754D01*
X131574162Y-97787844D01*
X131650370Y-97539975D01*
X130810000Y-96699605D01*
X129969630Y-97539975D01*
X129110370Y-97539975D01*
X128270000Y-96699605D01*
X127429630Y-97539975D01*
X126793444Y-97539975D01*
X126874309Y-97459110D01*
X126997289Y-97275057D01*
X127002156Y-97284162D01*
X127250025Y-97360370D01*
X128090395Y-96520000D01*
X128449605Y-96520000D01*
X129289975Y-97360370D01*
X129537844Y-97284162D01*
X129539875Y-97279895D01*
X129542156Y-97284162D01*
X129790025Y-97360370D01*
X130630395Y-96520000D01*
X129790025Y-95679630D01*
X129542156Y-95755838D01*
X129540125Y-95760105D01*
X129537844Y-95755838D01*
X129289975Y-95679630D01*
X128449605Y-96520000D01*
X128090395Y-96520000D01*
X127250025Y-95679630D01*
X127002156Y-95755838D01*
X126997601Y-95765408D01*
X126874309Y-95580890D01*
X126793444Y-95500025D01*
X127429630Y-95500025D01*
X128270000Y-96340395D01*
X129110370Y-95500025D01*
X129969630Y-95500025D01*
X130810000Y-96340395D01*
X131650370Y-95500025D01*
X131574162Y-95252156D01*
X131312135Y-95127437D01*
X131030811Y-95056232D01*
X130741001Y-95041281D01*
X130453843Y-95083155D01*
X130180372Y-95180246D01*
X130045838Y-95252156D01*
X129969630Y-95500025D01*
X129110370Y-95500025D01*
X129034162Y-95252156D01*
X128772135Y-95127437D01*
X128490811Y-95056232D01*
X128201001Y-95041281D01*
X127913843Y-95083155D01*
X127640372Y-95180246D01*
X127505838Y-95252156D01*
X127429630Y-95500025D01*
X126793444Y-95500025D01*
X126669110Y-95375691D01*
X126427822Y-95214467D01*
X126159717Y-95103414D01*
X125875098Y-95046800D01*
X125584902Y-95046800D01*
X125300283Y-95103414D01*
X125032178Y-95214467D01*
X124790890Y-95375691D01*
X124585691Y-95580890D01*
X124460000Y-95768999D01*
X124334309Y-95580890D01*
X124129110Y-95375691D01*
X123887822Y-95214467D01*
X123619717Y-95103414D01*
X123335098Y-95046800D01*
X123044902Y-95046800D01*
X122760283Y-95103414D01*
X122492178Y-95214467D01*
X122250890Y-95375691D01*
X122045691Y-95580890D01*
X121920000Y-95768999D01*
X121794309Y-95580890D01*
X121589110Y-95375691D01*
X121347822Y-95214467D01*
X121079717Y-95103414D01*
X120795098Y-95046800D01*
X120504902Y-95046800D01*
X120220283Y-95103414D01*
X119952178Y-95214467D01*
X119710890Y-95375691D01*
X119505691Y-95580890D01*
X119344467Y-95822178D01*
X119233414Y-96090283D01*
X119176800Y-96374902D01*
X119176800Y-96665098D01*
X119218825Y-96876373D01*
X117795199Y-98300000D01*
X109257322Y-98300000D01*
X109219999Y-98296324D01*
X109182676Y-98300000D01*
X107584013Y-98300000D01*
X107597205Y-98280256D01*
X107675226Y-98091898D01*
X107715000Y-97891939D01*
X107715000Y-97829801D01*
X112074802Y-93470000D01*
X119946289Y-93470000D01*
X119990226Y-93513937D01*
X120159744Y-93627205D01*
X120348102Y-93705226D01*
X120548061Y-93745000D01*
X120751939Y-93745000D01*
X120951898Y-93705226D01*
X121140256Y-93627205D01*
X121309774Y-93513937D01*
X121453937Y-93369774D01*
X121567205Y-93200256D01*
X121645226Y-93011898D01*
X121685000Y-92811939D01*
X121685000Y-92608061D01*
X121645226Y-92408102D01*
X121567205Y-92219744D01*
X121554013Y-92200000D01*
X124422678Y-92200000D01*
X124460000Y-92203676D01*
X124497322Y-92200000D01*
X124497333Y-92200000D01*
X124608986Y-92189003D01*
X124752247Y-92145546D01*
X124884276Y-92074974D01*
X125000001Y-91980001D01*
X125023804Y-91950997D01*
X126241004Y-90733798D01*
X126270001Y-90710001D01*
X126364974Y-90594276D01*
X126435546Y-90462247D01*
X126479003Y-90318986D01*
X126490000Y-90207333D01*
X126490000Y-90207324D01*
X126493676Y-90170001D01*
X126490000Y-90132678D01*
X126490000Y-84940546D01*
X126526828Y-84915938D01*
X126700938Y-84741828D01*
X126837735Y-84537097D01*
X126931963Y-84309611D01*
X126980000Y-84068114D01*
X126980000Y-83821886D01*
X127020000Y-83821886D01*
X127020000Y-84068114D01*
X127068037Y-84309611D01*
X127162265Y-84537097D01*
X127299062Y-84741828D01*
X127473172Y-84915938D01*
X127677903Y-85052735D01*
X127905389Y-85146963D01*
X128146886Y-85195000D01*
X128393114Y-85195000D01*
X128634611Y-85146963D01*
X128862097Y-85052735D01*
X129066828Y-84915938D01*
X129240938Y-84741828D01*
X129377735Y-84537097D01*
X129471963Y-84309611D01*
X129520000Y-84068114D01*
X129520000Y-83821886D01*
X129471963Y-83580389D01*
X129377735Y-83352903D01*
X129240938Y-83148172D01*
X129066828Y-82974062D01*
X128862097Y-82837265D01*
X128634611Y-82743037D01*
X128393114Y-82695000D01*
X128146886Y-82695000D01*
X127905389Y-82743037D01*
X127677903Y-82837265D01*
X127473172Y-82974062D01*
X127299062Y-83148172D01*
X127162265Y-83352903D01*
X127068037Y-83580389D01*
X127020000Y-83821886D01*
X126980000Y-83821886D01*
X126931963Y-83580389D01*
X126837735Y-83352903D01*
X126700938Y-83148172D01*
X126526828Y-82974062D01*
X126322097Y-82837265D01*
X126094611Y-82743037D01*
X125853114Y-82695000D01*
X125606886Y-82695000D01*
X125365389Y-82743037D01*
X125137903Y-82837265D01*
X124933172Y-82974062D01*
X124759062Y-83148172D01*
X124622265Y-83352903D01*
X124528037Y-83580389D01*
X124480000Y-83821886D01*
X124480000Y-84068114D01*
X124528037Y-84309611D01*
X124622265Y-84537097D01*
X124759062Y-84741828D01*
X124933172Y-84915938D01*
X124970001Y-84940546D01*
X124970001Y-86725988D01*
X124950256Y-86712795D01*
X124761898Y-86634774D01*
X124561939Y-86595000D01*
X124358061Y-86595000D01*
X124158102Y-86634774D01*
X123969744Y-86712795D01*
X123800226Y-86826063D01*
X123756289Y-86870000D01*
X122484801Y-86870000D01*
X123701003Y-85653799D01*
X123730001Y-85630001D01*
X123824974Y-85514276D01*
X123895546Y-85382247D01*
X123939003Y-85238986D01*
X123950000Y-85127333D01*
X123950000Y-85127324D01*
X123953676Y-85090001D01*
X123950000Y-85052678D01*
X123950000Y-84940546D01*
X123986828Y-84915938D01*
X124160938Y-84741828D01*
X124297735Y-84537097D01*
X124391963Y-84309611D01*
X124440000Y-84068114D01*
X124440000Y-83821886D01*
X124391963Y-83580389D01*
X124297735Y-83352903D01*
X124160938Y-83148172D01*
X123986828Y-82974062D01*
X123782097Y-82837265D01*
X123554611Y-82743037D01*
X123313114Y-82695000D01*
X123066886Y-82695000D01*
X122825389Y-82743037D01*
X122597903Y-82837265D01*
X122393172Y-82974062D01*
X122219062Y-83148172D01*
X122082265Y-83352903D01*
X121988037Y-83580389D01*
X121940000Y-83821886D01*
X121940000Y-84068114D01*
X121988037Y-84309611D01*
X122082265Y-84537097D01*
X122219062Y-84741828D01*
X122341216Y-84863982D01*
X121605199Y-85600000D01*
X99763711Y-85600000D01*
X99719774Y-85556063D01*
X99550256Y-85442795D01*
X99361898Y-85364774D01*
X99161939Y-85325000D01*
X98958061Y-85325000D01*
X98758102Y-85364774D01*
X98569744Y-85442795D01*
X98400226Y-85556063D01*
X98256063Y-85700226D01*
X98142795Y-85869744D01*
X98064774Y-86058102D01*
X98025000Y-86258061D01*
X98025000Y-86461939D01*
X98064774Y-86661898D01*
X98142795Y-86850256D01*
X98256063Y-87019774D01*
X98400226Y-87163937D01*
X98569744Y-87277205D01*
X98758102Y-87355226D01*
X98958061Y-87395000D01*
X99161939Y-87395000D01*
X99361898Y-87355226D01*
X99550256Y-87277205D01*
X99719774Y-87163937D01*
X99763711Y-87120000D01*
X104845198Y-87120000D01*
X101088998Y-90876201D01*
X101060000Y-90899999D01*
X101036202Y-90928997D01*
X101036201Y-90928998D01*
X100965026Y-91015724D01*
X100894454Y-91147754D01*
X100850998Y-91291015D01*
X100836324Y-91440000D01*
X100840001Y-91477332D01*
X100840000Y-95256013D01*
X100660890Y-95375691D01*
X100455691Y-95580890D01*
X100330000Y-95768999D01*
X100204309Y-95580890D01*
X99999110Y-95375691D01*
X99757822Y-95214467D01*
X99489717Y-95103414D01*
X99205098Y-95046800D01*
X98914902Y-95046800D01*
X98630283Y-95103414D01*
X98362178Y-95214467D01*
X98120890Y-95375691D01*
X97915691Y-95580890D01*
X97792711Y-95764943D01*
X97787844Y-95755838D01*
X97539975Y-95679630D01*
X96699605Y-96520000D01*
X97539975Y-97360370D01*
X97787844Y-97284162D01*
X97792399Y-97274592D01*
X97915691Y-97459110D01*
X98120890Y-97664309D01*
X98362178Y-97825533D01*
X98630283Y-97936586D01*
X98914902Y-97993200D01*
X99205098Y-97993200D01*
X99489717Y-97936586D01*
X99757822Y-97825533D01*
X99999110Y-97664309D01*
X100204309Y-97459110D01*
X100330000Y-97271001D01*
X100455691Y-97459110D01*
X100660890Y-97664309D01*
X100902178Y-97825533D01*
X101170283Y-97936586D01*
X101454902Y-97993200D01*
X101745098Y-97993200D01*
X102029717Y-97936586D01*
X102297822Y-97825533D01*
X102539110Y-97664309D01*
X102686403Y-97517016D01*
X102712298Y-97602380D01*
X102771263Y-97712694D01*
X102850615Y-97809385D01*
X102947306Y-97888737D01*
X103057620Y-97947702D01*
X103177318Y-97984012D01*
X103301800Y-97996272D01*
X104978200Y-97996272D01*
X105102682Y-97984012D01*
X105222380Y-97947702D01*
X105332694Y-97888737D01*
X105429385Y-97809385D01*
X105508737Y-97712694D01*
X105567702Y-97602380D01*
X105604012Y-97482682D01*
X105616272Y-97358200D01*
X105616272Y-95681800D01*
X105604012Y-95557318D01*
X105567702Y-95437620D01*
X105508737Y-95327306D01*
X105429385Y-95230615D01*
X105332694Y-95151263D01*
X105222380Y-95092298D01*
X105102682Y-95055988D01*
X104978200Y-95043728D01*
X103301800Y-95043728D01*
X103177318Y-95055988D01*
X103057620Y-95092298D01*
X102947306Y-95151263D01*
X102850615Y-95230615D01*
X102771263Y-95327306D01*
X102712298Y-95437620D01*
X102686403Y-95522984D01*
X102539110Y-95375691D01*
X102360000Y-95256013D01*
X102360000Y-91754801D01*
X105724802Y-88390000D01*
X108315987Y-88390000D01*
X108302795Y-88409744D01*
X108224774Y-88598102D01*
X108185000Y-88798061D01*
X108185000Y-89001939D01*
X108224774Y-89201898D01*
X108302795Y-89390256D01*
X108416063Y-89559774D01*
X108560226Y-89703937D01*
X108729744Y-89817205D01*
X108918102Y-89895226D01*
X109118061Y-89935000D01*
X109321939Y-89935000D01*
X109521898Y-89895226D01*
X109710256Y-89817205D01*
X109879774Y-89703937D01*
X109923711Y-89660000D01*
X111056289Y-89660000D01*
X111100226Y-89703937D01*
X111269744Y-89817205D01*
X111458102Y-89895226D01*
X111658061Y-89935000D01*
X111861939Y-89935000D01*
X112061898Y-89895226D01*
X112250256Y-89817205D01*
X112419774Y-89703937D01*
X112563937Y-89559774D01*
X112677205Y-89390256D01*
X112755226Y-89201898D01*
X112795000Y-89001939D01*
X112795000Y-88798061D01*
X112755226Y-88598102D01*
X112677205Y-88409744D01*
X112664013Y-88390000D01*
X123756289Y-88390000D01*
X123800226Y-88433937D01*
X123969744Y-88547205D01*
X124158102Y-88625226D01*
X124358061Y-88665000D01*
X124561939Y-88665000D01*
X124761898Y-88625226D01*
X124950256Y-88547205D01*
X124970000Y-88534012D01*
X124970000Y-89855198D01*
X124145199Y-90680000D01*
X108653711Y-90680000D01*
X108609774Y-90636063D01*
X108440256Y-90522795D01*
X108251898Y-90444774D01*
X108051939Y-90405000D01*
X107848061Y-90405000D01*
X107648102Y-90444774D01*
X107459744Y-90522795D01*
X107290226Y-90636063D01*
X107146063Y-90780226D01*
X107032795Y-90949744D01*
X106954774Y-91138102D01*
X106915000Y-91338061D01*
X106915000Y-91541939D01*
X106954774Y-91741898D01*
X107032795Y-91930256D01*
X107146063Y-92099774D01*
X107290226Y-92243937D01*
X107459744Y-92357205D01*
X107648102Y-92435226D01*
X107848061Y-92475000D01*
X108051939Y-92475000D01*
X108251898Y-92435226D01*
X108440256Y-92357205D01*
X108609774Y-92243937D01*
X108653711Y-92200000D01*
X111195198Y-92200000D01*
X106640199Y-96755000D01*
X106578061Y-96755000D01*
X106378102Y-96794774D01*
X106189744Y-96872795D01*
X106020226Y-96986063D01*
X105876063Y-97130226D01*
X105762795Y-97299744D01*
X105684774Y-97488102D01*
X105645000Y-97688061D01*
X105645000Y-97891939D01*
X105684774Y-98091898D01*
X105762795Y-98280256D01*
X105775987Y-98300000D01*
X87944802Y-98300000D01*
X87304110Y-97659309D01*
X87504309Y-97459110D01*
X87630000Y-97271001D01*
X87755691Y-97459110D01*
X87960890Y-97664309D01*
X88202178Y-97825533D01*
X88470283Y-97936586D01*
X88754902Y-97993200D01*
X89045098Y-97993200D01*
X89329717Y-97936586D01*
X89597822Y-97825533D01*
X89839110Y-97664309D01*
X90044309Y-97459110D01*
X90170000Y-97271001D01*
X90295691Y-97459110D01*
X90500890Y-97664309D01*
X90742178Y-97825533D01*
X91010283Y-97936586D01*
X91294902Y-97993200D01*
X91585098Y-97993200D01*
X91869717Y-97936586D01*
X92137822Y-97825533D01*
X92379110Y-97664309D01*
X92503444Y-97539975D01*
X93139630Y-97539975D01*
X93215838Y-97787844D01*
X93477865Y-97912563D01*
X93759189Y-97983768D01*
X94048999Y-97998719D01*
X94336157Y-97956845D01*
X94609628Y-97859754D01*
X94744162Y-97787844D01*
X94820370Y-97539975D01*
X95679630Y-97539975D01*
X95755838Y-97787844D01*
X96017865Y-97912563D01*
X96299189Y-97983768D01*
X96588999Y-97998719D01*
X96876157Y-97956845D01*
X97149628Y-97859754D01*
X97284162Y-97787844D01*
X97360370Y-97539975D01*
X96520000Y-96699605D01*
X95679630Y-97539975D01*
X94820370Y-97539975D01*
X93980000Y-96699605D01*
X93139630Y-97539975D01*
X92503444Y-97539975D01*
X92584309Y-97459110D01*
X92707289Y-97275057D01*
X92712156Y-97284162D01*
X92960025Y-97360370D01*
X93800395Y-96520000D01*
X94159605Y-96520000D01*
X94999975Y-97360370D01*
X95247844Y-97284162D01*
X95249875Y-97279895D01*
X95252156Y-97284162D01*
X95500025Y-97360370D01*
X96340395Y-96520000D01*
X95500025Y-95679630D01*
X95252156Y-95755838D01*
X95250125Y-95760105D01*
X95247844Y-95755838D01*
X94999975Y-95679630D01*
X94159605Y-96520000D01*
X93800395Y-96520000D01*
X92960025Y-95679630D01*
X92712156Y-95755838D01*
X92707601Y-95765408D01*
X92584309Y-95580890D01*
X92503444Y-95500025D01*
X93139630Y-95500025D01*
X93980000Y-96340395D01*
X94820370Y-95500025D01*
X95679630Y-95500025D01*
X96520000Y-96340395D01*
X97360370Y-95500025D01*
X97284162Y-95252156D01*
X97022135Y-95127437D01*
X96740811Y-95056232D01*
X96451001Y-95041281D01*
X96163843Y-95083155D01*
X95890372Y-95180246D01*
X95755838Y-95252156D01*
X95679630Y-95500025D01*
X94820370Y-95500025D01*
X94744162Y-95252156D01*
X94482135Y-95127437D01*
X94200811Y-95056232D01*
X93911001Y-95041281D01*
X93623843Y-95083155D01*
X93350372Y-95180246D01*
X93215838Y-95252156D01*
X93139630Y-95500025D01*
X92503444Y-95500025D01*
X92379110Y-95375691D01*
X92137822Y-95214467D01*
X91869717Y-95103414D01*
X91585098Y-95046800D01*
X91294902Y-95046800D01*
X91010283Y-95103414D01*
X90742178Y-95214467D01*
X90500890Y-95375691D01*
X90295691Y-95580890D01*
X90170000Y-95768999D01*
X90044309Y-95580890D01*
X89839110Y-95375691D01*
X89597822Y-95214467D01*
X89329717Y-95103414D01*
X89045098Y-95046800D01*
X88754902Y-95046800D01*
X88470283Y-95103414D01*
X88202178Y-95214467D01*
X87960890Y-95375691D01*
X87755691Y-95580890D01*
X87630000Y-95768999D01*
X87504309Y-95580890D01*
X87299110Y-95375691D01*
X87057822Y-95214467D01*
X86789717Y-95103414D01*
X86505098Y-95046800D01*
X86214902Y-95046800D01*
X85930283Y-95103414D01*
X85662178Y-95214467D01*
X85420890Y-95375691D01*
X85215691Y-95580890D01*
X85054467Y-95822178D01*
X84943414Y-96090283D01*
X84886800Y-96374902D01*
X84886800Y-96665098D01*
X84928825Y-96876373D01*
X83947000Y-97858198D01*
X83947000Y-94467395D01*
X84093979Y-94614374D01*
X84312478Y-94573159D01*
X84408359Y-94360335D01*
X84460878Y-94132895D01*
X84468016Y-93899579D01*
X84429500Y-93669354D01*
X84346808Y-93451066D01*
X84312478Y-93386841D01*
X84093979Y-93345626D01*
X83947000Y-93492605D01*
X83947000Y-87528061D01*
X85325000Y-87528061D01*
X85325000Y-87731939D01*
X85364774Y-87931898D01*
X85442795Y-88120256D01*
X85556063Y-88289774D01*
X85600000Y-88333711D01*
X85600001Y-90736288D01*
X85556063Y-90780226D01*
X85442795Y-90949744D01*
X85364774Y-91138102D01*
X85325000Y-91338061D01*
X85325000Y-91541939D01*
X85364774Y-91741898D01*
X85442795Y-91930256D01*
X85556063Y-92099774D01*
X85700226Y-92243937D01*
X85869744Y-92357205D01*
X86058102Y-92435226D01*
X86258061Y-92475000D01*
X86461939Y-92475000D01*
X86661898Y-92435226D01*
X86850256Y-92357205D01*
X87019774Y-92243937D01*
X87163937Y-92099774D01*
X87277205Y-91930256D01*
X87355226Y-91741898D01*
X87395000Y-91541939D01*
X87395000Y-91338061D01*
X87355226Y-91138102D01*
X87277205Y-90949744D01*
X87163937Y-90780226D01*
X87120000Y-90736289D01*
X87120000Y-88333711D01*
X87163937Y-88289774D01*
X87277205Y-88120256D01*
X87355226Y-87931898D01*
X87395000Y-87731939D01*
X87395000Y-87528061D01*
X87355226Y-87328102D01*
X87277205Y-87139744D01*
X87163937Y-86970226D01*
X87019774Y-86826063D01*
X86850256Y-86712795D01*
X86661898Y-86634774D01*
X86461939Y-86595000D01*
X86258061Y-86595000D01*
X86058102Y-86634774D01*
X85869744Y-86712795D01*
X85700226Y-86826063D01*
X85556063Y-86970226D01*
X85442795Y-87139744D01*
X85364774Y-87328102D01*
X85325000Y-87528061D01*
X83947000Y-87528061D01*
X83947000Y-84805495D01*
X94569110Y-84805495D01*
X94618243Y-85030605D01*
X94842173Y-85132995D01*
X95081775Y-85189731D01*
X95327843Y-85198634D01*
X95570918Y-85159359D01*
X95801661Y-85073417D01*
X95881757Y-85030605D01*
X95930890Y-84805495D01*
X97109110Y-84805495D01*
X97158243Y-85030605D01*
X97382173Y-85132995D01*
X97621775Y-85189731D01*
X97867843Y-85198634D01*
X98110918Y-85159359D01*
X98341661Y-85073417D01*
X98421757Y-85030605D01*
X98470890Y-84805495D01*
X99649110Y-84805495D01*
X99698243Y-85030605D01*
X99922173Y-85132995D01*
X100161775Y-85189731D01*
X100407843Y-85198634D01*
X100650918Y-85159359D01*
X100881661Y-85073417D01*
X100961757Y-85030605D01*
X101010890Y-84805495D01*
X100330000Y-84124605D01*
X99649110Y-84805495D01*
X98470890Y-84805495D01*
X97790000Y-84124605D01*
X97109110Y-84805495D01*
X95930890Y-84805495D01*
X95250000Y-84124605D01*
X94569110Y-84805495D01*
X83947000Y-84805495D01*
X83947000Y-84022843D01*
X93996366Y-84022843D01*
X94035641Y-84265918D01*
X94121583Y-84496661D01*
X94164395Y-84576757D01*
X94389505Y-84625890D01*
X95070395Y-83945000D01*
X95429605Y-83945000D01*
X96110495Y-84625890D01*
X96335605Y-84576757D01*
X96437995Y-84352827D01*
X96494731Y-84113225D01*
X96498001Y-84022843D01*
X96536366Y-84022843D01*
X96575641Y-84265918D01*
X96661583Y-84496661D01*
X96704395Y-84576757D01*
X96929505Y-84625890D01*
X97610395Y-83945000D01*
X97969605Y-83945000D01*
X98650495Y-84625890D01*
X98875605Y-84576757D01*
X98977995Y-84352827D01*
X99034731Y-84113225D01*
X99038001Y-84022843D01*
X99076366Y-84022843D01*
X99115641Y-84265918D01*
X99201583Y-84496661D01*
X99244395Y-84576757D01*
X99469505Y-84625890D01*
X100150395Y-83945000D01*
X100509605Y-83945000D01*
X101190495Y-84625890D01*
X101415605Y-84576757D01*
X101517995Y-84352827D01*
X101574731Y-84113225D01*
X101583634Y-83867157D01*
X101576320Y-83821886D01*
X101620000Y-83821886D01*
X101620000Y-84068114D01*
X101668037Y-84309611D01*
X101762265Y-84537097D01*
X101899062Y-84741828D01*
X102073172Y-84915938D01*
X102277903Y-85052735D01*
X102505389Y-85146963D01*
X102746886Y-85195000D01*
X102993114Y-85195000D01*
X103234611Y-85146963D01*
X103462097Y-85052735D01*
X103666828Y-84915938D01*
X103840938Y-84741828D01*
X103977735Y-84537097D01*
X104071963Y-84309611D01*
X104120000Y-84068114D01*
X104120000Y-83821886D01*
X104160000Y-83821886D01*
X104160000Y-84068114D01*
X104208037Y-84309611D01*
X104302265Y-84537097D01*
X104439062Y-84741828D01*
X104613172Y-84915938D01*
X104817903Y-85052735D01*
X105045389Y-85146963D01*
X105286886Y-85195000D01*
X105533114Y-85195000D01*
X105774611Y-85146963D01*
X106002097Y-85052735D01*
X106206828Y-84915938D01*
X106380938Y-84741828D01*
X106517735Y-84537097D01*
X106611963Y-84309611D01*
X106660000Y-84068114D01*
X106660000Y-83821886D01*
X106700000Y-83821886D01*
X106700000Y-84068114D01*
X106748037Y-84309611D01*
X106842265Y-84537097D01*
X106979062Y-84741828D01*
X107153172Y-84915938D01*
X107357903Y-85052735D01*
X107585389Y-85146963D01*
X107826886Y-85195000D01*
X108073114Y-85195000D01*
X108314611Y-85146963D01*
X108542097Y-85052735D01*
X108746828Y-84915938D01*
X108920938Y-84741828D01*
X109057735Y-84537097D01*
X109151963Y-84309611D01*
X109200000Y-84068114D01*
X109200000Y-83821886D01*
X109240000Y-83821886D01*
X109240000Y-84068114D01*
X109288037Y-84309611D01*
X109382265Y-84537097D01*
X109519062Y-84741828D01*
X109693172Y-84915938D01*
X109897903Y-85052735D01*
X110125389Y-85146963D01*
X110366886Y-85195000D01*
X110613114Y-85195000D01*
X110854611Y-85146963D01*
X111082097Y-85052735D01*
X111286828Y-84915938D01*
X111460938Y-84741828D01*
X111597735Y-84537097D01*
X111691963Y-84309611D01*
X111740000Y-84068114D01*
X111740000Y-83821886D01*
X111780000Y-83821886D01*
X111780000Y-84068114D01*
X111828037Y-84309611D01*
X111922265Y-84537097D01*
X112059062Y-84741828D01*
X112233172Y-84915938D01*
X112437903Y-85052735D01*
X112665389Y-85146963D01*
X112906886Y-85195000D01*
X113153114Y-85195000D01*
X113394611Y-85146963D01*
X113622097Y-85052735D01*
X113826828Y-84915938D01*
X114000938Y-84741828D01*
X114137735Y-84537097D01*
X114231963Y-84309611D01*
X114280000Y-84068114D01*
X114280000Y-83821886D01*
X114320000Y-83821886D01*
X114320000Y-84068114D01*
X114368037Y-84309611D01*
X114462265Y-84537097D01*
X114599062Y-84741828D01*
X114773172Y-84915938D01*
X114977903Y-85052735D01*
X115205389Y-85146963D01*
X115446886Y-85195000D01*
X115693114Y-85195000D01*
X115934611Y-85146963D01*
X116162097Y-85052735D01*
X116366828Y-84915938D01*
X116540938Y-84741828D01*
X116677735Y-84537097D01*
X116771963Y-84309611D01*
X116820000Y-84068114D01*
X116820000Y-83821886D01*
X116860000Y-83821886D01*
X116860000Y-84068114D01*
X116908037Y-84309611D01*
X117002265Y-84537097D01*
X117139062Y-84741828D01*
X117313172Y-84915938D01*
X117517903Y-85052735D01*
X117745389Y-85146963D01*
X117986886Y-85195000D01*
X118233114Y-85195000D01*
X118474611Y-85146963D01*
X118702097Y-85052735D01*
X118906828Y-84915938D01*
X119080938Y-84741828D01*
X119217735Y-84537097D01*
X119311963Y-84309611D01*
X119360000Y-84068114D01*
X119360000Y-83821886D01*
X119400000Y-83821886D01*
X119400000Y-84068114D01*
X119448037Y-84309611D01*
X119542265Y-84537097D01*
X119679062Y-84741828D01*
X119853172Y-84915938D01*
X120057903Y-85052735D01*
X120285389Y-85146963D01*
X120526886Y-85195000D01*
X120773114Y-85195000D01*
X121014611Y-85146963D01*
X121242097Y-85052735D01*
X121446828Y-84915938D01*
X121620938Y-84741828D01*
X121757735Y-84537097D01*
X121851963Y-84309611D01*
X121900000Y-84068114D01*
X121900000Y-83821886D01*
X121851963Y-83580389D01*
X121757735Y-83352903D01*
X121620938Y-83148172D01*
X121446828Y-82974062D01*
X121242097Y-82837265D01*
X121014611Y-82743037D01*
X120773114Y-82695000D01*
X120526886Y-82695000D01*
X120285389Y-82743037D01*
X120057903Y-82837265D01*
X119853172Y-82974062D01*
X119679062Y-83148172D01*
X119542265Y-83352903D01*
X119448037Y-83580389D01*
X119400000Y-83821886D01*
X119360000Y-83821886D01*
X119311963Y-83580389D01*
X119217735Y-83352903D01*
X119080938Y-83148172D01*
X118906828Y-82974062D01*
X118702097Y-82837265D01*
X118474611Y-82743037D01*
X118233114Y-82695000D01*
X117986886Y-82695000D01*
X117745389Y-82743037D01*
X117517903Y-82837265D01*
X117313172Y-82974062D01*
X117139062Y-83148172D01*
X117002265Y-83352903D01*
X116908037Y-83580389D01*
X116860000Y-83821886D01*
X116820000Y-83821886D01*
X116771963Y-83580389D01*
X116677735Y-83352903D01*
X116540938Y-83148172D01*
X116366828Y-82974062D01*
X116162097Y-82837265D01*
X115934611Y-82743037D01*
X115693114Y-82695000D01*
X115446886Y-82695000D01*
X115205389Y-82743037D01*
X114977903Y-82837265D01*
X114773172Y-82974062D01*
X114599062Y-83148172D01*
X114462265Y-83352903D01*
X114368037Y-83580389D01*
X114320000Y-83821886D01*
X114280000Y-83821886D01*
X114231963Y-83580389D01*
X114137735Y-83352903D01*
X114000938Y-83148172D01*
X113826828Y-82974062D01*
X113622097Y-82837265D01*
X113394611Y-82743037D01*
X113153114Y-82695000D01*
X112906886Y-82695000D01*
X112665389Y-82743037D01*
X112437903Y-82837265D01*
X112233172Y-82974062D01*
X112059062Y-83148172D01*
X111922265Y-83352903D01*
X111828037Y-83580389D01*
X111780000Y-83821886D01*
X111740000Y-83821886D01*
X111691963Y-83580389D01*
X111597735Y-83352903D01*
X111460938Y-83148172D01*
X111286828Y-82974062D01*
X111082097Y-82837265D01*
X110854611Y-82743037D01*
X110613114Y-82695000D01*
X110366886Y-82695000D01*
X110125389Y-82743037D01*
X109897903Y-82837265D01*
X109693172Y-82974062D01*
X109519062Y-83148172D01*
X109382265Y-83352903D01*
X109288037Y-83580389D01*
X109240000Y-83821886D01*
X109200000Y-83821886D01*
X109151963Y-83580389D01*
X109057735Y-83352903D01*
X108920938Y-83148172D01*
X108746828Y-82974062D01*
X108542097Y-82837265D01*
X108314611Y-82743037D01*
X108073114Y-82695000D01*
X107826886Y-82695000D01*
X107585389Y-82743037D01*
X107357903Y-82837265D01*
X107153172Y-82974062D01*
X106979062Y-83148172D01*
X106842265Y-83352903D01*
X106748037Y-83580389D01*
X106700000Y-83821886D01*
X106660000Y-83821886D01*
X106611963Y-83580389D01*
X106517735Y-83352903D01*
X106380938Y-83148172D01*
X106206828Y-82974062D01*
X106002097Y-82837265D01*
X105774611Y-82743037D01*
X105533114Y-82695000D01*
X105286886Y-82695000D01*
X105045389Y-82743037D01*
X104817903Y-82837265D01*
X104613172Y-82974062D01*
X104439062Y-83148172D01*
X104302265Y-83352903D01*
X104208037Y-83580389D01*
X104160000Y-83821886D01*
X104120000Y-83821886D01*
X104071963Y-83580389D01*
X103977735Y-83352903D01*
X103840938Y-83148172D01*
X103666828Y-82974062D01*
X103462097Y-82837265D01*
X103234611Y-82743037D01*
X102993114Y-82695000D01*
X102746886Y-82695000D01*
X102505389Y-82743037D01*
X102277903Y-82837265D01*
X102073172Y-82974062D01*
X101899062Y-83148172D01*
X101762265Y-83352903D01*
X101668037Y-83580389D01*
X101620000Y-83821886D01*
X101576320Y-83821886D01*
X101544359Y-83624082D01*
X101458417Y-83393339D01*
X101415605Y-83313243D01*
X101190495Y-83264110D01*
X100509605Y-83945000D01*
X100150395Y-83945000D01*
X99469505Y-83264110D01*
X99244395Y-83313243D01*
X99142005Y-83537173D01*
X99085269Y-83776775D01*
X99076366Y-84022843D01*
X99038001Y-84022843D01*
X99043634Y-83867157D01*
X99004359Y-83624082D01*
X98918417Y-83393339D01*
X98875605Y-83313243D01*
X98650495Y-83264110D01*
X97969605Y-83945000D01*
X97610395Y-83945000D01*
X96929505Y-83264110D01*
X96704395Y-83313243D01*
X96602005Y-83537173D01*
X96545269Y-83776775D01*
X96536366Y-84022843D01*
X96498001Y-84022843D01*
X96503634Y-83867157D01*
X96464359Y-83624082D01*
X96378417Y-83393339D01*
X96335605Y-83313243D01*
X96110495Y-83264110D01*
X95429605Y-83945000D01*
X95070395Y-83945000D01*
X94389505Y-83264110D01*
X94164395Y-83313243D01*
X94062005Y-83537173D01*
X94005269Y-83776775D01*
X93996366Y-84022843D01*
X83947000Y-84022843D01*
X83947000Y-83084505D01*
X94569110Y-83084505D01*
X95250000Y-83765395D01*
X95930890Y-83084505D01*
X97109110Y-83084505D01*
X97790000Y-83765395D01*
X98470890Y-83084505D01*
X99649110Y-83084505D01*
X100330000Y-83765395D01*
X101010890Y-83084505D01*
X100961757Y-82859395D01*
X100737827Y-82757005D01*
X100498225Y-82700269D01*
X100252157Y-82691366D01*
X100009082Y-82730641D01*
X99778339Y-82816583D01*
X99698243Y-82859395D01*
X99649110Y-83084505D01*
X98470890Y-83084505D01*
X98421757Y-82859395D01*
X98197827Y-82757005D01*
X97958225Y-82700269D01*
X97712157Y-82691366D01*
X97469082Y-82730641D01*
X97238339Y-82816583D01*
X97158243Y-82859395D01*
X97109110Y-83084505D01*
X95930890Y-83084505D01*
X95881757Y-82859395D01*
X95657827Y-82757005D01*
X95418225Y-82700269D01*
X95172157Y-82691366D01*
X94929082Y-82730641D01*
X94698339Y-82816583D01*
X94618243Y-82859395D01*
X94569110Y-83084505D01*
X83947000Y-83084505D01*
X83947000Y-75951886D01*
X94000000Y-75951886D01*
X94000000Y-76198114D01*
X94048037Y-76439611D01*
X94142265Y-76667097D01*
X94279062Y-76871828D01*
X94453172Y-77045938D01*
X94657903Y-77182735D01*
X94885389Y-77276963D01*
X95126886Y-77325000D01*
X95373114Y-77325000D01*
X95614611Y-77276963D01*
X95842097Y-77182735D01*
X96046828Y-77045938D01*
X96220938Y-76871828D01*
X96357735Y-76667097D01*
X96451963Y-76439611D01*
X96500000Y-76198114D01*
X96500000Y-75951886D01*
X96540000Y-75951886D01*
X96540000Y-76198114D01*
X96588037Y-76439611D01*
X96682265Y-76667097D01*
X96819062Y-76871828D01*
X96993172Y-77045938D01*
X97197903Y-77182735D01*
X97425389Y-77276963D01*
X97666886Y-77325000D01*
X97913114Y-77325000D01*
X98154611Y-77276963D01*
X98382097Y-77182735D01*
X98586828Y-77045938D01*
X98760938Y-76871828D01*
X98897735Y-76667097D01*
X98991963Y-76439611D01*
X99040000Y-76198114D01*
X99040000Y-75951886D01*
X99080000Y-75951886D01*
X99080000Y-76198114D01*
X99128037Y-76439611D01*
X99222265Y-76667097D01*
X99359062Y-76871828D01*
X99533172Y-77045938D01*
X99737903Y-77182735D01*
X99965389Y-77276963D01*
X100206886Y-77325000D01*
X100453114Y-77325000D01*
X100694611Y-77276963D01*
X100922097Y-77182735D01*
X101126828Y-77045938D01*
X101300938Y-76871828D01*
X101437735Y-76667097D01*
X101531963Y-76439611D01*
X101580000Y-76198114D01*
X101580000Y-75951886D01*
X101620000Y-75951886D01*
X101620000Y-76198114D01*
X101668037Y-76439611D01*
X101762265Y-76667097D01*
X101899062Y-76871828D01*
X102073172Y-77045938D01*
X102277903Y-77182735D01*
X102505389Y-77276963D01*
X102746886Y-77325000D01*
X102993114Y-77325000D01*
X103234611Y-77276963D01*
X103462097Y-77182735D01*
X103666828Y-77045938D01*
X103777271Y-76935495D01*
X104729110Y-76935495D01*
X104778243Y-77160605D01*
X105002173Y-77262995D01*
X105241775Y-77319731D01*
X105487843Y-77328634D01*
X105730918Y-77289359D01*
X105961661Y-77203417D01*
X106041757Y-77160605D01*
X106090890Y-76935495D01*
X105410000Y-76254605D01*
X104729110Y-76935495D01*
X103777271Y-76935495D01*
X103840938Y-76871828D01*
X103977735Y-76667097D01*
X104071963Y-76439611D01*
X104120000Y-76198114D01*
X104120000Y-76152843D01*
X104156366Y-76152843D01*
X104195641Y-76395918D01*
X104281583Y-76626661D01*
X104324395Y-76706757D01*
X104549505Y-76755890D01*
X105230395Y-76075000D01*
X105589605Y-76075000D01*
X106270495Y-76755890D01*
X106495605Y-76706757D01*
X106597995Y-76482827D01*
X106654731Y-76243225D01*
X106663634Y-75997157D01*
X106656320Y-75951886D01*
X106700000Y-75951886D01*
X106700000Y-76198114D01*
X106748037Y-76439611D01*
X106842265Y-76667097D01*
X106979062Y-76871828D01*
X107153172Y-77045938D01*
X107357903Y-77182735D01*
X107585389Y-77276963D01*
X107826886Y-77325000D01*
X108073114Y-77325000D01*
X108314611Y-77276963D01*
X108542097Y-77182735D01*
X108746828Y-77045938D01*
X108920938Y-76871828D01*
X109057735Y-76667097D01*
X109151963Y-76439611D01*
X109200000Y-76198114D01*
X109200000Y-75951886D01*
X109240000Y-75951886D01*
X109240000Y-76198114D01*
X109288037Y-76439611D01*
X109382265Y-76667097D01*
X109519062Y-76871828D01*
X109693172Y-77045938D01*
X109897903Y-77182735D01*
X110125389Y-77276963D01*
X110366886Y-77325000D01*
X110613114Y-77325000D01*
X110854611Y-77276963D01*
X111082097Y-77182735D01*
X111286828Y-77045938D01*
X111460938Y-76871828D01*
X111597735Y-76667097D01*
X111691963Y-76439611D01*
X111740000Y-76198114D01*
X111740000Y-75951886D01*
X111780000Y-75951886D01*
X111780000Y-76198114D01*
X111828037Y-76439611D01*
X111922265Y-76667097D01*
X112059062Y-76871828D01*
X112233172Y-77045938D01*
X112437903Y-77182735D01*
X112665389Y-77276963D01*
X112906886Y-77325000D01*
X113153114Y-77325000D01*
X113394611Y-77276963D01*
X113622097Y-77182735D01*
X113826828Y-77045938D01*
X114000938Y-76871828D01*
X114137735Y-76667097D01*
X114231963Y-76439611D01*
X114280000Y-76198114D01*
X114280000Y-75951886D01*
X114320000Y-75951886D01*
X114320000Y-76198114D01*
X114368037Y-76439611D01*
X114462265Y-76667097D01*
X114599062Y-76871828D01*
X114773172Y-77045938D01*
X114977903Y-77182735D01*
X115205389Y-77276963D01*
X115446886Y-77325000D01*
X115693114Y-77325000D01*
X115934611Y-77276963D01*
X116162097Y-77182735D01*
X116366828Y-77045938D01*
X116540938Y-76871828D01*
X116677735Y-76667097D01*
X116771963Y-76439611D01*
X116820000Y-76198114D01*
X116820000Y-75951886D01*
X116860000Y-75951886D01*
X116860000Y-76198114D01*
X116908037Y-76439611D01*
X117002265Y-76667097D01*
X117139062Y-76871828D01*
X117313172Y-77045938D01*
X117517903Y-77182735D01*
X117745389Y-77276963D01*
X117986886Y-77325000D01*
X118233114Y-77325000D01*
X118474611Y-77276963D01*
X118702097Y-77182735D01*
X118906828Y-77045938D01*
X119080938Y-76871828D01*
X119217735Y-76667097D01*
X119311963Y-76439611D01*
X119360000Y-76198114D01*
X119360000Y-75951886D01*
X119400000Y-75951886D01*
X119400000Y-76198114D01*
X119448037Y-76439611D01*
X119542265Y-76667097D01*
X119679062Y-76871828D01*
X119853172Y-77045938D01*
X120057903Y-77182735D01*
X120285389Y-77276963D01*
X120526886Y-77325000D01*
X120773114Y-77325000D01*
X121014611Y-77276963D01*
X121242097Y-77182735D01*
X121446828Y-77045938D01*
X121620938Y-76871828D01*
X121757735Y-76667097D01*
X121851963Y-76439611D01*
X121900000Y-76198114D01*
X121900000Y-75951886D01*
X121940000Y-75951886D01*
X121940000Y-76198114D01*
X121988037Y-76439611D01*
X122082265Y-76667097D01*
X122219062Y-76871828D01*
X122393172Y-77045938D01*
X122597903Y-77182735D01*
X122825389Y-77276963D01*
X123066886Y-77325000D01*
X123313114Y-77325000D01*
X123554611Y-77276963D01*
X123782097Y-77182735D01*
X123986828Y-77045938D01*
X124160938Y-76871828D01*
X124297735Y-76667097D01*
X124391963Y-76439611D01*
X124440000Y-76198114D01*
X124440000Y-75951886D01*
X124480000Y-75951886D01*
X124480000Y-76198114D01*
X124528037Y-76439611D01*
X124622265Y-76667097D01*
X124759062Y-76871828D01*
X124933172Y-77045938D01*
X125137903Y-77182735D01*
X125365389Y-77276963D01*
X125606886Y-77325000D01*
X125853114Y-77325000D01*
X126094611Y-77276963D01*
X126322097Y-77182735D01*
X126526828Y-77045938D01*
X126700938Y-76871828D01*
X126837735Y-76667097D01*
X126931963Y-76439611D01*
X126980000Y-76198114D01*
X126980000Y-75951886D01*
X126931963Y-75710389D01*
X126837735Y-75482903D01*
X126822432Y-75460000D01*
X127016928Y-75460000D01*
X127016928Y-76690000D01*
X127029188Y-76814482D01*
X127065498Y-76934180D01*
X127124463Y-77044494D01*
X127203815Y-77141185D01*
X127300506Y-77220537D01*
X127410820Y-77279502D01*
X127530518Y-77315812D01*
X127655000Y-77328072D01*
X128885000Y-77328072D01*
X129009482Y-77315812D01*
X129129180Y-77279502D01*
X129239494Y-77220537D01*
X129336185Y-77141185D01*
X129415537Y-77044494D01*
X129474502Y-76934180D01*
X129510812Y-76814482D01*
X129523072Y-76690000D01*
X129523072Y-75460000D01*
X129510812Y-75335518D01*
X129474502Y-75215820D01*
X129415537Y-75105506D01*
X129336185Y-75008815D01*
X129239494Y-74929463D01*
X129129180Y-74870498D01*
X129009482Y-74834188D01*
X128885000Y-74821928D01*
X127655000Y-74821928D01*
X127530518Y-74834188D01*
X127410820Y-74870498D01*
X127300506Y-74929463D01*
X127203815Y-75008815D01*
X127124463Y-75105506D01*
X127065498Y-75215820D01*
X127029188Y-75335518D01*
X127016928Y-75460000D01*
X126822432Y-75460000D01*
X126700938Y-75278172D01*
X126526828Y-75104062D01*
X126322097Y-74967265D01*
X126094611Y-74873037D01*
X125853114Y-74825000D01*
X125606886Y-74825000D01*
X125365389Y-74873037D01*
X125137903Y-74967265D01*
X124933172Y-75104062D01*
X124759062Y-75278172D01*
X124622265Y-75482903D01*
X124528037Y-75710389D01*
X124480000Y-75951886D01*
X124440000Y-75951886D01*
X124391963Y-75710389D01*
X124297735Y-75482903D01*
X124160938Y-75278172D01*
X123986828Y-75104062D01*
X123782097Y-74967265D01*
X123554611Y-74873037D01*
X123313114Y-74825000D01*
X123066886Y-74825000D01*
X122825389Y-74873037D01*
X122597903Y-74967265D01*
X122393172Y-75104062D01*
X122219062Y-75278172D01*
X122082265Y-75482903D01*
X121988037Y-75710389D01*
X121940000Y-75951886D01*
X121900000Y-75951886D01*
X121851963Y-75710389D01*
X121757735Y-75482903D01*
X121620938Y-75278172D01*
X121446828Y-75104062D01*
X121242097Y-74967265D01*
X121014611Y-74873037D01*
X120773114Y-74825000D01*
X120526886Y-74825000D01*
X120285389Y-74873037D01*
X120057903Y-74967265D01*
X119853172Y-75104062D01*
X119679062Y-75278172D01*
X119542265Y-75482903D01*
X119448037Y-75710389D01*
X119400000Y-75951886D01*
X119360000Y-75951886D01*
X119311963Y-75710389D01*
X119217735Y-75482903D01*
X119080938Y-75278172D01*
X118906828Y-75104062D01*
X118702097Y-74967265D01*
X118474611Y-74873037D01*
X118233114Y-74825000D01*
X117986886Y-74825000D01*
X117745389Y-74873037D01*
X117517903Y-74967265D01*
X117313172Y-75104062D01*
X117139062Y-75278172D01*
X117002265Y-75482903D01*
X116908037Y-75710389D01*
X116860000Y-75951886D01*
X116820000Y-75951886D01*
X116771963Y-75710389D01*
X116677735Y-75482903D01*
X116540938Y-75278172D01*
X116366828Y-75104062D01*
X116162097Y-74967265D01*
X115934611Y-74873037D01*
X115693114Y-74825000D01*
X115446886Y-74825000D01*
X115205389Y-74873037D01*
X114977903Y-74967265D01*
X114773172Y-75104062D01*
X114599062Y-75278172D01*
X114462265Y-75482903D01*
X114368037Y-75710389D01*
X114320000Y-75951886D01*
X114280000Y-75951886D01*
X114231963Y-75710389D01*
X114137735Y-75482903D01*
X114000938Y-75278172D01*
X113826828Y-75104062D01*
X113622097Y-74967265D01*
X113394611Y-74873037D01*
X113153114Y-74825000D01*
X112906886Y-74825000D01*
X112665389Y-74873037D01*
X112437903Y-74967265D01*
X112233172Y-75104062D01*
X112059062Y-75278172D01*
X111922265Y-75482903D01*
X111828037Y-75710389D01*
X111780000Y-75951886D01*
X111740000Y-75951886D01*
X111691963Y-75710389D01*
X111597735Y-75482903D01*
X111460938Y-75278172D01*
X111286828Y-75104062D01*
X111082097Y-74967265D01*
X110854611Y-74873037D01*
X110613114Y-74825000D01*
X110366886Y-74825000D01*
X110125389Y-74873037D01*
X109897903Y-74967265D01*
X109693172Y-75104062D01*
X109519062Y-75278172D01*
X109382265Y-75482903D01*
X109288037Y-75710389D01*
X109240000Y-75951886D01*
X109200000Y-75951886D01*
X109151963Y-75710389D01*
X109057735Y-75482903D01*
X108920938Y-75278172D01*
X108746828Y-75104062D01*
X108542097Y-74967265D01*
X108314611Y-74873037D01*
X108073114Y-74825000D01*
X107826886Y-74825000D01*
X107585389Y-74873037D01*
X107357903Y-74967265D01*
X107153172Y-75104062D01*
X106979062Y-75278172D01*
X106842265Y-75482903D01*
X106748037Y-75710389D01*
X106700000Y-75951886D01*
X106656320Y-75951886D01*
X106624359Y-75754082D01*
X106538417Y-75523339D01*
X106495605Y-75443243D01*
X106270495Y-75394110D01*
X105589605Y-76075000D01*
X105230395Y-76075000D01*
X104549505Y-75394110D01*
X104324395Y-75443243D01*
X104222005Y-75667173D01*
X104165269Y-75906775D01*
X104156366Y-76152843D01*
X104120000Y-76152843D01*
X104120000Y-75951886D01*
X104071963Y-75710389D01*
X103977735Y-75482903D01*
X103840938Y-75278172D01*
X103777271Y-75214505D01*
X104729110Y-75214505D01*
X105410000Y-75895395D01*
X106090890Y-75214505D01*
X106041757Y-74989395D01*
X105817827Y-74887005D01*
X105578225Y-74830269D01*
X105332157Y-74821366D01*
X105089082Y-74860641D01*
X104858339Y-74946583D01*
X104778243Y-74989395D01*
X104729110Y-75214505D01*
X103777271Y-75214505D01*
X103666828Y-75104062D01*
X103462097Y-74967265D01*
X103234611Y-74873037D01*
X102993114Y-74825000D01*
X102746886Y-74825000D01*
X102505389Y-74873037D01*
X102277903Y-74967265D01*
X102073172Y-75104062D01*
X101899062Y-75278172D01*
X101762265Y-75482903D01*
X101668037Y-75710389D01*
X101620000Y-75951886D01*
X101580000Y-75951886D01*
X101531963Y-75710389D01*
X101437735Y-75482903D01*
X101300938Y-75278172D01*
X101126828Y-75104062D01*
X100922097Y-74967265D01*
X100694611Y-74873037D01*
X100453114Y-74825000D01*
X100206886Y-74825000D01*
X99965389Y-74873037D01*
X99737903Y-74967265D01*
X99533172Y-75104062D01*
X99359062Y-75278172D01*
X99222265Y-75482903D01*
X99128037Y-75710389D01*
X99080000Y-75951886D01*
X99040000Y-75951886D01*
X98991963Y-75710389D01*
X98897735Y-75482903D01*
X98760938Y-75278172D01*
X98586828Y-75104062D01*
X98382097Y-74967265D01*
X98154611Y-74873037D01*
X97913114Y-74825000D01*
X97666886Y-74825000D01*
X97425389Y-74873037D01*
X97197903Y-74967265D01*
X96993172Y-75104062D01*
X96819062Y-75278172D01*
X96682265Y-75482903D01*
X96588037Y-75710389D01*
X96540000Y-75951886D01*
X96500000Y-75951886D01*
X96451963Y-75710389D01*
X96357735Y-75482903D01*
X96220938Y-75278172D01*
X96046828Y-75104062D01*
X95842097Y-74967265D01*
X95614611Y-74873037D01*
X95373114Y-74825000D01*
X95126886Y-74825000D01*
X94885389Y-74873037D01*
X94657903Y-74967265D01*
X94453172Y-75104062D01*
X94279062Y-75278172D01*
X94142265Y-75482903D01*
X94048037Y-75710389D01*
X94000000Y-75951886D01*
X83947000Y-75951886D01*
X83947000Y-71247000D01*
X142113000Y-71247000D01*
X142113000Y-99194273D01*
G37*
X142113000Y-99194273D02*
X142054984Y-99085734D01*
X142041821Y-99069695D01*
X141983809Y-98999006D01*
X141983805Y-98999002D01*
X141960011Y-98970009D01*
X141931019Y-98946216D01*
X141083793Y-98098992D01*
X141059991Y-98069989D01*
X140944266Y-97975016D01*
X140812237Y-97904444D01*
X140668976Y-97860987D01*
X140557323Y-97849990D01*
X140557312Y-97849990D01*
X140519990Y-97846314D01*
X140482668Y-97849990D01*
X139669908Y-97849990D01*
X139719385Y-97809385D01*
X139798737Y-97712694D01*
X139857702Y-97602380D01*
X139894012Y-97482682D01*
X139906272Y-97358200D01*
X139906272Y-95681800D01*
X139894012Y-95557318D01*
X139857702Y-95437620D01*
X139798737Y-95327306D01*
X139719385Y-95230615D01*
X139622694Y-95151263D01*
X139512380Y-95092298D01*
X139392682Y-95055988D01*
X139268200Y-95043728D01*
X137591800Y-95043728D01*
X137467318Y-95055988D01*
X137347620Y-95092298D01*
X137237306Y-95151263D01*
X137140615Y-95230615D01*
X137061263Y-95327306D01*
X137002298Y-95437620D01*
X136976403Y-95522984D01*
X136829110Y-95375691D01*
X136587822Y-95214467D01*
X136319717Y-95103414D01*
X136035098Y-95046800D01*
X135744902Y-95046800D01*
X135460283Y-95103414D01*
X135192178Y-95214467D01*
X134950890Y-95375691D01*
X134745691Y-95580890D01*
X134620000Y-95768999D01*
X134494309Y-95580890D01*
X134289110Y-95375691D01*
X134047822Y-95214467D01*
X133779717Y-95103414D01*
X133495098Y-95046800D01*
X133204902Y-95046800D01*
X132920283Y-95103414D01*
X132652178Y-95214467D01*
X132410890Y-95375691D01*
X132205691Y-95580890D01*
X132082711Y-95764943D01*
X132077844Y-95755838D01*
X131829975Y-95679630D01*
X130989605Y-96520000D01*
X131829975Y-97360370D01*
X132077844Y-97284162D01*
X132082399Y-97274592D01*
X132205691Y-97459110D01*
X132410890Y-97664309D01*
X132652178Y-97825533D01*
X132920283Y-97936586D01*
X133204902Y-97993200D01*
X133495098Y-97993200D01*
X133706373Y-97951175D01*
X134055198Y-98300000D01*
X126490000Y-98300000D01*
X126490000Y-97783987D01*
X126669110Y-97664309D01*
X126793444Y-97539975D01*
X127429630Y-97539975D01*
X127505838Y-97787844D01*
X127767865Y-97912563D01*
X128049189Y-97983768D01*
X128338999Y-97998719D01*
X128626157Y-97956845D01*
X128899628Y-97859754D01*
X129034162Y-97787844D01*
X129110370Y-97539975D01*
X129969630Y-97539975D01*
X130045838Y-97787844D01*
X130307865Y-97912563D01*
X130589189Y-97983768D01*
X130878999Y-97998719D01*
X131166157Y-97956845D01*
X131439628Y-97859754D01*
X131574162Y-97787844D01*
X131650370Y-97539975D01*
X130810000Y-96699605D01*
X129969630Y-97539975D01*
X129110370Y-97539975D01*
X128270000Y-96699605D01*
X127429630Y-97539975D01*
X126793444Y-97539975D01*
X126874309Y-97459110D01*
X126997289Y-97275057D01*
X127002156Y-97284162D01*
X127250025Y-97360370D01*
X128090395Y-96520000D01*
X128449605Y-96520000D01*
X129289975Y-97360370D01*
X129537844Y-97284162D01*
X129539875Y-97279895D01*
X129542156Y-97284162D01*
X129790025Y-97360370D01*
X130630395Y-96520000D01*
X129790025Y-95679630D01*
X129542156Y-95755838D01*
X129540125Y-95760105D01*
X129537844Y-95755838D01*
X129289975Y-95679630D01*
X128449605Y-96520000D01*
X128090395Y-96520000D01*
X127250025Y-95679630D01*
X127002156Y-95755838D01*
X126997601Y-95765408D01*
X126874309Y-95580890D01*
X126793444Y-95500025D01*
X127429630Y-95500025D01*
X128270000Y-96340395D01*
X129110370Y-95500025D01*
X129969630Y-95500025D01*
X130810000Y-96340395D01*
X131650370Y-95500025D01*
X131574162Y-95252156D01*
X131312135Y-95127437D01*
X131030811Y-95056232D01*
X130741001Y-95041281D01*
X130453843Y-95083155D01*
X130180372Y-95180246D01*
X130045838Y-95252156D01*
X129969630Y-95500025D01*
X129110370Y-95500025D01*
X129034162Y-95252156D01*
X128772135Y-95127437D01*
X128490811Y-95056232D01*
X128201001Y-95041281D01*
X127913843Y-95083155D01*
X127640372Y-95180246D01*
X127505838Y-95252156D01*
X127429630Y-95500025D01*
X126793444Y-95500025D01*
X126669110Y-95375691D01*
X126427822Y-95214467D01*
X126159717Y-95103414D01*
X125875098Y-95046800D01*
X125584902Y-95046800D01*
X125300283Y-95103414D01*
X125032178Y-95214467D01*
X124790890Y-95375691D01*
X124585691Y-95580890D01*
X124460000Y-95768999D01*
X124334309Y-95580890D01*
X124129110Y-95375691D01*
X123887822Y-95214467D01*
X123619717Y-95103414D01*
X123335098Y-95046800D01*
X123044902Y-95046800D01*
X122760283Y-95103414D01*
X122492178Y-95214467D01*
X122250890Y-95375691D01*
X122045691Y-95580890D01*
X121920000Y-95768999D01*
X121794309Y-95580890D01*
X121589110Y-95375691D01*
X121347822Y-95214467D01*
X121079717Y-95103414D01*
X120795098Y-95046800D01*
X120504902Y-95046800D01*
X120220283Y-95103414D01*
X119952178Y-95214467D01*
X119710890Y-95375691D01*
X119505691Y-95580890D01*
X119344467Y-95822178D01*
X119233414Y-96090283D01*
X119176800Y-96374902D01*
X119176800Y-96665098D01*
X119218825Y-96876373D01*
X117795199Y-98300000D01*
X109257322Y-98300000D01*
X109219999Y-98296324D01*
X109182676Y-98300000D01*
X107584013Y-98300000D01*
X107597205Y-98280256D01*
X107675226Y-98091898D01*
X107715000Y-97891939D01*
X107715000Y-97829801D01*
X112074802Y-93470000D01*
X119946289Y-93470000D01*
X119990226Y-93513937D01*
X120159744Y-93627205D01*
X120348102Y-93705226D01*
X120548061Y-93745000D01*
X120751939Y-93745000D01*
X120951898Y-93705226D01*
X121140256Y-93627205D01*
X121309774Y-93513937D01*
X121453937Y-93369774D01*
X121567205Y-93200256D01*
X121645226Y-93011898D01*
X121685000Y-92811939D01*
X121685000Y-92608061D01*
X121645226Y-92408102D01*
X121567205Y-92219744D01*
X121554013Y-92200000D01*
X124422678Y-92200000D01*
X124460000Y-92203676D01*
X124497322Y-92200000D01*
X124497333Y-92200000D01*
X124608986Y-92189003D01*
X124752247Y-92145546D01*
X124884276Y-92074974D01*
X125000001Y-91980001D01*
X125023804Y-91950997D01*
X126241004Y-90733798D01*
X126270001Y-90710001D01*
X126364974Y-90594276D01*
X126435546Y-90462247D01*
X126479003Y-90318986D01*
X126490000Y-90207333D01*
X126490000Y-90207324D01*
X126493676Y-90170001D01*
X126490000Y-90132678D01*
X126490000Y-84940546D01*
X126526828Y-84915938D01*
X126700938Y-84741828D01*
X126837735Y-84537097D01*
X126931963Y-84309611D01*
X126980000Y-84068114D01*
X126980000Y-83821886D01*
X127020000Y-83821886D01*
X127020000Y-84068114D01*
X127068037Y-84309611D01*
X127162265Y-84537097D01*
X127299062Y-84741828D01*
X127473172Y-84915938D01*
X127677903Y-85052735D01*
X127905389Y-85146963D01*
X128146886Y-85195000D01*
X128393114Y-85195000D01*
X128634611Y-85146963D01*
X128862097Y-85052735D01*
X129066828Y-84915938D01*
X129240938Y-84741828D01*
X129377735Y-84537097D01*
X129471963Y-84309611D01*
X129520000Y-84068114D01*
X129520000Y-83821886D01*
X129471963Y-83580389D01*
X129377735Y-83352903D01*
X129240938Y-83148172D01*
X129066828Y-82974062D01*
X128862097Y-82837265D01*
X128634611Y-82743037D01*
X128393114Y-82695000D01*
X128146886Y-82695000D01*
X127905389Y-82743037D01*
X127677903Y-82837265D01*
X127473172Y-82974062D01*
X127299062Y-83148172D01*
X127162265Y-83352903D01*
X127068037Y-83580389D01*
X127020000Y-83821886D01*
X126980000Y-83821886D01*
X126931963Y-83580389D01*
X126837735Y-83352903D01*
X126700938Y-83148172D01*
X126526828Y-82974062D01*
X126322097Y-82837265D01*
X126094611Y-82743037D01*
X125853114Y-82695000D01*
X125606886Y-82695000D01*
X125365389Y-82743037D01*
X125137903Y-82837265D01*
X124933172Y-82974062D01*
X124759062Y-83148172D01*
X124622265Y-83352903D01*
X124528037Y-83580389D01*
X124480000Y-83821886D01*
X124480000Y-84068114D01*
X124528037Y-84309611D01*
X124622265Y-84537097D01*
X124759062Y-84741828D01*
X124933172Y-84915938D01*
X124970001Y-84940546D01*
X124970001Y-86725988D01*
X124950256Y-86712795D01*
X124761898Y-86634774D01*
X124561939Y-86595000D01*
X124358061Y-86595000D01*
X124158102Y-86634774D01*
X123969744Y-86712795D01*
X123800226Y-86826063D01*
X123756289Y-86870000D01*
X122484801Y-86870000D01*
X123701003Y-85653799D01*
X123730001Y-85630001D01*
X123824974Y-85514276D01*
X123895546Y-85382247D01*
X123939003Y-85238986D01*
X123950000Y-85127333D01*
X123950000Y-85127324D01*
X123953676Y-85090001D01*
X123950000Y-85052678D01*
X123950000Y-84940546D01*
X123986828Y-84915938D01*
X124160938Y-84741828D01*
X124297735Y-84537097D01*
X124391963Y-84309611D01*
X124440000Y-84068114D01*
X124440000Y-83821886D01*
X124391963Y-83580389D01*
X124297735Y-83352903D01*
X124160938Y-83148172D01*
X123986828Y-82974062D01*
X123782097Y-82837265D01*
X123554611Y-82743037D01*
X123313114Y-82695000D01*
X123066886Y-82695000D01*
X122825389Y-82743037D01*
X122597903Y-82837265D01*
X122393172Y-82974062D01*
X122219062Y-83148172D01*
X122082265Y-83352903D01*
X121988037Y-83580389D01*
X121940000Y-83821886D01*
X121940000Y-84068114D01*
X121988037Y-84309611D01*
X122082265Y-84537097D01*
X122219062Y-84741828D01*
X122341216Y-84863982D01*
X121605199Y-85600000D01*
X99763711Y-85600000D01*
X99719774Y-85556063D01*
X99550256Y-85442795D01*
X99361898Y-85364774D01*
X99161939Y-85325000D01*
X98958061Y-85325000D01*
X98758102Y-85364774D01*
X98569744Y-85442795D01*
X98400226Y-85556063D01*
X98256063Y-85700226D01*
X98142795Y-85869744D01*
X98064774Y-86058102D01*
X98025000Y-86258061D01*
X98025000Y-86461939D01*
X98064774Y-86661898D01*
X98142795Y-86850256D01*
X98256063Y-87019774D01*
X98400226Y-87163937D01*
X98569744Y-87277205D01*
X98758102Y-87355226D01*
X98958061Y-87395000D01*
X99161939Y-87395000D01*
X99361898Y-87355226D01*
X99550256Y-87277205D01*
X99719774Y-87163937D01*
X99763711Y-87120000D01*
X104845198Y-87120000D01*
X101088998Y-90876201D01*
X101060000Y-90899999D01*
X101036202Y-90928997D01*
X101036201Y-90928998D01*
X100965026Y-91015724D01*
X100894454Y-91147754D01*
X100850998Y-91291015D01*
X100836324Y-91440000D01*
X100840001Y-91477332D01*
X100840000Y-95256013D01*
X100660890Y-95375691D01*
X100455691Y-95580890D01*
X100330000Y-95768999D01*
X100204309Y-95580890D01*
X99999110Y-95375691D01*
X99757822Y-95214467D01*
X99489717Y-95103414D01*
X99205098Y-95046800D01*
X98914902Y-95046800D01*
X98630283Y-95103414D01*
X98362178Y-95214467D01*
X98120890Y-95375691D01*
X97915691Y-95580890D01*
X97792711Y-95764943D01*
X97787844Y-95755838D01*
X97539975Y-95679630D01*
X96699605Y-96520000D01*
X97539975Y-97360370D01*
X97787844Y-97284162D01*
X97792399Y-97274592D01*
X97915691Y-97459110D01*
X98120890Y-97664309D01*
X98362178Y-97825533D01*
X98630283Y-97936586D01*
X98914902Y-97993200D01*
X99205098Y-97993200D01*
X99489717Y-97936586D01*
X99757822Y-97825533D01*
X99999110Y-97664309D01*
X100204309Y-97459110D01*
X100330000Y-97271001D01*
X100455691Y-97459110D01*
X100660890Y-97664309D01*
X100902178Y-97825533D01*
X101170283Y-97936586D01*
X101454902Y-97993200D01*
X101745098Y-97993200D01*
X102029717Y-97936586D01*
X102297822Y-97825533D01*
X102539110Y-97664309D01*
X102686403Y-97517016D01*
X102712298Y-97602380D01*
X102771263Y-97712694D01*
X102850615Y-97809385D01*
X102947306Y-97888737D01*
X103057620Y-97947702D01*
X103177318Y-97984012D01*
X103301800Y-97996272D01*
X104978200Y-97996272D01*
X105102682Y-97984012D01*
X105222380Y-97947702D01*
X105332694Y-97888737D01*
X105429385Y-97809385D01*
X105508737Y-97712694D01*
X105567702Y-97602380D01*
X105604012Y-97482682D01*
X105616272Y-97358200D01*
X105616272Y-95681800D01*
X105604012Y-95557318D01*
X105567702Y-95437620D01*
X105508737Y-95327306D01*
X105429385Y-95230615D01*
X105332694Y-95151263D01*
X105222380Y-95092298D01*
X105102682Y-95055988D01*
X104978200Y-95043728D01*
X103301800Y-95043728D01*
X103177318Y-95055988D01*
X103057620Y-95092298D01*
X102947306Y-95151263D01*
X102850615Y-95230615D01*
X102771263Y-95327306D01*
X102712298Y-95437620D01*
X102686403Y-95522984D01*
X102539110Y-95375691D01*
X102360000Y-95256013D01*
X102360000Y-91754801D01*
X105724802Y-88390000D01*
X108315987Y-88390000D01*
X108302795Y-88409744D01*
X108224774Y-88598102D01*
X108185000Y-88798061D01*
X108185000Y-89001939D01*
X108224774Y-89201898D01*
X108302795Y-89390256D01*
X108416063Y-89559774D01*
X108560226Y-89703937D01*
X108729744Y-89817205D01*
X108918102Y-89895226D01*
X109118061Y-89935000D01*
X109321939Y-89935000D01*
X109521898Y-89895226D01*
X109710256Y-89817205D01*
X109879774Y-89703937D01*
X109923711Y-89660000D01*
X111056289Y-89660000D01*
X111100226Y-89703937D01*
X111269744Y-89817205D01*
X111458102Y-89895226D01*
X111658061Y-89935000D01*
X111861939Y-89935000D01*
X112061898Y-89895226D01*
X112250256Y-89817205D01*
X112419774Y-89703937D01*
X112563937Y-89559774D01*
X112677205Y-89390256D01*
X112755226Y-89201898D01*
X112795000Y-89001939D01*
X112795000Y-88798061D01*
X112755226Y-88598102D01*
X112677205Y-88409744D01*
X112664013Y-88390000D01*
X123756289Y-88390000D01*
X123800226Y-88433937D01*
X123969744Y-88547205D01*
X124158102Y-88625226D01*
X124358061Y-88665000D01*
X124561939Y-88665000D01*
X124761898Y-88625226D01*
X124950256Y-88547205D01*
X124970000Y-88534012D01*
X124970000Y-89855198D01*
X124145199Y-90680000D01*
X108653711Y-90680000D01*
X108609774Y-90636063D01*
X108440256Y-90522795D01*
X108251898Y-90444774D01*
X108051939Y-90405000D01*
X107848061Y-90405000D01*
X107648102Y-90444774D01*
X107459744Y-90522795D01*
X107290226Y-90636063D01*
X107146063Y-90780226D01*
X107032795Y-90949744D01*
X106954774Y-91138102D01*
X106915000Y-91338061D01*
X106915000Y-91541939D01*
X106954774Y-91741898D01*
X107032795Y-91930256D01*
X107146063Y-92099774D01*
X107290226Y-92243937D01*
X107459744Y-92357205D01*
X107648102Y-92435226D01*
X107848061Y-92475000D01*
X108051939Y-92475000D01*
X108251898Y-92435226D01*
X108440256Y-92357205D01*
X108609774Y-92243937D01*
X108653711Y-92200000D01*
X111195198Y-92200000D01*
X106640199Y-96755000D01*
X106578061Y-96755000D01*
X106378102Y-96794774D01*
X106189744Y-96872795D01*
X106020226Y-96986063D01*
X105876063Y-97130226D01*
X105762795Y-97299744D01*
X105684774Y-97488102D01*
X105645000Y-97688061D01*
X105645000Y-97891939D01*
X105684774Y-98091898D01*
X105762795Y-98280256D01*
X105775987Y-98300000D01*
X87944802Y-98300000D01*
X87304110Y-97659309D01*
X87504309Y-97459110D01*
X87630000Y-97271001D01*
X87755691Y-97459110D01*
X87960890Y-97664309D01*
X88202178Y-97825533D01*
X88470283Y-97936586D01*
X88754902Y-97993200D01*
X89045098Y-97993200D01*
X89329717Y-97936586D01*
X89597822Y-97825533D01*
X89839110Y-97664309D01*
X90044309Y-97459110D01*
X90170000Y-97271001D01*
X90295691Y-97459110D01*
X90500890Y-97664309D01*
X90742178Y-97825533D01*
X91010283Y-97936586D01*
X91294902Y-97993200D01*
X91585098Y-97993200D01*
X91869717Y-97936586D01*
X92137822Y-97825533D01*
X92379110Y-97664309D01*
X92503444Y-97539975D01*
X93139630Y-97539975D01*
X93215838Y-97787844D01*
X93477865Y-97912563D01*
X93759189Y-97983768D01*
X94048999Y-97998719D01*
X94336157Y-97956845D01*
X94609628Y-97859754D01*
X94744162Y-97787844D01*
X94820370Y-97539975D01*
X95679630Y-97539975D01*
X95755838Y-97787844D01*
X96017865Y-97912563D01*
X96299189Y-97983768D01*
X96588999Y-97998719D01*
X96876157Y-97956845D01*
X97149628Y-97859754D01*
X97284162Y-97787844D01*
X97360370Y-97539975D01*
X96520000Y-96699605D01*
X95679630Y-97539975D01*
X94820370Y-97539975D01*
X93980000Y-96699605D01*
X93139630Y-97539975D01*
X92503444Y-97539975D01*
X92584309Y-97459110D01*
X92707289Y-97275057D01*
X92712156Y-97284162D01*
X92960025Y-97360370D01*
X93800395Y-96520000D01*
X94159605Y-96520000D01*
X94999975Y-97360370D01*
X95247844Y-97284162D01*
X95249875Y-97279895D01*
X95252156Y-97284162D01*
X95500025Y-97360370D01*
X96340395Y-96520000D01*
X95500025Y-95679630D01*
X95252156Y-95755838D01*
X95250125Y-95760105D01*
X95247844Y-95755838D01*
X94999975Y-95679630D01*
X94159605Y-96520000D01*
X93800395Y-96520000D01*
X92960025Y-95679630D01*
X92712156Y-95755838D01*
X92707601Y-95765408D01*
X92584309Y-95580890D01*
X92503444Y-95500025D01*
X93139630Y-95500025D01*
X93980000Y-96340395D01*
X94820370Y-95500025D01*
X95679630Y-95500025D01*
X96520000Y-96340395D01*
X97360370Y-95500025D01*
X97284162Y-95252156D01*
X97022135Y-95127437D01*
X96740811Y-95056232D01*
X96451001Y-95041281D01*
X96163843Y-95083155D01*
X95890372Y-95180246D01*
X95755838Y-95252156D01*
X95679630Y-95500025D01*
X94820370Y-95500025D01*
X94744162Y-95252156D01*
X94482135Y-95127437D01*
X94200811Y-95056232D01*
X93911001Y-95041281D01*
X93623843Y-95083155D01*
X93350372Y-95180246D01*
X93215838Y-95252156D01*
X93139630Y-95500025D01*
X92503444Y-95500025D01*
X92379110Y-95375691D01*
X92137822Y-95214467D01*
X91869717Y-95103414D01*
X91585098Y-95046800D01*
X91294902Y-95046800D01*
X91010283Y-95103414D01*
X90742178Y-95214467D01*
X90500890Y-95375691D01*
X90295691Y-95580890D01*
X90170000Y-95768999D01*
X90044309Y-95580890D01*
X89839110Y-95375691D01*
X89597822Y-95214467D01*
X89329717Y-95103414D01*
X89045098Y-95046800D01*
X88754902Y-95046800D01*
X88470283Y-95103414D01*
X88202178Y-95214467D01*
X87960890Y-95375691D01*
X87755691Y-95580890D01*
X87630000Y-95768999D01*
X87504309Y-95580890D01*
X87299110Y-95375691D01*
X87057822Y-95214467D01*
X86789717Y-95103414D01*
X86505098Y-95046800D01*
X86214902Y-95046800D01*
X85930283Y-95103414D01*
X85662178Y-95214467D01*
X85420890Y-95375691D01*
X85215691Y-95580890D01*
X85054467Y-95822178D01*
X84943414Y-96090283D01*
X84886800Y-96374902D01*
X84886800Y-96665098D01*
X84928825Y-96876373D01*
X83947000Y-97858198D01*
X83947000Y-94467395D01*
X84093979Y-94614374D01*
X84312478Y-94573159D01*
X84408359Y-94360335D01*
X84460878Y-94132895D01*
X84468016Y-93899579D01*
X84429500Y-93669354D01*
X84346808Y-93451066D01*
X84312478Y-93386841D01*
X84093979Y-93345626D01*
X83947000Y-93492605D01*
X83947000Y-87528061D01*
X85325000Y-87528061D01*
X85325000Y-87731939D01*
X85364774Y-87931898D01*
X85442795Y-88120256D01*
X85556063Y-88289774D01*
X85600000Y-88333711D01*
X85600001Y-90736288D01*
X85556063Y-90780226D01*
X85442795Y-90949744D01*
X85364774Y-91138102D01*
X85325000Y-91338061D01*
X85325000Y-91541939D01*
X85364774Y-91741898D01*
X85442795Y-91930256D01*
X85556063Y-92099774D01*
X85700226Y-92243937D01*
X85869744Y-92357205D01*
X86058102Y-92435226D01*
X86258061Y-92475000D01*
X86461939Y-92475000D01*
X86661898Y-92435226D01*
X86850256Y-92357205D01*
X87019774Y-92243937D01*
X87163937Y-92099774D01*
X87277205Y-91930256D01*
X87355226Y-91741898D01*
X87395000Y-91541939D01*
X87395000Y-91338061D01*
X87355226Y-91138102D01*
X87277205Y-90949744D01*
X87163937Y-90780226D01*
X87120000Y-90736289D01*
X87120000Y-88333711D01*
X87163937Y-88289774D01*
X87277205Y-88120256D01*
X87355226Y-87931898D01*
X87395000Y-87731939D01*
X87395000Y-87528061D01*
X87355226Y-87328102D01*
X87277205Y-87139744D01*
X87163937Y-86970226D01*
X87019774Y-86826063D01*
X86850256Y-86712795D01*
X86661898Y-86634774D01*
X86461939Y-86595000D01*
X86258061Y-86595000D01*
X86058102Y-86634774D01*
X85869744Y-86712795D01*
X85700226Y-86826063D01*
X85556063Y-86970226D01*
X85442795Y-87139744D01*
X85364774Y-87328102D01*
X85325000Y-87528061D01*
X83947000Y-87528061D01*
X83947000Y-84805495D01*
X94569110Y-84805495D01*
X94618243Y-85030605D01*
X94842173Y-85132995D01*
X95081775Y-85189731D01*
X95327843Y-85198634D01*
X95570918Y-85159359D01*
X95801661Y-85073417D01*
X95881757Y-85030605D01*
X95930890Y-84805495D01*
X97109110Y-84805495D01*
X97158243Y-85030605D01*
X97382173Y-85132995D01*
X97621775Y-85189731D01*
X97867843Y-85198634D01*
X98110918Y-85159359D01*
X98341661Y-85073417D01*
X98421757Y-85030605D01*
X98470890Y-84805495D01*
X99649110Y-84805495D01*
X99698243Y-85030605D01*
X99922173Y-85132995D01*
X100161775Y-85189731D01*
X100407843Y-85198634D01*
X100650918Y-85159359D01*
X100881661Y-85073417D01*
X100961757Y-85030605D01*
X101010890Y-84805495D01*
X100330000Y-84124605D01*
X99649110Y-84805495D01*
X98470890Y-84805495D01*
X97790000Y-84124605D01*
X97109110Y-84805495D01*
X95930890Y-84805495D01*
X95250000Y-84124605D01*
X94569110Y-84805495D01*
X83947000Y-84805495D01*
X83947000Y-84022843D01*
X93996366Y-84022843D01*
X94035641Y-84265918D01*
X94121583Y-84496661D01*
X94164395Y-84576757D01*
X94389505Y-84625890D01*
X95070395Y-83945000D01*
X95429605Y-83945000D01*
X96110495Y-84625890D01*
X96335605Y-84576757D01*
X96437995Y-84352827D01*
X96494731Y-84113225D01*
X96498001Y-84022843D01*
X96536366Y-84022843D01*
X96575641Y-84265918D01*
X96661583Y-84496661D01*
X96704395Y-84576757D01*
X96929505Y-84625890D01*
X97610395Y-83945000D01*
X97969605Y-83945000D01*
X98650495Y-84625890D01*
X98875605Y-84576757D01*
X98977995Y-84352827D01*
X99034731Y-84113225D01*
X99038001Y-84022843D01*
X99076366Y-84022843D01*
X99115641Y-84265918D01*
X99201583Y-84496661D01*
X99244395Y-84576757D01*
X99469505Y-84625890D01*
X100150395Y-83945000D01*
X100509605Y-83945000D01*
X101190495Y-84625890D01*
X101415605Y-84576757D01*
X101517995Y-84352827D01*
X101574731Y-84113225D01*
X101583634Y-83867157D01*
X101576320Y-83821886D01*
X101620000Y-83821886D01*
X101620000Y-84068114D01*
X101668037Y-84309611D01*
X101762265Y-84537097D01*
X101899062Y-84741828D01*
X102073172Y-84915938D01*
X102277903Y-85052735D01*
X102505389Y-85146963D01*
X102746886Y-85195000D01*
X102993114Y-85195000D01*
X103234611Y-85146963D01*
X103462097Y-85052735D01*
X103666828Y-84915938D01*
X103840938Y-84741828D01*
X103977735Y-84537097D01*
X104071963Y-84309611D01*
X104120000Y-84068114D01*
X104120000Y-83821886D01*
X104160000Y-83821886D01*
X104160000Y-84068114D01*
X104208037Y-84309611D01*
X104302265Y-84537097D01*
X104439062Y-84741828D01*
X104613172Y-84915938D01*
X104817903Y-85052735D01*
X105045389Y-85146963D01*
X105286886Y-85195000D01*
X105533114Y-85195000D01*
X105774611Y-85146963D01*
X106002097Y-85052735D01*
X106206828Y-84915938D01*
X106380938Y-84741828D01*
X106517735Y-84537097D01*
X106611963Y-84309611D01*
X106660000Y-84068114D01*
X106660000Y-83821886D01*
X106700000Y-83821886D01*
X106700000Y-84068114D01*
X106748037Y-84309611D01*
X106842265Y-84537097D01*
X106979062Y-84741828D01*
X107153172Y-84915938D01*
X107357903Y-85052735D01*
X107585389Y-85146963D01*
X107826886Y-85195000D01*
X108073114Y-85195000D01*
X108314611Y-85146963D01*
X108542097Y-85052735D01*
X108746828Y-84915938D01*
X108920938Y-84741828D01*
X109057735Y-84537097D01*
X109151963Y-84309611D01*
X109200000Y-84068114D01*
X109200000Y-83821886D01*
X109240000Y-83821886D01*
X109240000Y-84068114D01*
X109288037Y-84309611D01*
X109382265Y-84537097D01*
X109519062Y-84741828D01*
X109693172Y-84915938D01*
X109897903Y-85052735D01*
X110125389Y-85146963D01*
X110366886Y-85195000D01*
X110613114Y-85195000D01*
X110854611Y-85146963D01*
X111082097Y-85052735D01*
X111286828Y-84915938D01*
X111460938Y-84741828D01*
X111597735Y-84537097D01*
X111691963Y-84309611D01*
X111740000Y-84068114D01*
X111740000Y-83821886D01*
X111780000Y-83821886D01*
X111780000Y-84068114D01*
X111828037Y-84309611D01*
X111922265Y-84537097D01*
X112059062Y-84741828D01*
X112233172Y-84915938D01*
X112437903Y-85052735D01*
X112665389Y-85146963D01*
X112906886Y-85195000D01*
X113153114Y-85195000D01*
X113394611Y-85146963D01*
X113622097Y-85052735D01*
X113826828Y-84915938D01*
X114000938Y-84741828D01*
X114137735Y-84537097D01*
X114231963Y-84309611D01*
X114280000Y-84068114D01*
X114280000Y-83821886D01*
X114320000Y-83821886D01*
X114320000Y-84068114D01*
X114368037Y-84309611D01*
X114462265Y-84537097D01*
X114599062Y-84741828D01*
X114773172Y-84915938D01*
X114977903Y-85052735D01*
X115205389Y-85146963D01*
X115446886Y-85195000D01*
X115693114Y-85195000D01*
X115934611Y-85146963D01*
X116162097Y-85052735D01*
X116366828Y-84915938D01*
X116540938Y-84741828D01*
X116677735Y-84537097D01*
X116771963Y-84309611D01*
X116820000Y-84068114D01*
X116820000Y-83821886D01*
X116860000Y-83821886D01*
X116860000Y-84068114D01*
X116908037Y-84309611D01*
X117002265Y-84537097D01*
X117139062Y-84741828D01*
X117313172Y-84915938D01*
X117517903Y-85052735D01*
X117745389Y-85146963D01*
X117986886Y-85195000D01*
X118233114Y-85195000D01*
X118474611Y-85146963D01*
X118702097Y-85052735D01*
X118906828Y-84915938D01*
X119080938Y-84741828D01*
X119217735Y-84537097D01*
X119311963Y-84309611D01*
X119360000Y-84068114D01*
X119360000Y-83821886D01*
X119400000Y-83821886D01*
X119400000Y-84068114D01*
X119448037Y-84309611D01*
X119542265Y-84537097D01*
X119679062Y-84741828D01*
X119853172Y-84915938D01*
X120057903Y-85052735D01*
X120285389Y-85146963D01*
X120526886Y-85195000D01*
X120773114Y-85195000D01*
X121014611Y-85146963D01*
X121242097Y-85052735D01*
X121446828Y-84915938D01*
X121620938Y-84741828D01*
X121757735Y-84537097D01*
X121851963Y-84309611D01*
X121900000Y-84068114D01*
X121900000Y-83821886D01*
X121851963Y-83580389D01*
X121757735Y-83352903D01*
X121620938Y-83148172D01*
X121446828Y-82974062D01*
X121242097Y-82837265D01*
X121014611Y-82743037D01*
X120773114Y-82695000D01*
X120526886Y-82695000D01*
X120285389Y-82743037D01*
X120057903Y-82837265D01*
X119853172Y-82974062D01*
X119679062Y-83148172D01*
X119542265Y-83352903D01*
X119448037Y-83580389D01*
X119400000Y-83821886D01*
X119360000Y-83821886D01*
X119311963Y-83580389D01*
X119217735Y-83352903D01*
X119080938Y-83148172D01*
X118906828Y-82974062D01*
X118702097Y-82837265D01*
X118474611Y-82743037D01*
X118233114Y-82695000D01*
X117986886Y-82695000D01*
X117745389Y-82743037D01*
X117517903Y-82837265D01*
X117313172Y-82974062D01*
X117139062Y-83148172D01*
X117002265Y-83352903D01*
X116908037Y-83580389D01*
X116860000Y-83821886D01*
X116820000Y-83821886D01*
X116771963Y-83580389D01*
X116677735Y-83352903D01*
X116540938Y-83148172D01*
X116366828Y-82974062D01*
X116162097Y-82837265D01*
X115934611Y-82743037D01*
X115693114Y-82695000D01*
X115446886Y-82695000D01*
X115205389Y-82743037D01*
X114977903Y-82837265D01*
X114773172Y-82974062D01*
X114599062Y-83148172D01*
X114462265Y-83352903D01*
X114368037Y-83580389D01*
X114320000Y-83821886D01*
X114280000Y-83821886D01*
X114231963Y-83580389D01*
X114137735Y-83352903D01*
X114000938Y-83148172D01*
X113826828Y-82974062D01*
X113622097Y-82837265D01*
X113394611Y-82743037D01*
X113153114Y-82695000D01*
X112906886Y-82695000D01*
X112665389Y-82743037D01*
X112437903Y-82837265D01*
X112233172Y-82974062D01*
X112059062Y-83148172D01*
X111922265Y-83352903D01*
X111828037Y-83580389D01*
X111780000Y-83821886D01*
X111740000Y-83821886D01*
X111691963Y-83580389D01*
X111597735Y-83352903D01*
X111460938Y-83148172D01*
X111286828Y-82974062D01*
X111082097Y-82837265D01*
X110854611Y-82743037D01*
X110613114Y-82695000D01*
X110366886Y-82695000D01*
X110125389Y-82743037D01*
X109897903Y-82837265D01*
X109693172Y-82974062D01*
X109519062Y-83148172D01*
X109382265Y-83352903D01*
X109288037Y-83580389D01*
X109240000Y-83821886D01*
X109200000Y-83821886D01*
X109151963Y-83580389D01*
X109057735Y-83352903D01*
X108920938Y-83148172D01*
X108746828Y-82974062D01*
X108542097Y-82837265D01*
X108314611Y-82743037D01*
X108073114Y-82695000D01*
X107826886Y-82695000D01*
X107585389Y-82743037D01*
X107357903Y-82837265D01*
X107153172Y-82974062D01*
X106979062Y-83148172D01*
X106842265Y-83352903D01*
X106748037Y-83580389D01*
X106700000Y-83821886D01*
X106660000Y-83821886D01*
X106611963Y-83580389D01*
X106517735Y-83352903D01*
X106380938Y-83148172D01*
X106206828Y-82974062D01*
X106002097Y-82837265D01*
X105774611Y-82743037D01*
X105533114Y-82695000D01*
X105286886Y-82695000D01*
X105045389Y-82743037D01*
X104817903Y-82837265D01*
X104613172Y-82974062D01*
X104439062Y-83148172D01*
X104302265Y-83352903D01*
X104208037Y-83580389D01*
X104160000Y-83821886D01*
X104120000Y-83821886D01*
X104071963Y-83580389D01*
X103977735Y-83352903D01*
X103840938Y-83148172D01*
X103666828Y-82974062D01*
X103462097Y-82837265D01*
X103234611Y-82743037D01*
X102993114Y-82695000D01*
X102746886Y-82695000D01*
X102505389Y-82743037D01*
X102277903Y-82837265D01*
X102073172Y-82974062D01*
X101899062Y-83148172D01*
X101762265Y-83352903D01*
X101668037Y-83580389D01*
X101620000Y-83821886D01*
X101576320Y-83821886D01*
X101544359Y-83624082D01*
X101458417Y-83393339D01*
X101415605Y-83313243D01*
X101190495Y-83264110D01*
X100509605Y-83945000D01*
X100150395Y-83945000D01*
X99469505Y-83264110D01*
X99244395Y-83313243D01*
X99142005Y-83537173D01*
X99085269Y-83776775D01*
X99076366Y-84022843D01*
X99038001Y-84022843D01*
X99043634Y-83867157D01*
X99004359Y-83624082D01*
X98918417Y-83393339D01*
X98875605Y-83313243D01*
X98650495Y-83264110D01*
X97969605Y-83945000D01*
X97610395Y-83945000D01*
X96929505Y-83264110D01*
X96704395Y-83313243D01*
X96602005Y-83537173D01*
X96545269Y-83776775D01*
X96536366Y-84022843D01*
X96498001Y-84022843D01*
X96503634Y-83867157D01*
X96464359Y-83624082D01*
X96378417Y-83393339D01*
X96335605Y-83313243D01*
X96110495Y-83264110D01*
X95429605Y-83945000D01*
X95070395Y-83945000D01*
X94389505Y-83264110D01*
X94164395Y-83313243D01*
X94062005Y-83537173D01*
X94005269Y-83776775D01*
X93996366Y-84022843D01*
X83947000Y-84022843D01*
X83947000Y-83084505D01*
X94569110Y-83084505D01*
X95250000Y-83765395D01*
X95930890Y-83084505D01*
X97109110Y-83084505D01*
X97790000Y-83765395D01*
X98470890Y-83084505D01*
X99649110Y-83084505D01*
X100330000Y-83765395D01*
X101010890Y-83084505D01*
X100961757Y-82859395D01*
X100737827Y-82757005D01*
X100498225Y-82700269D01*
X100252157Y-82691366D01*
X100009082Y-82730641D01*
X99778339Y-82816583D01*
X99698243Y-82859395D01*
X99649110Y-83084505D01*
X98470890Y-83084505D01*
X98421757Y-82859395D01*
X98197827Y-82757005D01*
X97958225Y-82700269D01*
X97712157Y-82691366D01*
X97469082Y-82730641D01*
X97238339Y-82816583D01*
X97158243Y-82859395D01*
X97109110Y-83084505D01*
X95930890Y-83084505D01*
X95881757Y-82859395D01*
X95657827Y-82757005D01*
X95418225Y-82700269D01*
X95172157Y-82691366D01*
X94929082Y-82730641D01*
X94698339Y-82816583D01*
X94618243Y-82859395D01*
X94569110Y-83084505D01*
X83947000Y-83084505D01*
X83947000Y-75951886D01*
X94000000Y-75951886D01*
X94000000Y-76198114D01*
X94048037Y-76439611D01*
X94142265Y-76667097D01*
X94279062Y-76871828D01*
X94453172Y-77045938D01*
X94657903Y-77182735D01*
X94885389Y-77276963D01*
X95126886Y-77325000D01*
X95373114Y-77325000D01*
X95614611Y-77276963D01*
X95842097Y-77182735D01*
X96046828Y-77045938D01*
X96220938Y-76871828D01*
X96357735Y-76667097D01*
X96451963Y-76439611D01*
X96500000Y-76198114D01*
X96500000Y-75951886D01*
X96540000Y-75951886D01*
X96540000Y-76198114D01*
X96588037Y-76439611D01*
X96682265Y-76667097D01*
X96819062Y-76871828D01*
X96993172Y-77045938D01*
X97197903Y-77182735D01*
X97425389Y-77276963D01*
X97666886Y-77325000D01*
X97913114Y-77325000D01*
X98154611Y-77276963D01*
X98382097Y-77182735D01*
X98586828Y-77045938D01*
X98760938Y-76871828D01*
X98897735Y-76667097D01*
X98991963Y-76439611D01*
X99040000Y-76198114D01*
X99040000Y-75951886D01*
X99080000Y-75951886D01*
X99080000Y-76198114D01*
X99128037Y-76439611D01*
X99222265Y-76667097D01*
X99359062Y-76871828D01*
X99533172Y-77045938D01*
X99737903Y-77182735D01*
X99965389Y-77276963D01*
X100206886Y-77325000D01*
X100453114Y-77325000D01*
X100694611Y-77276963D01*
X100922097Y-77182735D01*
X101126828Y-77045938D01*
X101300938Y-76871828D01*
X101437735Y-76667097D01*
X101531963Y-76439611D01*
X101580000Y-76198114D01*
X101580000Y-75951886D01*
X101620000Y-75951886D01*
X101620000Y-76198114D01*
X101668037Y-76439611D01*
X101762265Y-76667097D01*
X101899062Y-76871828D01*
X102073172Y-77045938D01*
X102277903Y-77182735D01*
X102505389Y-77276963D01*
X102746886Y-77325000D01*
X102993114Y-77325000D01*
X103234611Y-77276963D01*
X103462097Y-77182735D01*
X103666828Y-77045938D01*
X103777271Y-76935495D01*
X104729110Y-76935495D01*
X104778243Y-77160605D01*
X105002173Y-77262995D01*
X105241775Y-77319731D01*
X105487843Y-77328634D01*
X105730918Y-77289359D01*
X105961661Y-77203417D01*
X106041757Y-77160605D01*
X106090890Y-76935495D01*
X105410000Y-76254605D01*
X104729110Y-76935495D01*
X103777271Y-76935495D01*
X103840938Y-76871828D01*
X103977735Y-76667097D01*
X104071963Y-76439611D01*
X104120000Y-76198114D01*
X104120000Y-76152843D01*
X104156366Y-76152843D01*
X104195641Y-76395918D01*
X104281583Y-76626661D01*
X104324395Y-76706757D01*
X104549505Y-76755890D01*
X105230395Y-76075000D01*
X105589605Y-76075000D01*
X106270495Y-76755890D01*
X106495605Y-76706757D01*
X106597995Y-76482827D01*
X106654731Y-76243225D01*
X106663634Y-75997157D01*
X106656320Y-75951886D01*
X106700000Y-75951886D01*
X106700000Y-76198114D01*
X106748037Y-76439611D01*
X106842265Y-76667097D01*
X106979062Y-76871828D01*
X107153172Y-77045938D01*
X107357903Y-77182735D01*
X107585389Y-77276963D01*
X107826886Y-77325000D01*
X108073114Y-77325000D01*
X108314611Y-77276963D01*
X108542097Y-77182735D01*
X108746828Y-77045938D01*
X108920938Y-76871828D01*
X109057735Y-76667097D01*
X109151963Y-76439611D01*
X109200000Y-76198114D01*
X109200000Y-75951886D01*
X109240000Y-75951886D01*
X109240000Y-76198114D01*
X109288037Y-76439611D01*
X109382265Y-76667097D01*
X109519062Y-76871828D01*
X109693172Y-77045938D01*
X109897903Y-77182735D01*
X110125389Y-77276963D01*
X110366886Y-77325000D01*
X110613114Y-77325000D01*
X110854611Y-77276963D01*
X111082097Y-77182735D01*
X111286828Y-77045938D01*
X111460938Y-76871828D01*
X111597735Y-76667097D01*
X111691963Y-76439611D01*
X111740000Y-76198114D01*
X111740000Y-75951886D01*
X111780000Y-75951886D01*
X111780000Y-76198114D01*
X111828037Y-76439611D01*
X111922265Y-76667097D01*
X112059062Y-76871828D01*
X112233172Y-77045938D01*
X112437903Y-77182735D01*
X112665389Y-77276963D01*
X112906886Y-77325000D01*
X113153114Y-77325000D01*
X113394611Y-77276963D01*
X113622097Y-77182735D01*
X113826828Y-77045938D01*
X114000938Y-76871828D01*
X114137735Y-76667097D01*
X114231963Y-76439611D01*
X114280000Y-76198114D01*
X114280000Y-75951886D01*
X114320000Y-75951886D01*
X114320000Y-76198114D01*
X114368037Y-76439611D01*
X114462265Y-76667097D01*
X114599062Y-76871828D01*
X114773172Y-77045938D01*
X114977903Y-77182735D01*
X115205389Y-77276963D01*
X115446886Y-77325000D01*
X115693114Y-77325000D01*
X115934611Y-77276963D01*
X116162097Y-77182735D01*
X116366828Y-77045938D01*
X116540938Y-76871828D01*
X116677735Y-76667097D01*
X116771963Y-76439611D01*
X116820000Y-76198114D01*
X116820000Y-75951886D01*
X116860000Y-75951886D01*
X116860000Y-76198114D01*
X116908037Y-76439611D01*
X117002265Y-76667097D01*
X117139062Y-76871828D01*
X117313172Y-77045938D01*
X117517903Y-77182735D01*
X117745389Y-77276963D01*
X117986886Y-77325000D01*
X118233114Y-77325000D01*
X118474611Y-77276963D01*
X118702097Y-77182735D01*
X118906828Y-77045938D01*
X119080938Y-76871828D01*
X119217735Y-76667097D01*
X119311963Y-76439611D01*
X119360000Y-76198114D01*
X119360000Y-75951886D01*
X119400000Y-75951886D01*
X119400000Y-76198114D01*
X119448037Y-76439611D01*
X119542265Y-76667097D01*
X119679062Y-76871828D01*
X119853172Y-77045938D01*
X120057903Y-77182735D01*
X120285389Y-77276963D01*
X120526886Y-77325000D01*
X120773114Y-77325000D01*
X121014611Y-77276963D01*
X121242097Y-77182735D01*
X121446828Y-77045938D01*
X121620938Y-76871828D01*
X121757735Y-76667097D01*
X121851963Y-76439611D01*
X121900000Y-76198114D01*
X121900000Y-75951886D01*
X121940000Y-75951886D01*
X121940000Y-76198114D01*
X121988037Y-76439611D01*
X122082265Y-76667097D01*
X122219062Y-76871828D01*
X122393172Y-77045938D01*
X122597903Y-77182735D01*
X122825389Y-77276963D01*
X123066886Y-77325000D01*
X123313114Y-77325000D01*
X123554611Y-77276963D01*
X123782097Y-77182735D01*
X123986828Y-77045938D01*
X124160938Y-76871828D01*
X124297735Y-76667097D01*
X124391963Y-76439611D01*
X124440000Y-76198114D01*
X124440000Y-75951886D01*
X124480000Y-75951886D01*
X124480000Y-76198114D01*
X124528037Y-76439611D01*
X124622265Y-76667097D01*
X124759062Y-76871828D01*
X124933172Y-77045938D01*
X125137903Y-77182735D01*
X125365389Y-77276963D01*
X125606886Y-77325000D01*
X125853114Y-77325000D01*
X126094611Y-77276963D01*
X126322097Y-77182735D01*
X126526828Y-77045938D01*
X126700938Y-76871828D01*
X126837735Y-76667097D01*
X126931963Y-76439611D01*
X126980000Y-76198114D01*
X126980000Y-75951886D01*
X126931963Y-75710389D01*
X126837735Y-75482903D01*
X126822432Y-75460000D01*
X127016928Y-75460000D01*
X127016928Y-76690000D01*
X127029188Y-76814482D01*
X127065498Y-76934180D01*
X127124463Y-77044494D01*
X127203815Y-77141185D01*
X127300506Y-77220537D01*
X127410820Y-77279502D01*
X127530518Y-77315812D01*
X127655000Y-77328072D01*
X128885000Y-77328072D01*
X129009482Y-77315812D01*
X129129180Y-77279502D01*
X129239494Y-77220537D01*
X129336185Y-77141185D01*
X129415537Y-77044494D01*
X129474502Y-76934180D01*
X129510812Y-76814482D01*
X129523072Y-76690000D01*
X129523072Y-75460000D01*
X129510812Y-75335518D01*
X129474502Y-75215820D01*
X129415537Y-75105506D01*
X129336185Y-75008815D01*
X129239494Y-74929463D01*
X129129180Y-74870498D01*
X129009482Y-74834188D01*
X128885000Y-74821928D01*
X127655000Y-74821928D01*
X127530518Y-74834188D01*
X127410820Y-74870498D01*
X127300506Y-74929463D01*
X127203815Y-75008815D01*
X127124463Y-75105506D01*
X127065498Y-75215820D01*
X127029188Y-75335518D01*
X127016928Y-75460000D01*
X126822432Y-75460000D01*
X126700938Y-75278172D01*
X126526828Y-75104062D01*
X126322097Y-74967265D01*
X126094611Y-74873037D01*
X125853114Y-74825000D01*
X125606886Y-74825000D01*
X125365389Y-74873037D01*
X125137903Y-74967265D01*
X124933172Y-75104062D01*
X124759062Y-75278172D01*
X124622265Y-75482903D01*
X124528037Y-75710389D01*
X124480000Y-75951886D01*
X124440000Y-75951886D01*
X124391963Y-75710389D01*
X124297735Y-75482903D01*
X124160938Y-75278172D01*
X123986828Y-75104062D01*
X123782097Y-74967265D01*
X123554611Y-74873037D01*
X123313114Y-74825000D01*
X123066886Y-74825000D01*
X122825389Y-74873037D01*
X122597903Y-74967265D01*
X122393172Y-75104062D01*
X122219062Y-75278172D01*
X122082265Y-75482903D01*
X121988037Y-75710389D01*
X121940000Y-75951886D01*
X121900000Y-75951886D01*
X121851963Y-75710389D01*
X121757735Y-75482903D01*
X121620938Y-75278172D01*
X121446828Y-75104062D01*
X121242097Y-74967265D01*
X121014611Y-74873037D01*
X120773114Y-74825000D01*
X120526886Y-74825000D01*
X120285389Y-74873037D01*
X120057903Y-74967265D01*
X119853172Y-75104062D01*
X119679062Y-75278172D01*
X119542265Y-75482903D01*
X119448037Y-75710389D01*
X119400000Y-75951886D01*
X119360000Y-75951886D01*
X119311963Y-75710389D01*
X119217735Y-75482903D01*
X119080938Y-75278172D01*
X118906828Y-75104062D01*
X118702097Y-74967265D01*
X118474611Y-74873037D01*
X118233114Y-74825000D01*
X117986886Y-74825000D01*
X117745389Y-74873037D01*
X117517903Y-74967265D01*
X117313172Y-75104062D01*
X117139062Y-75278172D01*
X117002265Y-75482903D01*
X116908037Y-75710389D01*
X116860000Y-75951886D01*
X116820000Y-75951886D01*
X116771963Y-75710389D01*
X116677735Y-75482903D01*
X116540938Y-75278172D01*
X116366828Y-75104062D01*
X116162097Y-74967265D01*
X115934611Y-74873037D01*
X115693114Y-74825000D01*
X115446886Y-74825000D01*
X115205389Y-74873037D01*
X114977903Y-74967265D01*
X114773172Y-75104062D01*
X114599062Y-75278172D01*
X114462265Y-75482903D01*
X114368037Y-75710389D01*
X114320000Y-75951886D01*
X114280000Y-75951886D01*
X114231963Y-75710389D01*
X114137735Y-75482903D01*
X114000938Y-75278172D01*
X113826828Y-75104062D01*
X113622097Y-74967265D01*
X113394611Y-74873037D01*
X113153114Y-74825000D01*
X112906886Y-74825000D01*
X112665389Y-74873037D01*
X112437903Y-74967265D01*
X112233172Y-75104062D01*
X112059062Y-75278172D01*
X111922265Y-75482903D01*
X111828037Y-75710389D01*
X111780000Y-75951886D01*
X111740000Y-75951886D01*
X111691963Y-75710389D01*
X111597735Y-75482903D01*
X111460938Y-75278172D01*
X111286828Y-75104062D01*
X111082097Y-74967265D01*
X110854611Y-74873037D01*
X110613114Y-74825000D01*
X110366886Y-74825000D01*
X110125389Y-74873037D01*
X109897903Y-74967265D01*
X109693172Y-75104062D01*
X109519062Y-75278172D01*
X109382265Y-75482903D01*
X109288037Y-75710389D01*
X109240000Y-75951886D01*
X109200000Y-75951886D01*
X109151963Y-75710389D01*
X109057735Y-75482903D01*
X108920938Y-75278172D01*
X108746828Y-75104062D01*
X108542097Y-74967265D01*
X108314611Y-74873037D01*
X108073114Y-74825000D01*
X107826886Y-74825000D01*
X107585389Y-74873037D01*
X107357903Y-74967265D01*
X107153172Y-75104062D01*
X106979062Y-75278172D01*
X106842265Y-75482903D01*
X106748037Y-75710389D01*
X106700000Y-75951886D01*
X106656320Y-75951886D01*
X106624359Y-75754082D01*
X106538417Y-75523339D01*
X106495605Y-75443243D01*
X106270495Y-75394110D01*
X105589605Y-76075000D01*
X105230395Y-76075000D01*
X104549505Y-75394110D01*
X104324395Y-75443243D01*
X104222005Y-75667173D01*
X104165269Y-75906775D01*
X104156366Y-76152843D01*
X104120000Y-76152843D01*
X104120000Y-75951886D01*
X104071963Y-75710389D01*
X103977735Y-75482903D01*
X103840938Y-75278172D01*
X103777271Y-75214505D01*
X104729110Y-75214505D01*
X105410000Y-75895395D01*
X106090890Y-75214505D01*
X106041757Y-74989395D01*
X105817827Y-74887005D01*
X105578225Y-74830269D01*
X105332157Y-74821366D01*
X105089082Y-74860641D01*
X104858339Y-74946583D01*
X104778243Y-74989395D01*
X104729110Y-75214505D01*
X103777271Y-75214505D01*
X103666828Y-75104062D01*
X103462097Y-74967265D01*
X103234611Y-74873037D01*
X102993114Y-74825000D01*
X102746886Y-74825000D01*
X102505389Y-74873037D01*
X102277903Y-74967265D01*
X102073172Y-75104062D01*
X101899062Y-75278172D01*
X101762265Y-75482903D01*
X101668037Y-75710389D01*
X101620000Y-75951886D01*
X101580000Y-75951886D01*
X101531963Y-75710389D01*
X101437735Y-75482903D01*
X101300938Y-75278172D01*
X101126828Y-75104062D01*
X100922097Y-74967265D01*
X100694611Y-74873037D01*
X100453114Y-74825000D01*
X100206886Y-74825000D01*
X99965389Y-74873037D01*
X99737903Y-74967265D01*
X99533172Y-75104062D01*
X99359062Y-75278172D01*
X99222265Y-75482903D01*
X99128037Y-75710389D01*
X99080000Y-75951886D01*
X99040000Y-75951886D01*
X98991963Y-75710389D01*
X98897735Y-75482903D01*
X98760938Y-75278172D01*
X98586828Y-75104062D01*
X98382097Y-74967265D01*
X98154611Y-74873037D01*
X97913114Y-74825000D01*
X97666886Y-74825000D01*
X97425389Y-74873037D01*
X97197903Y-74967265D01*
X96993172Y-75104062D01*
X96819062Y-75278172D01*
X96682265Y-75482903D01*
X96588037Y-75710389D01*
X96540000Y-75951886D01*
X96500000Y-75951886D01*
X96451963Y-75710389D01*
X96357735Y-75482903D01*
X96220938Y-75278172D01*
X96046828Y-75104062D01*
X95842097Y-74967265D01*
X95614611Y-74873037D01*
X95373114Y-74825000D01*
X95126886Y-74825000D01*
X94885389Y-74873037D01*
X94657903Y-74967265D01*
X94453172Y-75104062D01*
X94279062Y-75278172D01*
X94142265Y-75482903D01*
X94048037Y-75710389D01*
X94000000Y-75951886D01*
X83947000Y-75951886D01*
X83947000Y-71247000D01*
X142113000Y-71247000D01*
X142113000Y-99194273D01*
M02*
